<svg width="72" height="18" viewBox="0 0 72 18" fill="none" xmlns="http://www.w3.org/2000/svg">
<path d="M30.4055 5.91512L27.196 0.690231C26.9543 0.29352 26.5577 0 25.9883 0H25.695C24.9536 0 24.3666 0.586276 24.3666 1.32772V10.9501C24.3666 11.6747 24.936 12.2434 25.6602 12.2434C26.3849 12.2434 26.9715 11.6743 26.9715 10.9501V4.94895L29.2663 8.48456C29.542 8.89771 29.8873 9.15683 30.3703 9.15683C30.8536 9.15683 31.1986 8.89771 31.475 8.48456L33.9469 4.67721V0.710869L30.4055 5.91512Z" fill="black"/>
<path d="M8.88662 0C8.14476 0 7.55778 0.586276 7.55778 1.32772V4.88015H2.65731V1.32772C2.65731 0.586276 2.0707 0 1.32846 0C0.586986 0 0 0.586276 0 1.32772V10.9508C0 11.6926 0.586986 12.2789 1.32846 12.2789C2.07032 12.2789 2.65731 11.6926 2.65731 10.9508V7.32959H7.55778V10.9508C7.55778 11.6926 8.14438 12.2789 8.88662 12.2789C9.62848 12.2789 10.2155 11.6926 10.2155 10.9508V1.3281C10.2151 0.586276 9.62848 0 8.88662 0Z" fill="black"/>
<path d="M20.9984 9.81305H15.5289V7.27762H20.1357C20.7919 7.27762 21.3265 6.76052 21.3265 6.10507C21.3265 5.45 20.7915 4.91493 20.1357 4.91493H15.5289V2.46626H20.9123C21.5682 2.46626 22.1027 1.94916 22.1027 1.29333C22.1027 0.638257 21.5678 0.103577 20.9123 0.103577H14.2173C13.4758 0.103577 12.8888 0.690235 12.8888 1.4313V10.848C12.8888 11.5895 13.4758 12.1757 14.2173 12.1757H20.9984C21.6542 12.1757 22.1892 11.6583 22.1892 11.0028C22.1892 10.3477 21.6542 9.81305 20.9984 9.81305Z" fill="black"/>
<path d="M49.5136 2.8202H50.9526C51.0918 2.8202 51.2058 2.70478 51.2058 2.55802C51.2058 2.41126 51.0918 2.29164 50.9526 2.29164H49.792V1.72562H50.7698C50.909 1.72562 51.0222 1.6102 51.0222 1.46344C51.0222 1.31783 50.909 1.1982 50.7698 1.1982H49.792V0.650909H50.9346C51.0738 0.650909 51.187 0.535488 51.187 0.388728C51.187 0.241968 51.0738 0.123108 50.9346 0.123108H49.5136C49.3565 0.123108 49.2318 0.253434 49.2318 0.419685V2.52286C49.2318 2.68911 49.3565 2.8202 49.5136 2.8202Z" fill="black"/>
<path d="M52.0042 2.82017H52.7224C53.5277 2.82017 54.0845 2.23046 54.0845 1.47182V1.46379C54.0845 0.705147 53.5281 0.12384 52.7224 0.12384H52.0042C51.8467 0.12384 51.7224 0.254166 51.7224 0.420418V2.5236C51.7224 2.68908 51.8467 2.82017 52.0042 2.82017ZM52.2861 0.658903H52.722C53.1832 0.658903 53.4948 0.993699 53.4948 1.4722V1.47984C53.4948 1.95719 53.1836 2.28473 52.722 2.28473H52.2861V0.658903Z" fill="black"/>
<path d="M56.8164 1.66864V0.420418C56.8164 0.254931 56.6917 0.12384 56.5346 0.12384C56.377 0.12384 56.2524 0.254931 56.2524 0.420418V1.69234C56.2524 2.12001 56.0436 2.33938 55.699 2.33938C55.3545 2.33938 55.1468 2.1116 55.1468 1.67285V0.420418C55.1468 0.254931 55.0222 0.12384 54.8646 0.12384C54.7063 0.12384 54.582 0.254931 54.582 0.420418V1.68852C54.582 2.48232 55.0034 2.88591 55.6914 2.88591C56.3812 2.88591 56.8164 2.48538 56.8164 1.66864Z" fill="black"/>
<path d="M58.6289 2.91268C59.0392 2.91268 59.3107 2.78579 59.5409 2.57368C59.5925 2.52782 59.6361 2.45482 59.6361 2.36233C59.6361 2.21175 59.5157 2.08868 59.373 2.08868C59.3065 2.08868 59.2484 2.11582 59.2044 2.15404C59.0426 2.28818 58.8855 2.36539 58.648 2.36539C58.2078 2.36539 57.905 1.98052 57.905 1.51846V1.51043C57.905 1.04837 58.2155 0.670767 58.648 0.670767C58.8488 0.670767 59.0143 0.740325 59.1719 0.863007C59.212 0.890142 59.2629 0.921099 59.3398 0.921099C59.4939 0.921099 59.6185 0.793449 59.6185 0.632166C59.6185 0.528211 59.5669 0.442983 59.5088 0.39712C59.2965 0.231633 59.0357 0.123474 58.6514 0.123474C57.8641 0.123474 57.3149 0.75179 57.3149 1.51808V1.52534C57.3146 2.30003 57.8752 2.91268 58.6289 2.91268Z" fill="black"/>
<path d="M60.2515 2.88589C60.3689 2.88589 60.4637 2.81634 60.5115 2.70091L60.6909 2.25796H61.8193L61.9914 2.68219C62.0423 2.80487 62.1298 2.88628 62.2618 2.88628C62.4117 2.88628 62.5287 2.75939 62.5287 2.60116C62.5287 2.56256 62.518 2.52396 62.5 2.48154L61.606 0.359252C61.544 0.212874 61.4339 0.124207 61.2805 0.124207H61.2469C61.0939 0.124207 60.98 0.212492 60.9176 0.359252L60.0243 2.48154C60.0056 2.52396 59.9915 2.56677 59.9915 2.60843C59.9918 2.76206 60.105 2.88589 60.2515 2.88589ZM61.2545 0.843866L61.6102 1.73436H60.8997L61.2545 0.843866Z" fill="black"/>
<path d="M62.7894 0.670352H63.3321V2.54689C63.3321 2.71238 63.4556 2.84347 63.6139 2.84347C63.7714 2.84347 63.8957 2.71238 63.8957 2.54689V0.670352H64.4376C64.5802 0.670352 64.6972 0.54767 64.6972 0.396706C64.6972 0.246889 64.5802 0.124207 64.4376 0.124207H62.7894C62.6468 0.124207 62.5298 0.246889 62.5298 0.396706C62.5298 0.547288 62.6468 0.670352 62.7894 0.670352Z" fill="black"/>
<path d="M65.4521 2.86718C65.6097 2.86718 65.7343 2.73609 65.7343 2.5706V0.420418C65.7343 0.254931 65.6097 0.12384 65.4521 0.12384C65.295 0.12384 65.1703 0.254931 65.1703 0.420418V2.5706C65.1699 2.73571 65.2946 2.86718 65.4521 2.86718Z" fill="black"/>
<path d="M69.0227 1.51881V1.51078C69.0227 0.744115 68.4548 0.124207 67.664 0.124207C66.8732 0.124207 66.2981 0.752523 66.2981 1.51881V1.52607C66.2981 2.29274 66.866 2.91265 67.6568 2.91265C68.4472 2.91265 69.0227 2.28548 69.0227 1.51881ZM66.8878 1.51881V1.51078C66.8878 1.04872 67.2025 0.671117 67.6564 0.671117C68.1103 0.671117 68.4327 1.05598 68.4327 1.51881V1.52607C68.4327 1.98813 68.1179 2.36574 67.664 2.36574C67.2101 2.36574 66.8878 1.98087 66.8878 1.51881Z" fill="black"/>
<path d="M69.8394 2.8668C69.9928 2.8668 70.1171 2.73571 70.1171 2.57443V1.12976L71.2455 2.68602C71.3228 2.78998 71.4031 2.85954 71.5381 2.85954H71.5568C71.7144 2.85954 71.839 2.72845 71.839 2.5622V0.416978C71.839 0.254931 71.7144 0.12384 71.5602 0.12384C71.4061 0.12384 71.2815 0.254931 71.2815 0.416978V1.80776L70.1943 0.304997C70.1171 0.201042 70.0368 0.132248 69.9018 0.132248H69.8425C69.6853 0.132248 69.5607 0.263339 69.5607 0.428826V2.57481C69.5611 2.73571 69.6857 2.8668 69.8394 2.8668Z" fill="black"/>
<path d="M50.3075 10.3507C49.8528 10.2318 49.7404 10.1749 49.7404 9.99791V9.99064C49.7404 9.86032 49.857 9.75713 50.0784 9.75713C50.2585 9.75713 50.4386 9.8221 50.6302 9.93714C50.6757 9.96389 50.7205 9.97918 50.7767 9.97918C50.9274 9.97918 51.047 9.86032 51.047 9.70706C51.047 9.59241 50.9836 9.51176 50.9193 9.47355C50.683 9.32029 50.405 9.23621 50.0857 9.23621C49.5488 9.23621 49.1656 9.55801 49.1656 10.0442V10.0514C49.1656 10.5842 49.5071 10.7332 50.0367 10.8716C50.4761 10.9866 50.5664 11.0631 50.5664 11.2121V11.2201C50.5664 11.3776 50.4237 11.4728 50.1866 11.4728C49.9316 11.4728 49.714 11.3807 49.5144 11.2316C49.4769 11.2049 49.4249 11.1777 49.3499 11.1777C49.1993 11.1777 49.0796 11.2966 49.0796 11.4495C49.0796 11.5416 49.1243 11.6256 49.1878 11.6719C49.4811 11.8859 49.8306 11.9937 50.1763 11.9937C50.7438 11.9937 51.1411 11.6948 51.1411 11.162V11.1548C51.1411 10.6878 50.8413 10.4921 50.3075 10.3507Z" fill="black"/>
<path d="M52.9675 9.22791C52.1557 9.22791 51.5668 9.85278 51.5668 10.6149V10.6221C51.5668 11.3842 52.1488 12.0011 52.9602 12.0011C53.7713 12.0011 54.3614 11.3773 54.3614 10.6149V10.6068C54.3614 9.84437 53.7786 9.22791 52.9675 9.22791ZM53.7564 10.6221C53.7564 11.0815 53.4329 11.4572 52.9675 11.4572C52.5014 11.4572 52.1713 11.0743 52.1713 10.6149V10.6068C52.1713 10.1474 52.4941 9.77214 52.9602 9.77214C53.4256 9.77214 53.7568 10.1551 53.7568 10.6149V10.6221H53.7564Z" fill="black"/>
<path d="M56.5625 11.419H55.4925V9.54552C55.4925 9.38118 55.3644 9.25085 55.203 9.25085C55.0417 9.25085 54.9139 9.38118 54.9139 9.54552V11.6605C54.9139 11.8253 55.0417 11.9556 55.203 11.9556H56.5625C56.7093 11.9556 56.8259 11.8367 56.8259 11.6877C56.8256 11.5379 56.7093 11.419 56.5625 11.419Z" fill="black"/>
<path d="M59.1628 9.25049C59.0006 9.25049 58.8737 9.38081 58.8737 9.54515V10.8102C58.8737 11.2356 58.6591 11.4538 58.3066 11.4538C57.9528 11.4538 57.7391 11.2275 57.7391 10.7907V9.54515C57.7391 9.38081 57.6114 9.25049 57.45 9.25049C57.2878 9.25049 57.1609 9.38081 57.1609 9.54515V10.806C57.1609 11.5952 57.5926 11.9965 58.2985 11.9965C59.0052 11.9965 59.4515 11.5983 59.4515 10.7865V9.54515C59.4515 9.38081 59.3241 9.25049 59.1628 9.25049Z" fill="black"/>
<path d="M61.8261 9.27417H60.1359C59.9895 9.27417 59.8694 9.39647 59.8694 9.54552C59.8694 9.69534 59.9895 9.81764 60.1359 9.81764H60.6915V11.6835C60.6915 11.8478 60.8196 11.9781 60.981 11.9781C61.1424 11.9781 61.2701 11.8478 61.2701 11.6835V9.81764H61.8261C61.9726 9.81764 62.0934 9.69534 62.0934 9.54552C62.0934 9.39647 61.973 9.27417 61.8261 9.27417Z" fill="black"/>
<path d="M62.8675 9.25085C62.7053 9.25085 62.5784 9.38118 62.5784 9.54552V11.6835C62.5784 11.8478 62.7053 11.9781 62.8675 11.9781C63.0288 11.9781 63.1566 11.8478 63.1566 11.6835V9.54552C63.1569 9.3808 63.0288 9.25085 62.8675 9.25085Z" fill="black"/>
<path d="M65.1362 9.22791C64.3244 9.22791 63.7355 9.85278 63.7355 10.6149V10.6221C63.7355 11.3842 64.3175 12.0011 65.1289 12.0011C65.9396 12.0011 66.5297 11.3773 66.5297 10.6149V10.6068C66.5301 9.84437 65.9473 9.22791 65.1362 9.22791ZM65.9255 10.6221C65.9255 11.0815 65.602 11.4572 65.1366 11.4572C64.6704 11.4572 64.3404 11.0743 64.3404 10.6149V10.6068C64.3404 10.1474 64.6632 9.77214 65.1293 9.77214C65.5947 9.77214 65.9255 10.1551 65.9255 10.6149V10.6221Z" fill="black"/>
<path d="M69.1338 9.25085C68.9759 9.25085 68.8478 9.38118 68.8478 9.54246V10.9256L67.7323 9.43086C67.6539 9.32767 67.571 9.25926 67.4322 9.25926H67.3717C67.2104 9.25926 67.0826 9.38959 67.0826 9.55393V11.6877C67.0826 11.8482 67.2104 11.9785 67.3679 11.9785C67.5258 11.9785 67.6539 11.8482 67.6539 11.6877V10.251L68.8103 11.7989C68.8895 11.9021 68.9717 11.9716 69.1113 11.9716H69.13C69.2914 11.9716 69.4191 11.8413 69.4191 11.6758V9.54208C69.4191 9.3808 69.291 9.25085 69.1338 9.25085Z" fill="black"/>
<path d="M71.1549 10.3504C70.7002 10.2316 70.5878 10.1746 70.5878 9.99766V9.9904C70.5878 9.86007 70.7044 9.75688 70.9258 9.75688C71.1059 9.75688 71.2861 9.82186 71.4776 9.93689C71.5231 9.96365 71.5679 9.97893 71.6241 9.97893C71.7748 9.97893 71.8945 9.86007 71.8945 9.70682C71.8945 9.59216 71.831 9.51152 71.7667 9.4733C71.5304 9.32004 71.2524 9.23596 70.9331 9.23596C70.3962 9.23596 70.013 9.55776 70.013 10.0439V10.0512C70.013 10.5839 70.3545 10.733 70.8841 10.8713C71.3235 10.9864 71.4138 11.0628 71.4138 11.2119V11.2199C71.4138 11.3774 71.2711 11.4725 71.0341 11.4725C70.779 11.4725 70.5614 11.3804 70.3618 11.2314C70.3243 11.2046 70.2723 11.1775 70.1974 11.1775C70.0467 11.1775 69.927 11.2963 69.927 11.4492C69.927 11.5413 69.9717 11.6254 70.0352 11.6716C70.3285 11.8857 70.678 11.9934 71.0237 11.9934C71.5912 11.9934 71.9885 11.6946 71.9885 11.1618V11.1545C71.9885 10.6875 71.6887 10.4918 71.1549 10.3504Z" fill="black"/>
<path d="M51.7955 7.14119V4.99941C51.7955 4.83393 51.6709 4.70284 51.5137 4.70284H51.4514C51.3382 4.70284 51.2571 4.7529 51.199 4.85265L50.5141 6.02368L49.8331 4.85648C49.7814 4.76819 49.6977 4.70245 49.5765 4.70245H49.5141C49.357 4.70245 49.2323 4.83354 49.2323 4.99903V7.14807C49.2323 7.3105 49.3535 7.43701 49.5069 7.43701C49.661 7.43701 49.7856 7.31012 49.7856 7.14807V5.80812L50.2724 6.59772C50.3313 6.69021 50.4044 6.74754 50.5068 6.74754C50.6093 6.74754 50.6831 6.69021 50.7413 6.59772L51.2361 5.79589V7.14081C51.2361 7.30248 51.3596 7.43739 51.5141 7.43739C51.6709 7.43777 51.7955 7.30668 51.7955 7.14119Z" fill="black"/>
<path d="M53.8867 4.91113C53.8244 4.76475 53.7147 4.67609 53.5606 4.67609H53.5277C53.3736 4.67609 53.2608 4.76437 53.1984 4.91113L52.3044 7.03342C52.2864 7.07584 52.2715 7.11865 52.2715 7.16031C52.2715 7.31433 52.3854 7.43816 52.5311 7.43816C52.6485 7.43816 52.7441 7.3686 52.7919 7.25318L52.9713 6.81022H54.099L54.2711 7.23445C54.3227 7.35713 54.4106 7.43854 54.5422 7.43854C54.6921 7.43854 54.8095 7.31165 54.8095 7.15343C54.8095 7.11483 54.7988 7.07622 54.78 7.0338L53.8867 4.91113ZM53.1793 6.28624L53.5349 5.39575L53.8898 6.28624H53.1793Z" fill="black"/>
<path d="M57.3988 7.16415C57.3988 7.07166 57.362 7.01013 57.307 6.93752L56.9154 6.43647C57.2267 6.30194 57.4278 6.04014 57.4278 5.61591V5.60865C57.4278 5.35488 57.3513 5.14276 57.2079 4.99218C57.0401 4.81523 56.7869 4.7193 56.4615 4.7193H55.5713C55.4141 4.7193 55.2894 4.84963 55.2894 5.01588V7.14199C55.2894 7.30747 55.4141 7.43856 55.5713 7.43856C55.7288 7.43856 55.8535 7.30747 55.8535 7.14199V6.55227H56.3032L56.8531 7.28454C56.9185 7.37283 57.003 7.43856 57.1311 7.43856C57.2668 7.4378 57.3988 7.32964 57.3988 7.16415ZM56.8565 5.64649C56.8565 5.87427 56.6993 6.02829 56.4248 6.02829H55.8535V5.2536H56.4137C56.6883 5.2536 56.8561 5.38469 56.8561 5.63961V5.64649H56.8565Z" fill="black"/>
<path d="M60.1154 7.14885C60.1154 7.06018 60.0825 6.99903 60.0385 6.94094L59.2519 5.90063L59.9727 5.19205C60.0351 5.13052 60.0752 5.06096 60.0752 4.96847C60.0752 4.82286 59.9727 4.69482 59.8156 4.69482C59.7161 4.69482 59.6469 4.73725 59.5769 4.81025L58.5368 5.89719V4.9914C58.5368 4.82591 58.4125 4.69482 58.255 4.69482C58.0978 4.69482 57.9731 4.82591 57.9731 4.9914V7.14159C57.9731 7.30708 58.0978 7.43817 58.255 7.43817C58.4125 7.43817 58.5368 7.30708 58.5368 7.14159V6.60194L58.8599 6.28664L59.5919 7.29561C59.6542 7.38007 59.7203 7.43817 59.8305 7.43817C59.9949 7.43778 60.1154 7.31434 60.1154 7.14885Z" fill="black"/>
<path d="M62.3387 6.88666H61.1785V6.32064H62.1563C62.2955 6.32064 62.4087 6.20522 62.4087 6.05846C62.4087 5.91284 62.2955 5.79283 62.1563 5.79283H61.1785V5.24631H62.3211C62.4603 5.24631 62.5735 5.13089 62.5735 4.98413C62.5735 4.83737 62.4603 4.71851 62.3211 4.71851H60.9001C60.7426 4.71851 60.6183 4.84883 60.6183 5.01508V7.11826C60.6183 7.28375 60.7426 7.41484 60.9001 7.41484H62.3391C62.4787 7.41484 62.5922 7.29942 62.5922 7.15266C62.5919 7.00628 62.4783 6.88666 62.3387 6.88666Z" fill="black"/>
<path d="M63.9868 7.43777C64.1444 7.43777 64.269 7.30668 64.269 7.14119V5.26465H64.8113C64.9539 5.26465 65.0713 5.14197 65.0713 4.99101C65.0713 4.84119 64.9539 4.71851 64.8113 4.71851H63.1635C63.0201 4.71851 62.9027 4.84119 62.9027 4.99101C62.9027 5.14159 63.0201 5.26465 63.1635 5.26465H63.705V7.14119C63.705 7.30706 63.8296 7.43777 63.9868 7.43777Z" fill="black"/>
<path d="M65.5432 4.9914V7.14159C65.5432 7.30708 65.6675 7.43817 65.825 7.43817C65.9834 7.43817 66.1076 7.30708 66.1076 7.14159V4.9914C66.1076 4.82591 65.9834 4.69482 65.825 4.69482C65.6675 4.69482 65.5432 4.82591 65.5432 4.9914Z" fill="black"/>
<path d="M71.7178 5.86202H71.0727C70.9374 5.86202 70.8276 5.97744 70.8276 6.12076C70.8276 6.26332 70.9374 6.37454 71.0727 6.37454H71.454V6.7594C71.3113 6.86756 71.1278 6.92145 70.9228 6.92145C70.4689 6.92145 70.1469 6.55951 70.1469 6.06649V6.05847C70.1469 5.60061 70.4724 5.2188 70.8827 5.2188C71.1247 5.2188 71.2892 5.28836 71.4425 5.40378C71.4834 5.43397 71.5343 5.46531 71.6153 5.46531C71.7687 5.46531 71.893 5.33422 71.893 5.17294C71.893 5.05675 71.831 4.97649 71.776 4.93369C71.5458 4.76438 71.2892 4.67151 70.9006 4.67151C70.1248 4.67151 69.5569 5.29983 69.5569 6.06611V6.07337C69.5569 6.871 70.106 7.45995 70.9048 7.45995C71.2892 7.45995 71.5932 7.3258 71.8016 7.19051C71.9377 7.10604 72 6.98642 72 6.81291V6.1586C71.9997 5.99311 71.875 5.86202 71.7178 5.86202Z" fill="black"/>
<path d="M67.3419 7.14541V5.70074L68.4693 7.25701C68.5465 7.36096 68.6268 7.43052 68.7626 7.43052H68.7805C68.9381 7.43052 69.0624 7.29943 69.0624 7.13318V4.98796C69.0624 4.82591 68.9381 4.69482 68.7844 4.69482C68.6302 4.69482 68.5056 4.82591 68.5056 4.98796V6.37874L67.4184 4.87598C67.3415 4.77203 67.2609 4.70323 67.1251 4.70323H67.067C66.9094 4.70323 66.7852 4.83432 66.7852 4.99981V7.14579C66.7852 7.30708 66.9094 7.43817 67.0632 7.43817C67.2173 7.43778 67.3419 7.30669 67.3419 7.14541Z" fill="black"/>
<path d="M38.7919 11.1202C39.7456 11.8012 40.8867 12.2438 42.5387 12.2438C45.1615 12.2438 46.9841 10.6439 46.9841 8.12457V8.09055C46.9841 5.4011 45.1612 4.27785 42.8113 4.27785C42.1471 4.27785 41.7211 4.36269 41.2442 4.48232L41.3804 2.42271H45.3998C46.03 2.42271 46.5581 1.91211 46.5581 1.28226C46.5581 0.652419 46.03 0.125 45.3998 0.125H40.2225C39.5919 0.125 39.0982 0.618404 39.0642 1.24863L38.8255 5.28262C38.7915 5.72519 38.9448 6.08254 39.3024 6.33822C39.8305 6.71277 40.12 6.86602 40.4947 6.86602C40.8523 6.86602 41.2951 6.55951 42.3 6.55951C43.5432 6.55951 44.412 7.15534 44.412 8.17654V8.21056C44.412 9.26578 43.5941 9.86161 42.4874 9.86161C41.653 9.86161 40.9548 9.62351 40.2225 9.0957C40.0179 8.94245 39.8133 8.85722 39.507 8.85722C38.8255 8.85722 38.2638 9.43585 38.2638 10.1169C38.2642 10.5583 38.4852 10.8985 38.7919 11.1202Z" fill="#00AFF0"/>
<path d="M35.0624 12.2434C35.8042 12.2434 36.3912 11.6629 36.3912 10.9283V1.3958C36.3912 0.660849 35.8042 0.0806885 35.0624 0.0806885C34.3205 0.0806885 33.7335 0.661231 33.7335 1.3958V10.9279C33.7335 11.6629 34.3205 12.2434 35.0624 12.2434Z" fill="#00AFF0"/>
<path d="M35.3036 14.7245H25.7662C25.0312 14.7245 24.4503 15.3108 24.4503 16.0526C24.4503 16.7941 25.0312 17.3808 25.7662 17.3808H35.3036C36.039 17.3808 36.6195 16.7941 36.6195 16.0526C36.6195 15.3112 36.039 14.7245 35.3036 14.7245Z" fill="#00AFF0"/>
<path d="M39.026 14.7658C38.9021 14.7658 38.7977 14.8335 38.7155 14.9653L38.2876 15.6341L37.8681 14.973C37.8138 14.8854 37.7224 14.7692 37.5514 14.7692C37.3664 14.7692 37.2157 14.9252 37.2157 15.1167C37.2157 15.2015 37.2409 15.2818 37.2906 15.3555L37.9488 16.3339V16.9531C37.9488 17.1533 38.096 17.3104 38.2841 17.3104C38.4727 17.3104 38.6199 17.1533 38.6199 16.9531V16.324L39.2791 15.3509C39.33 15.2726 39.3556 15.1935 39.3556 15.1167C39.3556 14.9133 39.2168 14.7658 39.026 14.7658Z" fill="#00AFF0"/>
<path d="M41.065 16.6397H40.2114V16.3649H40.9135C41.0879 16.3649 41.2298 16.2151 41.2298 16.0313C41.2298 15.8455 41.0879 15.6946 40.9135 15.6946H40.2114V15.4362H41.0501C41.2244 15.4362 41.3663 15.2868 41.3663 15.1029C41.3663 14.9172 41.2244 14.7662 41.0501 14.7662H39.8738C39.683 14.7662 39.5334 14.9256 39.5334 15.1293V16.9466C39.5334 17.1507 39.683 17.3105 39.8738 17.3105H41.065C41.2393 17.3105 41.3812 17.1606 41.3812 16.9768C41.3812 16.7907 41.2393 16.6397 41.065 16.6397Z" fill="#00AFF0"/>
<path d="M45.0748 14.7776H44.3498C44.1616 14.7776 44.0144 14.9343 44.0144 15.1346V16.9412C44.0144 17.1415 44.1616 17.2986 44.3498 17.2986C44.5379 17.2986 44.6847 17.1415 44.6847 16.9412V16.546H44.8924L45.3084 17.1235C45.3926 17.2412 45.4947 17.2986 45.6209 17.2986C45.7991 17.2986 45.9444 17.1472 45.9444 16.9607C45.9444 16.8468 45.8977 16.7727 45.8488 16.7046L45.6025 16.3767C45.8427 16.2238 45.9685 15.9735 45.9685 15.6452V15.6387C45.9685 15.3979 45.897 15.1923 45.7616 15.0444C45.6029 14.8701 45.3654 14.7776 45.0748 14.7776ZM45.2916 15.6716C45.2916 15.8126 45.2041 15.8902 45.045 15.8902H44.6847V15.443H45.0358C45.2916 15.443 45.2916 15.6101 45.2916 15.6651V15.6716Z" fill="#00AFF0"/>
<path d="M47.1895 15.711C46.8163 15.6063 46.8163 15.5726 46.8163 15.5115V15.505C46.8163 15.4178 46.9413 15.411 46.9795 15.411C47.0931 15.411 47.2178 15.4557 47.3608 15.5482C47.417 15.5841 47.4721 15.6009 47.534 15.6009C47.7134 15.6009 47.8541 15.4526 47.8541 15.2631C47.8541 15.1438 47.799 15.0368 47.7065 14.976C47.4954 14.8297 47.2526 14.7551 46.9857 14.7551C46.4935 14.7551 46.1501 15.0823 46.1501 15.5508V15.5573C46.1501 16.0989 46.5138 16.2457 46.9187 16.3592C47.2618 16.4559 47.2618 16.5033 47.2618 16.5491V16.5556C47.2618 16.6519 47.1394 16.6664 47.0663 16.6664C46.9046 16.6664 46.7516 16.6064 46.5991 16.4834L46.5971 16.4818C46.5386 16.4368 46.4729 16.4142 46.4017 16.4142C46.2224 16.4142 46.0817 16.5625 46.0817 16.7521C46.0817 16.8598 46.1302 16.9642 46.2086 17.0249C46.4518 17.2168 46.7532 17.3223 47.0576 17.3223C47.5868 17.3223 47.929 17.002 47.929 16.5067V16.4998C47.9283 15.9923 47.5734 15.8207 47.1895 15.711Z" fill="#00AFF0"/>
<path d="M43.0825 15.0242C43.0125 14.8534 42.8832 14.7593 42.7184 14.7593H42.6913C42.5268 14.7593 42.393 14.856 42.3238 15.0246L41.593 16.8274C41.5769 16.8663 41.5586 16.9183 41.5586 16.9753C41.5586 17.1664 41.6982 17.3162 41.8768 17.3162C42.0156 17.3162 42.1318 17.2325 42.1876 17.0918L42.3081 16.7826H43.0867L43.2014 17.0765C43.2633 17.2309 43.3769 17.3162 43.5211 17.3162C43.7027 17.3162 43.8454 17.1637 43.8454 16.9688C43.8454 16.9252 43.835 16.8801 43.8136 16.8274L43.0825 15.0242ZM42.5605 16.1276L42.6974 15.771L42.8347 16.1276H42.5605Z" fill="#00AFF0"/>
</svg>
