<svg width="96" height="28" viewBox="0 0 96 28" fill="none" xmlns="http://www.w3.org/2000/svg">
<g clip-path="url(#clip0_316_7874)">
<path d="M15.4406 0.0936923C15.2531 0.131192 15.0656 0.187442 15.0281 0.215567C14.8687 0.384317 14.5219 2.02494 14.4656 2.87807L14.4094 3.82494L14.8312 3.89057C15.4687 3.98432 18.2531 3.90932 18.375 3.78744C18.5812 3.58119 18.9562 1.83744 18.9656 0.984317L18.9844 0.149942L18.6094 0.0749423C18.1312 -0.00943266 15.9094 -5.76628e-05 15.4406 0.0936923Z" fill="black"/>
<path d="M38.4188 0.140603C36.1969 0.599978 34.7156 2.2781 34.0594 5.08123L33.7969 6.18748H32.6531H31.5094L31.3594 6.67498C31.1906 7.24685 31.0313 8.23123 31.0313 8.73748V9.09373H32.1656C33.3 9.09373 33.3 9.09373 33.2531 9.29998C33.225 9.42185 33.0938 10.1437 32.9531 10.9219C32.6906 12.4594 32.0531 15.9937 31.5375 18.8156C31.1906 20.7469 30.9563 21.6281 30.6 22.3406C30.2813 22.9687 29.7188 23.5031 29.2406 23.625C28.7531 23.7562 27.9094 23.7562 27.4688 23.625C27.2906 23.5781 27.1125 23.5312 27.0844 23.5312C26.9063 23.5312 26.3156 25.2281 26.1938 26.0812L26.1375 26.5219L26.4938 26.6156C27.6281 26.9156 28.8563 26.9719 30.0281 26.7656C32.2875 26.3719 33.6938 25.0125 34.6031 22.3312C34.9313 21.375 35.0344 20.8312 36.1406 14.5781C36.6281 11.7937 37.0594 9.42185 37.0781 9.29998L37.125 9.09373H39.2812C41.0437 9.09373 41.4375 9.12185 41.4375 9.22498C41.4375 9.2906 41.3906 9.58123 41.3437 9.8531C41.2875 10.1344 40.8656 12.4687 40.4062 15.0562C39.4687 20.2781 39.3469 20.9344 39.1219 21.6094C38.8031 22.6219 38.2688 23.3625 37.7063 23.5969C37.3406 23.7469 36.1969 23.7656 35.7375 23.6344L35.4188 23.5406L35.1563 24.1219C34.8844 24.6937 34.6594 25.4812 34.5656 26.1656C34.5188 26.4937 34.5281 26.5125 34.8563 26.6062C35.9344 26.925 37.6031 26.9719 38.7 26.7094C40.2187 26.3344 41.3719 25.3781 42.1781 23.8125C42.9187 22.3781 43.0312 21.8625 44.5781 13.1719C44.8125 11.8312 45.075 10.3687 45.1594 9.90935L45.3187 9.09373H46.8H48.2719L48.4781 8.45623C48.5812 8.10935 48.6937 7.46248 48.7219 7.0031L48.7781 6.18748H47.2969H45.825L45.8906 5.83123C46.0031 5.21248 46.3219 4.3781 46.575 4.02185C46.9875 3.4406 47.4469 3.23435 48.3281 3.23435C48.7406 3.23435 49.2562 3.27185 49.4719 3.30935L49.8656 3.39373L50.1469 2.83123C50.4656 2.19373 50.9437 0.618728 50.8781 0.421853C50.8031 0.243728 49.9781 0.0843533 48.75 0.0281033C45.075 -0.150022 42.9094 1.68748 42.0937 5.64373L41.9906 6.18748H39.825H37.6688L37.7344 5.7656C37.8188 5.1656 38.1188 4.33123 38.4 3.90935C38.8875 3.16873 39.9937 2.9906 41.325 3.41248C41.5125 3.4781 41.5594 3.42185 41.8219 2.85935C42.15 2.1281 42.5906 0.553103 42.4875 0.449978C42.15 0.112478 39.5156 -0.0937717 38.4188 0.140603Z" fill="black"/>
<path d="M0 13.1719V26.25H8.33438H16.6594L16.725 25.9031C16.8 25.4344 16.8 24.0469 16.725 23.4937L16.6594 23.0625H10.2563H3.84375V13.1719V3.28125H6.5625C9.06563 3.28125 9.29063 3.27187 9.35625 3.1125C9.44063 2.90625 9.44063 0.468748 9.35625 0.253124C9.29063 0.103125 8.98125 0.0937481 4.64062 0.0937481H0V13.1719Z" fill="#028DD1"/>
<path d="M54.3 0.253124C54.2156 0.478125 54.2156 2.7 54.3094 3.01875L54.375 3.28125H55.7344H57.0938V13.1719V23.0625H53.2125H49.3406L49.275 23.4187C49.2469 23.6062 49.2188 24.1687 49.2188 24.6562C49.2188 25.1437 49.2469 25.7062 49.275 25.9031L49.3406 26.25H55.1813H61.0312V13.1719V0.0937481H57.7031C54.6188 0.0937481 54.3656 0.103125 54.3 0.253124Z" fill="#028DD1"/>
<path d="M64.3125 2.0625V3.9375H64.6875H65.0625V2.0625V0.1875H64.6875H64.3125V2.0625Z" fill="black"/>
<path d="M65.8125 0.5625C65.8125 0.91875 65.8313 0.9375 66.0938 0.9375H66.375V2.4375V3.9375H66.75H67.125V2.4375V0.9375H67.4063C67.6688 0.9375 67.6875 0.91875 67.6875 0.5625V0.1875H66.75H65.8125V0.5625Z" fill="black"/>
<path d="M68.5781 0.3C68.5594 0.365625 68.4375 1.20937 68.3156 2.175L68.0906 3.9375H68.5031C68.9062 3.9375 68.9062 3.9375 68.9062 3.60938C68.9062 3.34687 68.9437 3.28125 69.0937 3.28125C69.2156 3.28125 69.2812 3.34687 69.2812 3.45937C69.2812 3.83437 69.3844 3.9375 69.7594 3.9375C69.9562 3.9375 70.125 3.90937 70.125 3.8625C70.125 3.825 70.0219 3.0375 69.8906 2.10937C69.7594 1.18125 69.6562 0.365625 69.6562 0.3C69.6562 0.225 69.4875 0.1875 69.1406 0.1875C68.8031 0.1875 68.6062 0.234375 68.5781 0.3ZM69.1875 2.01562C69.1875 2.29687 69.15 2.53125 69.0937 2.53125C68.9906 2.53125 68.9719 2.22187 69.0562 1.79062C69.1406 1.35938 69.1875 1.43437 69.1875 2.01562Z" fill="black"/>
<path d="M70.875 2.0625V3.9375H71.7188H72.5625V3.5625V3.1875H72.1406H71.7188V1.6875V0.1875H71.2969H70.875V2.0625Z" fill="black"/>
<path d="M73.3125 2.0625V3.9375H73.6875H74.0625V2.0625V0.1875H73.6875H73.3125V2.0625Z" fill="black"/>
<path d="M75.2813 0.3C75.2813 0.4875 74.9063 3.38437 74.85 3.675C74.8031 3.92812 74.8125 3.9375 75.225 3.9375C75.6563 3.9375 75.6563 3.9375 75.6563 3.60938C75.6563 3.34687 75.6938 3.28125 75.8438 3.28125C75.9938 3.28125 76.0313 3.34687 76.0313 3.60938C76.0313 3.9375 76.0313 3.9375 76.4625 3.9375C76.875 3.9375 76.8844 3.92812 76.8375 3.675C76.7813 3.38437 76.4063 0.4875 76.4063 0.3C76.4063 0.225 76.2281 0.1875 75.8438 0.1875C75.4594 0.1875 75.2813 0.225 75.2813 0.3ZM75.9375 2.10937C75.9375 2.34375 75.9 2.53125 75.8438 2.53125C75.7969 2.53125 75.75 2.34375 75.75 2.10937C75.75 1.875 75.7969 1.6875 75.8438 1.6875C75.9 1.6875 75.9375 1.875 75.9375 2.10937Z" fill="black"/>
<path d="M77.625 2.06252V3.93752H78H78.3656L78.3938 3.21565L78.4219 2.50315L78.7125 3.1969C78.9844 3.8719 79.0031 3.89065 79.3406 3.91877L79.6875 3.9469V2.0719V0.187524H79.2656H78.8438L78.8344 1.00315V1.82815L78.5344 1.00315C78.2438 0.206274 78.2344 0.187524 77.9344 0.187524H77.625V2.06252Z" fill="black"/>
<path d="M64.5844 4.8093C64.275 5.04368 64.2188 5.32493 64.2188 6.70305C64.2188 8.0343 64.2281 8.08118 64.4531 8.2968C64.7812 8.6343 65.5312 8.6343 65.8688 8.2968C66.075 8.09055 66.1031 7.9968 66.075 7.52805L66.0469 6.9843L65.7 6.92805L65.3531 6.8718L65.325 7.34993C65.3063 7.6968 65.2594 7.82805 65.1563 7.82805C65.0344 7.82805 65.0156 7.63118 65.0156 6.65618C65.0156 5.61555 65.0344 5.4843 65.1844 5.45618C65.3156 5.42805 65.3438 5.49368 65.3438 5.77493C65.3438 6.11243 65.3531 6.11243 65.6344 6.05618C65.7938 6.02805 65.9625 5.99993 66.0094 5.99993C66.1313 5.99993 66.1125 5.36243 65.9813 5.12805C65.925 5.01555 65.8125 4.87493 65.7281 4.8093C65.5312 4.6593 64.7812 4.6593 64.5844 4.8093Z" fill="black"/>
<path d="M67.0781 4.92187C66.8531 5.1375 66.8438 5.18437 66.8438 6.59062C66.8438 7.9125 66.8625 8.0625 67.0406 8.2875C67.2 8.49375 67.3031 8.53125 67.6875 8.53125C68.625 8.53125 68.7188 8.35312 68.7188 6.5625V5.23125L68.4469 4.95937C68.0719 4.59375 67.425 4.575 67.0781 4.92187ZM67.875 6.66562C67.875 7.60312 67.8469 7.88437 67.7625 7.85625C67.6781 7.82812 67.6313 7.47187 67.6125 6.62812C67.5938 5.60625 67.6125 5.4375 67.7344 5.4375C67.8563 5.4375 67.875 5.625 67.875 6.66562Z" fill="black"/>
<path d="M69.5625 6.60002V8.53127H69.9375H70.3125V7.75315L70.3219 6.9844L70.6219 7.7344C70.9125 8.43752 70.95 8.4844 71.2313 8.51252L71.5313 8.54065V6.6094V4.67815L71.1844 4.70627L70.8281 4.7344L70.8 5.57815L70.7625 6.4219L70.4719 5.57815C70.1813 4.76252 70.1625 4.7344 69.8719 4.70627L69.5625 4.67815V6.60002Z" fill="black"/>
<path d="M72.375 5.10937C72.375 5.49375 72.3938 5.53125 72.6094 5.53125H72.8438V7.03125V8.53125H73.2656H73.6875V7.03125V5.53125H73.9219C74.1375 5.53125 74.1563 5.49375 74.1563 5.10937V4.6875H73.2656H72.375V5.10937Z" fill="black"/>
<path d="M75 6.60937V8.53125H75.75H76.5V8.15625V7.78125H76.125H75.75V7.35938C75.75 6.9375 75.75 6.9375 76.0781 6.9375C76.3969 6.9375 76.4062 6.92812 76.4062 6.5625C76.4062 6.19687 76.3969 6.1875 76.0781 6.1875C75.7688 6.1875 75.75 6.16875 75.75 5.85938C75.75 5.54062 75.7594 5.53125 76.125 5.53125H76.5V5.10937V4.6875H75.75H75V6.60937Z" fill="black"/>
<path d="M77.4375 6.6V8.53125H77.8125H78.1875L78.1969 7.70625L78.2063 6.89063L78.3938 7.56563C78.4969 7.94063 78.6094 8.25 78.6469 8.25C78.6844 8.25 78.7781 8.00625 78.8625 7.70625L79.0125 7.17188L79.0219 7.84688L79.0313 8.53125H79.4531H79.875V6.6V4.67813L79.5281 4.70625C79.1344 4.73438 79.1906 4.65 78.7875 6.04688L78.6281 6.60938L78.3844 5.67188L78.1406 4.73438L77.7938 4.70625L77.4375 4.67813V6.6Z" fill="black"/>
<path d="M80.8125 6.60937V8.53125H81.1875H81.5625V7.875C81.5625 7.275 81.5813 7.21875 81.75 7.21875C82.3313 7.21875 82.6875 6.73125 82.6875 5.95312C82.6875 5.01562 82.3313 4.6875 81.3281 4.6875H80.8125V6.60937ZM81.8438 5.95312C81.8438 6.34687 81.8156 6.46875 81.7031 6.46875C81.5906 6.46875 81.5625 6.34687 81.5625 5.95312C81.5625 5.55937 81.5906 5.4375 81.7031 5.4375C81.8156 5.4375 81.8438 5.55937 81.8438 5.95312Z" fill="black"/>
<path d="M83.5781 4.92181C83.3531 5.14681 83.3438 5.18431 83.3438 6.63744C83.3438 8.07181 83.3531 8.12806 83.5594 8.32494C83.8594 8.60619 84.6656 8.61556 84.9375 8.34369C85.2094 8.07181 85.2375 7.84681 85.2 6.42181C85.1719 5.14681 85.1719 5.13744 84.9094 4.91244C84.5344 4.59369 83.8969 4.59369 83.5781 4.92181ZM84.375 6.66556C84.375 7.60306 84.3469 7.88431 84.2625 7.85619C84.1781 7.82806 84.1313 7.47181 84.1125 6.62806C84.0938 5.60619 84.1125 5.43744 84.2344 5.43744C84.3563 5.43744 84.375 5.62494 84.375 6.66556Z" fill="black"/>
<path d="M86.0625 6.60937V8.53125H86.4375H86.8125V7.9875L86.8219 7.45312L87.0281 7.96875C87.225 8.46562 87.2438 8.48438 87.6375 8.5125C87.8531 8.53125 88.0313 8.5125 88.0313 8.48438C88.0313 8.44687 87.9094 8.1375 87.75 7.78125C87.4125 7.02187 87.4125 7.02187 87.6563 6.81562C87.8156 6.68437 87.8438 6.54375 87.8438 5.94375C87.8438 5.55937 87.8063 5.15625 87.75 5.0625C87.6281 4.8375 87.1688 4.6875 86.5688 4.6875H86.0625V6.60937ZM87.0938 5.90625C87.0938 6.2625 87.0563 6.375 86.9531 6.375C86.85 6.375 86.8125 6.2625 86.8125 5.90625C86.8125 5.55 86.85 5.4375 86.9531 5.4375C87.0563 5.4375 87.0938 5.55 87.0938 5.90625Z" fill="black"/>
<path d="M89.1187 4.7625C89.0812 4.82812 88.5938 8.2875 88.5938 8.50312C88.5938 8.52187 88.7719 8.53125 88.9969 8.5125C89.3625 8.48438 89.3906 8.46562 89.4187 8.175C89.4375 7.95 89.4937 7.875 89.6344 7.875C89.775 7.875 89.8125 7.94062 89.8125 8.20312C89.8125 8.53125 89.8125 8.53125 90.225 8.53125H90.6375L90.5812 8.12812C90.5531 7.9125 90.4406 7.05937 90.3375 6.23438L90.1406 4.73437L89.6531 4.70625C89.3906 4.6875 89.1469 4.71562 89.1187 4.7625ZM89.7094 6.81562C89.7187 6.98437 89.6812 7.125 89.625 7.125C89.5687 7.125 89.5312 6.89062 89.5406 6.58125C89.55 6.17812 89.5687 6.10312 89.625 6.28125C89.6625 6.4125 89.7 6.65625 89.7094 6.81562Z" fill="black"/>
<path d="M91.4062 6.60937V8.53125H91.7812H92.1562L92.1656 8.03437V7.54687L92.3906 8.03437C92.6062 8.52187 92.625 8.53125 93.0094 8.53125C93.2812 8.53125 93.3844 8.49375 93.3469 8.40937C93.3187 8.35312 93.1875 8.01562 93.0469 7.66875L92.7937 7.04062L92.9906 6.83437C93.15 6.65625 93.1875 6.49687 93.1875 5.925C93.1875 5.55 93.15 5.15625 93.0937 5.0625C92.9719 4.8375 92.5125 4.6875 91.9125 4.6875H91.4062V6.60937ZM92.4375 5.90625C92.4375 6.2625 92.4 6.375 92.2969 6.375C92.1937 6.375 92.1562 6.2625 92.1562 5.90625C92.1562 5.55 92.1937 5.4375 92.2969 5.4375C92.4 5.4375 92.4375 5.55 92.4375 5.90625Z" fill="black"/>
<path d="M93.825 4.73437C93.7969 4.7625 93.9375 5.29687 94.1344 5.925C94.4344 6.84375 94.5 7.19062 94.5 7.79062V8.53125H94.875H95.25V7.875C95.25 7.35938 95.3344 6.95625 95.625 6.05625C95.8313 5.42812 96 4.85625 96 4.8C96 4.73437 95.8406 4.6875 95.5875 4.6875H95.1656L95.0625 5.22187C95.0063 5.52187 94.9406 5.80312 94.9313 5.85938C94.9125 5.90625 94.8469 5.68125 94.7719 5.34375L94.6406 4.73437L94.2656 4.70625C94.05 4.6875 93.8625 4.70625 93.825 4.73437Z" fill="black"/>
<path d="M25.4531 5.89688C24.75 6.00938 23.925 6.26251 23.3906 6.53438C21.1594 7.66876 19.6219 9.64688 18.8813 12.3281C18.6469 13.1813 18.6188 13.4156 18.6188 14.8594C18.6188 16.3406 18.6375 16.5 18.8625 17.1281C19.1813 18.0281 19.5281 18.6 20.0813 19.1531C20.6156 19.6875 21.6188 20.1938 22.5469 20.3906C23.3156 20.55 25.7156 20.5781 26.5969 20.4375C27.2063 20.3344 28.2656 20.025 28.4906 19.8844C28.7531 19.7156 28.3688 17.6344 27.9563 16.9969C27.9 16.9125 27.7031 16.9406 27.1406 17.1281C26.5406 17.325 26.1938 17.3719 25.4063 17.3813C24.5063 17.3906 24.3844 17.3625 23.9438 17.1375C22.9781 16.6313 22.5938 15.8531 22.5938 14.4188C22.5938 12.075 23.5969 10.0969 25.1813 9.31876C25.7063 9.06563 25.8 9.04688 26.9063 9.05626C27.8719 9.05626 28.1719 9.09376 28.6406 9.27188L29.2031 9.47813L29.3625 9.28126C29.6625 8.90626 30.1781 7.22813 30.1875 6.59063C30.1875 6.36563 30.0281 6.30001 28.9688 6.04688C28.2563 5.87813 26.1281 5.78438 25.4531 5.89688Z" fill="black"/>
<path d="M12.1875 6.86243C12.075 7.22805 11.9531 7.8843 11.925 8.31555L11.8781 9.09368H12.7406C13.4063 9.09368 13.5938 9.1218 13.5938 9.22493C13.5938 9.29993 13.2 11.6062 12.7125 14.3531C11.5594 20.9156 11.6438 20.2218 11.9625 20.3156C12.3656 20.4187 15.0094 20.3906 15.2906 20.2781C15.5156 20.1749 15.5438 20.0906 15.9656 17.6531C17.2875 10.0968 17.9063 6.59055 17.9531 6.39368L18 6.18743H15.2063H12.4031L12.1875 6.86243Z" fill="black"/>
<path d="M80.4844 9.4875C80.1469 9.66563 80.0625 9.87188 80.0625 10.4625V11.0531L80.5781 11.4563C81.0469 11.8219 81.0937 11.8875 81.0937 12.2156C81.0937 12.6938 80.8687 12.6375 80.8312 12.15C80.8031 11.8594 80.775 11.8125 80.6156 11.8594C80.5219 11.8875 80.3531 11.9344 80.25 11.9625C79.9687 12.0375 79.9875 12.6563 80.2875 13.0031C80.4844 13.2281 80.5875 13.2656 80.9906 13.2656C81.6469 13.2656 81.8625 13.0406 81.9187 12.3C81.9375 11.9906 81.9187 11.6719 81.8812 11.5969C81.8344 11.5219 81.5719 11.2875 81.3094 11.0719C80.9062 10.7625 80.8125 10.6313 80.8125 10.4063C80.8125 10.2188 80.8594 10.125 80.9531 10.125C81.0469 10.125 81.0937 10.2188 81.0937 10.4063C81.0937 10.7156 81.2531 10.7625 81.7125 10.5938C81.9375 10.5094 81.9562 10.4625 81.9094 10.1438C81.8062 9.50625 81.0656 9.16875 80.4844 9.4875Z" fill="black"/>
<path d="M64.3125 11.3906V13.3125H64.6875H65.0625V12.525V11.7281L65.4188 11.7C65.7563 11.6719 65.7656 11.6625 65.7656 11.2969C65.7656 10.9313 65.7563 10.9219 65.4188 10.8938C65.0813 10.8656 65.0625 10.8469 65.0625 10.5375C65.0625 10.2188 65.0625 10.2188 65.4938 10.2188H65.9156L65.8875 9.8625L65.8594 9.51563L65.0906 9.4875L64.3125 9.45938V11.3906Z" fill="black"/>
<path d="M66.6562 11.3437V13.2188H67.0312H67.4062V11.3437V9.46875H67.0312H66.6562V11.3437Z" fill="black"/>
<path d="M68.3438 11.3437V13.2188H69.1875H70.0313V12.8438V12.4688H69.6094H69.1875V10.9688V9.46875H68.7656H68.3438V11.3437Z" fill="black"/>
<path d="M70.7812 11.3344V13.2188H71.2031H71.625L71.6344 12.4875C71.6344 12.0938 71.6531 11.8031 71.6719 11.8594C71.6906 11.9062 71.775 12.2062 71.8688 12.5156L72.0281 13.0781L72.2438 12.4219L72.45 11.7656L72.4594 12.4875L72.4688 13.2188H72.8906H73.3125V11.3437V9.46875H72.9094H72.5063L72.2719 10.425L72.0375 11.3906L71.8031 10.4531L71.5688 9.51562L71.175 9.4875L70.7812 9.45937V11.3344Z" fill="black"/>
<path d="M75.375 11.3437V13.2188H75.75H76.125V12.4219V11.625H76.5H76.875V11.25V10.875H76.5C76.1344 10.875 76.125 10.8656 76.125 10.5469C76.125 10.2188 76.125 10.2188 76.5469 10.2188H76.9688V9.84375V9.46875H76.1719H75.375V11.3437Z" fill="black"/>
<path d="M77.7188 11.3437V13.2188H78.5156H79.3125V12.8438V12.4688H78.9375H78.5625V12.0469C78.5625 11.625 78.5625 11.625 78.8906 11.625C79.2094 11.625 79.2188 11.6156 79.2188 11.25C79.2188 10.8844 79.2094 10.875 78.8906 10.875C78.5813 10.875 78.5625 10.8562 78.5625 10.5469C78.5625 10.2281 78.5719 10.2188 78.9375 10.2188H79.3125V9.84375V9.46875H78.5156H77.7188V11.3437Z" fill="black"/>
<path d="M82.5 9.84375C82.5 10.2 82.5187 10.2188 82.7812 10.2188H83.0625V11.7188V13.2188H83.4375H83.8125V11.7281V10.2281L84.075 10.2C84.2906 10.1719 84.3281 10.125 84.3562 9.81562L84.3844 9.46875H83.4469H82.5V9.84375Z" fill="black"/>
<path d="M85.125 11.3437V13.2188H85.5H85.875V11.3437V9.46875H85.5H85.125V11.3437Z" fill="black"/>
<path d="M86.5594 9.58125C86.5781 9.64687 86.7563 10.4906 86.9531 11.4562L87.3094 13.2188H87.7031H88.0875L88.4438 11.5031C88.6313 10.5656 88.8188 9.72187 88.8375 9.62812C88.8844 9.49687 88.8188 9.46875 88.425 9.46875H87.9563L87.8344 10.6125C87.7031 11.8781 87.6938 11.8781 87.5156 10.0969L87.45 9.46875H86.9813C86.6438 9.46875 86.5219 9.50625 86.5594 9.58125Z" fill="black"/>
<path d="M89.5406 11.175C89.4188 12.1219 89.3063 12.9656 89.2781 13.05C89.2406 13.1906 89.3063 13.2188 89.6625 13.2188C90.0938 13.2188 90.0938 13.2188 90.0938 12.8906C90.0938 12.6281 90.1313 12.5625 90.2813 12.5625C90.4313 12.5625 90.4688 12.6281 90.4688 12.8906C90.4688 13.2188 90.4688 13.2188 90.9 13.2188H91.3313L91.275 12.8625C91.2094 12.4688 90.8438 9.64687 90.8438 9.53437C90.8438 9.49687 90.6 9.46875 90.3 9.46875H89.7563L89.5406 11.175ZM90.375 11.3437C90.375 11.5969 90.3375 11.8125 90.2813 11.8125C90.1781 11.8125 90.15 11.2594 90.2438 11.025C90.3375 10.7719 90.375 10.8562 90.375 11.3437Z" fill="black"/>
<path d="M92.0625 11.4844V13.4156L92.8875 13.3875L93.7031 13.3594V12.9844V12.6094L93.2625 12.5813L92.8125 12.5531V11.0531V9.56252H92.4375H92.0625V11.4844Z" fill="black"/>
<path d="M69.2719 13.9219C68.9906 14.0719 68.8125 14.4844 68.8125 14.9719C68.8125 15.3 68.9156 15.4406 69.6375 16.0594C69.8719 16.2563 69.9375 16.3875 69.9188 16.5656C69.8719 16.9688 69.6563 16.95 69.6563 16.5469V16.1906L69.3094 16.2469C68.85 16.3219 68.7844 16.4156 68.8594 16.875C68.9813 17.6063 69.8813 17.8781 70.4156 17.3531C70.6406 17.1188 70.6875 16.9969 70.6875 16.6125C70.6875 15.975 70.65 15.9 70.1156 15.5063C69.7219 15.2156 69.6563 15.1313 69.6563 14.8406C69.6563 14.4469 69.8719 14.4563 69.9188 14.85C69.9469 15.0844 69.975 15.1031 70.2469 15.0469C70.4156 15.0094 70.5844 14.9438 70.6313 14.9063C70.7531 14.7844 70.6125 14.2031 70.4156 14.025C70.1625 13.8 69.5719 13.7438 69.2719 13.9219Z" fill="#028DD1"/>
<path d="M64.3125 15.7031V17.5312H64.6875H65.0625V16.7812V16.0312H65.3906C65.7094 16.0312 65.7188 16.0219 65.7188 15.6562C65.7188 15.2906 65.7094 15.2812 65.3906 15.2812C65.0813 15.2812 65.0625 15.2625 65.0625 14.9531C65.0625 14.6344 65.0719 14.625 65.4375 14.625H65.8125V14.25V13.875H65.0625H64.3125V15.7031Z" fill="#028DD1"/>
<path d="M66.6562 15.7031V17.5312H67.4062H68.1562V17.1562V16.7812H67.7812H67.4062V16.4062C67.4062 16.0406 67.4156 16.0312 67.7344 16.0312C68.0531 16.0312 68.0625 16.0219 68.0625 15.6562C68.0625 15.2906 68.0531 15.2812 67.7344 15.2812C67.425 15.2812 67.4062 15.2625 67.4062 14.9531C67.4062 14.6344 67.4156 14.625 67.7812 14.625H68.1562V14.25V13.875H67.4062H66.6562V15.7031Z" fill="#028DD1"/>
<path d="M71.25 14.25C71.25 14.5875 71.2781 14.625 71.4844 14.625H71.7188V16.0781V17.5312H72.1219H72.5156L72.4875 16.0781L72.4594 14.625H72.75C73.0125 14.625 73.0313 14.6062 73.0313 14.25V13.875H72.1406H71.25V14.25Z" fill="#028DD1"/>
<path d="M73.7812 15.7031V17.5312H74.1562H74.5312V15.7031V13.875H74.1562H73.7812V15.7031Z" fill="#028DD1"/>
<path d="M75.2344 14.0813C75.3187 14.4563 75.9375 17.4375 75.9375 17.4844C75.9375 17.5125 76.1062 17.5312 76.3125 17.5312C76.6219 17.5312 76.6969 17.4938 76.7344 17.3156C76.8187 16.95 77.4375 13.9688 77.4375 13.9219C77.4375 13.8938 77.25 13.875 77.025 13.875C76.5469 13.875 76.5562 13.8656 76.4531 15.0188C76.4156 15.4219 76.35 15.7313 76.3125 15.7031C76.275 15.675 76.2094 15.2531 76.1719 14.7656L76.1062 13.875H75.6469C75.2156 13.875 75.1875 13.8938 75.2344 14.0813Z" fill="#028DD1"/>
<path d="M78.1969 14.8312C78.1406 15.3656 78.0281 16.1906 77.9625 16.6593L77.8406 17.5312H78.2531C78.6562 17.5312 78.6562 17.5312 78.6562 17.2031C78.6562 16.9406 78.6937 16.875 78.8437 16.875C78.9937 16.875 79.0312 16.9406 79.0312 17.2031C79.0312 17.5218 79.0406 17.5312 79.4062 17.5312C79.8656 17.5312 79.8562 17.6343 79.5656 15.4687L79.3594 13.9218L78.8344 13.8937L78.3187 13.8656L78.1969 14.8312ZM78.9375 15.7593C78.9375 15.9562 78.9 16.125 78.8437 16.125C78.7969 16.125 78.75 15.9281 78.75 15.6937C78.75 15.4406 78.7875 15.2906 78.8437 15.3281C78.9 15.3562 78.9375 15.5531 78.9375 15.7593Z" fill="#028DD1"/>
<path d="M80.625 15.7031V17.5312H81.4313H82.2281L82.2 17.175C82.1719 16.8375 82.1625 16.8281 81.7781 16.8L81.375 16.7719V15.3187V13.875H81H80.625V15.7031Z" fill="#028DD1"/>
<path d="M70.3125 20.0156V21.8438H70.7344H71.1563V21.0938V20.3438H71.4844C71.8031 20.3438 71.8125 20.3344 71.8125 19.9687C71.8125 19.6031 71.8031 19.5938 71.4844 19.5938C71.175 19.5938 71.1563 19.575 71.1563 19.2656C71.1563 18.9469 71.1656 18.9375 71.5312 18.9375H71.9063V18.5625V18.1875H71.1094H70.3125V20.0156Z" fill="#028DD1"/>
<path d="M72.6562 20.0156V21.8438H73.0312H73.4062V20.0156V18.1875H73.0312H72.6562V20.0156Z" fill="#028DD1"/>
<path d="M74.3438 20.0156V21.8438H75.1406H75.9375V21.4688V21.0938H75.5156H75.0938V19.6406V18.1875H74.7188H74.3438V20.0156Z" fill="#028DD1"/>
<path d="M76.6875 20.0156V21.8438H77.1094H77.5313L77.5406 21.2063L77.55 20.5781L77.7 21.0656C77.7938 21.3281 77.8875 21.5813 77.9156 21.6094C77.9531 21.6375 78.0375 21.4219 78.1219 21.1219L78.2625 20.5781L78.2719 21.2063L78.2813 21.8438H78.7031H79.125V20.0156V18.1875H78.7594H78.4031L78.1781 19.0313C78.0656 19.4906 77.9344 19.875 77.9062 19.875C77.8688 19.875 77.7938 19.65 77.7281 19.3781C77.4656 18.1781 77.4656 18.1875 77.0625 18.1875H76.6875V20.0156Z" fill="#028DD1"/>
<path d="M81.1875 20.0156V21.8438H81.5625H81.9375V20.0156V18.1875H81.5625H81.1875V20.0156Z" fill="#028DD1"/>
<path d="M82.6875 18.5625C82.6875 18.9187 82.7063 18.9375 82.9688 18.9375H83.25V20.3906V21.8438H83.625H84V20.3906V18.9375H84.2344C84.45 18.9375 84.4688 18.9 84.4688 18.5625V18.1875H83.5781H82.6875V18.5625Z" fill="#028DD1"/>
<path d="M85.3688 18.3937C85.2938 18.7312 84.9375 21.4594 84.9375 21.6562C84.9375 21.8156 85.0031 21.8438 85.3125 21.8438C85.6781 21.8438 85.6875 21.8344 85.6875 21.5156C85.6875 21.2531 85.725 21.1875 85.8656 21.1875C86.0063 21.1875 86.0625 21.2625 86.0813 21.4875C86.1094 21.7781 86.1375 21.7969 86.5125 21.825C86.8688 21.8531 86.9156 21.8344 86.8781 21.6844C86.85 21.5906 86.7281 20.7656 86.6156 19.8469L86.4094 18.1875H85.9125C85.4625 18.1875 85.4063 18.2156 85.3688 18.3937ZM85.9688 20.0156C85.9688 20.25 85.9313 20.4375 85.875 20.4375C85.7719 20.4375 85.7531 20.1281 85.8375 19.8C85.9313 19.4812 85.9688 19.5469 85.9688 20.0156Z" fill="#028DD1"/>
<path d="M87.6562 20.0156V21.8438H88.4531H89.25V21.4688V21.0938H88.8281H88.4062V19.6406V18.1875H88.0312H87.6562V20.0156Z" fill="#028DD1"/>
<path d="M90 20.0156V21.8438H90.375H90.75V20.0156V18.1875H90.375H90V20.0156Z" fill="#028DD1"/>
<path d="M91.5938 20.0156V21.8438H92.4H93.1969L93.1688 21.4875C93.1406 21.15 93.1313 21.1406 92.7469 21.1125C92.3438 21.0844 92.3438 21.0844 92.3438 20.7094C92.3438 20.3438 92.3438 20.3438 92.7188 20.3438H93.0938V19.9687V19.5938H92.7188C92.3531 19.5938 92.3438 19.5844 92.3438 19.2656C92.3438 18.9375 92.3438 18.9375 92.7656 18.9375H93.1875V18.5625V18.1875H92.3906H91.5938V20.0156Z" fill="#028DD1"/>
<path d="M94.0312 20.0062V21.8438H94.3594H94.6781L94.7063 21.0656L94.7344 20.2969L95.0531 21.0656C95.3531 21.825 95.3719 21.8438 95.6813 21.8438H96V20.0156V18.1875H95.625H95.25L95.2406 19.05V19.9219L94.9313 19.0781C94.6406 18.2812 94.6031 18.2344 94.3219 18.2062L94.0312 18.1781V20.0062Z" fill="#028DD1"/>
<path d="M64.2563 18.4031C64.2375 18.4687 64.2281 19.2844 64.2375 20.2031L64.2656 21.8906L64.95 21.9187C65.5781 21.9469 65.6438 21.9281 65.8594 21.6937C66.0844 21.45 66.0938 21.3937 66.0938 20.1844C66.0938 18.8812 66 18.4687 65.6719 18.3375C65.3719 18.225 64.3125 18.2719 64.2563 18.4031ZM65.2969 20.1094C65.2969 20.9156 65.2688 21.225 65.1844 21.2531C65.0906 21.2906 65.0625 21.0187 65.0625 20.1094C65.0625 19.2 65.0906 18.9281 65.1844 18.9562C65.2688 18.9937 65.2969 19.3031 65.2969 20.1094Z" fill="#028DD1"/>
<path d="M66.8438 19.8656C66.8438 21.3093 66.8625 21.4593 67.0312 21.6843C67.3688 22.1062 68.0625 22.125 68.4375 21.7218C68.6063 21.5437 68.625 21.3843 68.625 19.9031V18.2812H68.25H67.875V19.7812C67.875 21.0562 67.8563 21.2812 67.7344 21.2812C67.6125 21.2812 67.5938 21.0562 67.5938 19.7812V18.2812H67.2188H66.8438V19.8656Z" fill="#028DD1"/>
<path d="M64.725 22.6125C64.3875 22.7719 64.3125 23.1 64.3125 24.4781C64.3125 25.7438 64.3219 25.8 64.5469 26.0156C64.725 26.2031 64.8656 26.25 65.2313 26.25C65.8688 26.25 66.0938 26.0063 66.0938 25.2938C66.0938 24.7406 66.0281 24.6563 65.5688 24.6563C65.3625 24.6563 65.3438 24.6938 65.3438 25.1344C65.3438 25.4719 65.3063 25.5938 65.2313 25.5656C65.0813 25.5188 65.0531 23.25 65.2031 23.25C65.2594 23.25 65.3063 23.4 65.325 23.5875C65.3531 23.8875 65.3813 23.9156 65.5594 23.8688C65.6719 23.8406 65.8406 23.8125 65.9344 23.8125C66.2063 23.8125 66.1594 23.025 65.8594 22.7344C65.6156 22.4813 65.1 22.425 64.725 22.6125Z" fill="#028DD1"/>
<path d="M67.1156 22.7718L66.8438 23.0437V24.4218C66.8438 25.753 66.8531 25.7999 67.0781 26.0155C67.3969 26.3437 68.1281 26.3437 68.4188 26.0343C68.6156 25.828 68.625 25.7249 68.625 24.3843C68.625 22.9968 68.6156 22.9499 68.3906 22.7343C68.0531 22.3874 67.4813 22.4062 67.1156 22.7718ZM67.875 24.4312C67.875 25.3312 67.8469 25.603 67.7625 25.5749C67.6781 25.5468 67.6313 25.2187 67.6125 24.4687C67.5844 23.3624 67.6219 23.0999 67.7813 23.203C67.8375 23.2405 67.875 23.7468 67.875 24.4312Z" fill="#028DD1"/>
<path d="M83.2031 22.7344C82.9781 22.95 82.9688 22.9969 82.9688 24.4031C82.9688 25.7906 82.9781 25.8469 83.1844 26.0437C83.3531 26.2031 83.5219 26.25 83.8781 26.25C84.2906 26.25 84.3938 26.2125 84.5531 26.0062C84.7313 25.7812 84.75 25.6312 84.75 24.4125C84.75 23.6812 84.7219 23.0062 84.6938 22.9219C84.525 22.4812 83.5688 22.3594 83.2031 22.7344ZM84 24.4312C84 25.4062 83.9813 25.5938 83.8594 25.5938C83.7375 25.5938 83.7188 25.4062 83.7188 24.4406C83.7188 23.8031 83.7469 23.25 83.775 23.2219C83.9438 23.0531 84 23.3625 84 24.4312Z" fill="#028DD1"/>
<path d="M69.4688 24.4125V26.25H69.8438H70.2094L70.2375 25.4719L70.2656 24.7031L70.5563 25.4531C70.8281 26.1469 70.8656 26.2031 71.1469 26.2313L71.4375 26.2594V24.4313V22.5938H71.0625H70.6875L70.6781 23.3625L70.6688 24.1406L70.4156 23.3906C70.1625 22.65 70.1531 22.6406 69.8156 22.6125L69.4688 22.5844V24.4125Z" fill="#028DD1"/>
<path d="M72.225 22.7344C72.1875 22.8094 72.1969 22.9781 72.225 23.1094C72.2719 23.2781 72.3469 23.3438 72.5156 23.3438H72.75V24.7969V26.25H73.125H73.5V24.8062V23.3531L73.7625 23.325C73.9781 23.2969 74.0156 23.25 74.0437 22.9406L74.0719 22.5937H73.1719C72.4594 22.5937 72.2625 22.6219 72.225 22.7344Z" fill="#028DD1"/>
<path d="M74.8125 24.4219V26.25H75.5625H76.3125V25.875V25.5H75.9375H75.5625V25.125C75.5625 24.7594 75.5719 24.75 75.9 24.75H76.2281L76.2 24.3469C76.1719 23.9812 76.1531 23.9531 75.8719 23.925C75.6 23.8969 75.5625 23.8594 75.5625 23.6156C75.5625 23.3625 75.5813 23.3438 75.9375 23.3438H76.3125V22.9687V22.5937H75.5625H74.8125V24.4219Z" fill="#028DD1"/>
<path d="M77.1562 24.4313V26.2594L77.5594 26.2313L77.9531 26.2031L78 25.5938L78.0469 24.9844L78.1688 25.4719C78.2438 25.7438 78.3375 25.9688 78.375 25.9688C78.4125 25.9688 78.5156 25.725 78.5906 25.425L78.7313 24.8906L78.7406 25.5656L78.75 26.25H79.1719H79.5938V24.4219V22.5938H79.2188C78.8156 22.5938 78.8156 22.5844 78.5531 23.7844C78.4875 24.0563 78.4125 24.2813 78.375 24.2813C78.3375 24.2813 78.2625 24.0563 78.1969 23.7844C77.9344 22.5844 77.9344 22.5938 77.5312 22.5938H77.1562V24.4313Z" fill="#028DD1"/>
<path d="M80.4375 24.4219V26.25H80.8125H81.1875V25.5938V24.9375H81.4594C81.6187 24.9375 81.8531 24.8438 81.9937 24.7219C82.2 24.5437 82.2562 24.4031 82.2937 23.9719C82.3406 23.3344 82.275 23.025 82.0312 22.7812C81.8812 22.6312 81.7125 22.5937 81.1406 22.5937H80.4375V24.4219ZM81.5437 23.5687C81.5906 23.9531 81.4875 24.2812 81.3281 24.2812C81.225 24.2812 81.1875 24.1594 81.1875 23.7562C81.1875 23.3156 81.2156 23.2406 81.3562 23.2687C81.45 23.2875 81.525 23.4 81.5437 23.5687Z" fill="#028DD1"/>
<path d="M85.5938 24.4219V26.25H85.9687H86.3437L86.3531 25.7531V25.2656L86.5594 25.7531C86.7562 26.2312 86.7844 26.25 87.1219 26.25C87.5437 26.25 87.5437 26.2031 87.2062 25.4156L86.9531 24.8062L87.1594 24.5906C87.4594 24.3 87.4687 23.2125 87.1781 22.8375C87 22.6125 86.9344 22.5937 86.2875 22.5937H85.5938V24.4219ZM86.625 23.7188C86.625 24.075 86.5875 24.1875 86.4844 24.1875C86.3812 24.1875 86.3437 24.075 86.3437 23.7188C86.3437 23.3625 86.3812 23.25 86.4844 23.25C86.5875 23.25 86.625 23.3625 86.625 23.7188Z" fill="#028DD1"/>
<path d="M88.3312 24.253C88.2187 25.1718 88.125 25.9968 88.125 26.0812C88.125 26.2124 88.2094 26.2499 88.5 26.2499C88.8656 26.2499 88.875 26.2405 88.875 25.9218C88.875 25.6593 88.9125 25.5937 89.0625 25.5937C89.2125 25.5937 89.25 25.6593 89.25 25.9218C89.25 26.2405 89.2594 26.2499 89.625 26.2499C90.075 26.2499 90.0656 26.4093 89.7937 24.253L89.5969 22.5937H89.0625H88.5375L88.3312 24.253ZM89.1562 24.4687C89.1562 24.6749 89.1187 24.8437 89.0625 24.8437C89.0156 24.8437 88.9687 24.6749 88.9687 24.4687C88.9687 24.2624 89.0156 24.0937 89.0625 24.0937C89.1187 24.0937 89.1562 24.2624 89.1562 24.4687Z" fill="#028DD1"/>
<path d="M90.75 24.4219V26.25H91.125H91.5V24.4219V22.5937H91.125H90.75V24.4219Z" fill="#028DD1"/>
<path d="M92.4375 24.4219V26.25H92.8125H93.1781L93.2063 25.5187L93.2344 24.7969L93.5156 25.5187C93.7875 26.2219 93.8063 26.25 94.0969 26.25H94.4063V24.4219V22.5937H94.0313H93.6562L93.6469 23.4094V24.2344L93.3563 23.4094C93.0656 22.6031 93.0563 22.5937 92.7469 22.5937H92.4375V24.4219Z" fill="#028DD1"/>
</g>
<defs>
<clipPath id="clip0_316_7874">
<rect width="96" height="27.75" fill="white"/>
</clipPath>
</defs>
</svg>
