<svg width="63" height="26" viewBox="0 0 63 26" fill="none" xmlns="http://www.w3.org/2000/svg">
<g clip-path="url(#clip0_306_7)">
<mask id="mask0_306_7" style="mask-type:luminance" maskUnits="userSpaceOnUse" x="0" y="0" width="63" height="26">
<path d="M63 0H0V26H63V0Z" fill="white"/>
</mask>
<g mask="url(#mask0_306_7)">
<path d="M2.58311 8.80453C3.03051 10.3142 5.21007 11.7014 7.02265 13.1352C8.91802 14.6339 9.82582 16.4218 11.3251 15.8432C12.8251 15.2646 13.1653 13.7091 13.7054 11.6516C14.6346 8.11211 15.1832 3.94498 13.3177 3.481C13.0864 3.42329 12.7976 3.39563 12.4635 3.39563C9.21372 3.39563 1.75342 6.00324 2.58311 8.80453Z" fill="url(#paint0_linear_306_7)"/>
<path d="M11.1306 12.6055C10.6879 12.6293 9.91873 12.6988 8.82166 12.815C7.72076 12.9312 6.84738 13.8236 6.72483 14.9578C6.61987 15.9324 6.5172 16.6517 6.41761 17.1149C6.30499 17.639 6.04758 18.5282 5.64461 19.7818C5.32591 20.7753 5.6607 21.8677 6.47507 22.4914C7.56219 23.3237 8.33212 23.8777 8.78486 24.1529C9.19933 24.4042 9.8536 24.7299 10.7484 25.1298C11.6593 25.5369 12.7188 25.3092 13.3976 24.5623C14.4854 23.3632 15.2661 22.5475 15.7395 22.1159C16.0789 21.8061 16.524 21.4306 17.0741 20.9896C17.975 20.2679 18.2431 18.9827 17.71 17.9425C17.1178 16.7861 16.7164 15.9878 16.5057 15.5475C16.3211 15.161 16.0912 14.648 15.8177 14.0109C15.4416 13.1351 14.6012 12.57 13.6719 12.5684H13.4926C12.3764 12.5684 11.5888 12.5803 11.1306 12.6055Z" fill="url(#paint1_linear_306_7)"/>
<path d="M12.9991 7.80292C12.341 8.00839 11.5987 8.13093 11.0348 8.64553C9.23596 10.2872 8.84602 12.4222 9.74699 14.5808C9.96915 15.1119 10.4817 16.2422 10.8739 16.6992C11.9013 17.8974 13.0849 18.1867 14.5205 18.2357C15.8567 18.2824 17.1368 18.0065 18.217 17.0201C18.9678 16.3348 19.2076 15.3206 19.4964 14.403C20.0702 12.581 20.0043 10.665 18.6851 9.12687C17.9512 8.27161 16.9499 7.83611 15.9539 7.56263C15.6184 7.47094 15.2913 7.4314 14.968 7.4314C14.3083 7.4314 13.6641 7.59424 12.9991 7.8021" fill="url(#paint2_linear_306_7)"/>
<path d="M14.4896 18.2479C15.5545 18.285 16.5834 18.1151 17.5027 17.5397C17.0124 16.5801 16.6738 15.9051 16.4876 15.5147C16.3083 15.14 16.0869 14.6459 15.8234 14.0326L15.8066 13.9939C15.4342 13.1275 14.603 12.5687 13.6845 12.5671C12.4863 12.5656 11.6489 12.5782 11.1716 12.6035C10.7924 12.6241 10.1711 12.6786 9.30615 12.7671C9.34601 13.3765 9.49767 13.9994 9.75816 14.6238C9.978 15.151 10.486 16.2711 10.8751 16.7248C11.8933 17.9127 13.0662 18.1989 14.4896 18.2487" fill="#DC0812"/>
<path d="M7.20364 9.63254C5.09149 10.7075 3.56235 11.4521 2.61698 11.8663C2.09603 12.0947 1.58428 12.2962 1.08171 12.4717C0.230568 12.7681 -0.22603 13.7198 0.0612586 14.598C0.0719839 14.6312 0.0842417 14.6635 0.0964989 14.696C0.730831 16.2966 1.20735 17.4411 1.52528 18.1288C1.83326 18.7951 2.29828 19.6939 2.92112 20.8265C3.34401 21.5956 4.27406 21.8936 5.04552 21.5078C6.49806 20.7807 7.53614 20.2748 8.15971 19.9903C8.77797 19.7073 9.82908 19.2583 11.3115 18.6426C12.1205 18.3066 12.5288 17.3732 12.2369 16.525C11.5283 14.4675 11.0127 13.089 10.6894 12.3895C10.3975 11.758 9.89725 10.9889 9.1886 10.0831C8.87141 9.67757 8.40183 9.45862 7.92223 9.45862C7.67859 9.45862 7.43269 9.51472 7.20284 9.63172" fill="url(#paint3_linear_306_7)"/>
<path d="M10.6884 12.3918C10.3966 11.7603 9.89628 10.9912 9.18763 10.0854C8.70963 9.47441 7.88452 9.28708 7.20194 9.63486C6.08952 10.2008 5.14416 10.6727 4.35583 11.0552C5.1702 11.7508 6.13856 12.4377 7.02109 13.1356C8.91647 14.6342 9.82353 16.4222 11.3235 15.8437C11.5357 15.7614 11.7227 15.6579 11.892 15.5385C11.3595 14.0249 10.9566 12.9712 10.6884 12.3911" fill="#008EBA"/>
<path d="M14.4955 7.45947C13.9975 7.51325 13.5034 7.64448 12.9977 7.80254C12.3397 8.00807 11.5973 8.13055 11.0335 8.64514C9.23463 10.2868 8.8447 12.4218 9.7456 14.5796C9.87737 14.8958 10.1126 15.4222 10.3639 15.8941C10.6649 15.9787 10.9783 15.9755 11.3231 15.8428C12.823 15.2641 13.164 13.7086 13.7033 11.6512C14.068 10.2623 14.3713 8.77952 14.4955 7.45947Z" fill="#6D3E7C"/>
<path d="M10.7937 12.6292C10.3364 12.6632 9.68057 12.7256 8.82105 12.8166C7.72014 12.9328 6.84676 13.8252 6.72421 14.9594C6.61847 15.934 6.51659 16.6533 6.41699 17.1165C6.30438 17.6405 6.04696 18.5297 5.64399 19.7833C5.49077 20.2608 5.49231 20.7611 5.62177 21.2211C6.77474 20.6473 7.62206 20.237 8.15908 19.9912C8.77734 19.7083 9.82845 19.2593 11.3109 18.6436C12.1199 18.3076 12.5282 17.3733 12.2363 16.526C11.5997 14.6764 11.1194 13.3802 10.7937 12.6284" fill="#7A8E27"/>
<path d="M11.1703 12.6032C10.7911 12.6237 10.1698 12.6782 9.30481 12.7668C9.32325 13.0474 9.36768 13.3304 9.43353 13.6157C9.44275 13.6544 9.45037 13.6924 9.46039 13.7319C9.47418 13.7872 9.49255 13.8433 9.5086 13.8987C9.57452 14.1256 9.65264 14.3532 9.74767 14.5816C9.87944 14.8978 10.1146 15.4242 10.3659 15.8961C10.667 15.9807 10.9803 15.9775 11.3251 15.8447C12.5929 15.3554 13.0327 14.1666 13.4648 12.5684C12.3853 12.5684 11.6192 12.5803 11.1719 12.6048" fill="#943825"/>
<path d="M11.8923 15.5388C11.8264 15.3507 11.7621 15.1696 11.7 14.9958C11.6993 14.9934 11.6985 14.991 11.6978 14.9887C11.638 14.8219 11.5805 14.663 11.5253 14.5097C11.5177 14.4891 11.51 14.4685 11.5031 14.448C11.4549 14.316 11.4082 14.1895 11.3629 14.067C11.343 14.0133 11.3239 13.9619 11.304 13.9105C11.2718 13.8243 11.2396 13.739 11.2089 13.6584C11.1699 13.5548 11.1316 13.4576 11.0948 13.3635C11.0849 13.3382 11.0749 13.3106 11.0649 13.2861C10.9661 13.0339 10.8757 12.8142 10.7953 12.6284C10.3379 12.6632 9.68209 12.7249 8.82258 12.8158C8.28548 12.8727 7.80443 13.1161 7.43591 13.4805C9.057 14.8914 9.93874 16.3774 11.3247 15.8431C11.5369 15.7617 11.7238 15.6573 11.8931 15.538" fill="#14672E"/>
<path d="M11.0636 13.2859C10.9188 12.9167 10.7931 12.6164 10.6882 12.3903C10.4591 11.8947 10.0967 11.3114 9.61105 10.6466C9.28849 11.4584 9.20885 12.3255 9.35361 13.2139C9.35666 13.2329 9.36051 13.2519 9.36356 13.2708C9.38425 13.391 9.40647 13.5111 9.43558 13.6313C9.51224 13.9601 9.61715 14.2913 9.75582 14.6232C9.97572 15.1497 10.4836 16.2705 10.8728 16.7242C11.2842 17.204 11.7224 17.532 12.1913 17.7612C12.3521 17.3834 12.3797 16.9448 12.2357 16.5266C12.0419 15.9631 11.8641 15.4564 11.6987 14.9955C11.6979 14.9932 11.6971 14.9908 11.6964 14.9885C11.6366 14.8225 11.5792 14.662 11.524 14.5095C11.5163 14.4889 11.5087 14.4683 11.501 14.4478C11.4535 14.3166 11.406 14.1886 11.3608 14.0668C11.3409 14.0131 11.3217 13.9625 11.3018 13.9103C11.2697 13.8249 11.2374 13.738 11.2068 13.6582C11.167 13.5546 11.1302 13.4582 11.0927 13.3633C11.0827 13.338 11.0728 13.3104 11.0628 13.2859" fill="#1B2B4C"/>
<path d="M11.7367 15.6347C11.7888 15.6031 11.8424 15.5731 11.8915 15.5383C11.8287 15.3605 11.7681 15.1897 11.7091 15.0245C11.6877 14.9653 11.6678 14.9099 11.6471 14.8514C11.6103 14.7502 11.5743 14.6491 11.5391 14.5526C11.513 14.4807 11.4878 14.412 11.4624 14.3432C11.4356 14.2705 11.4089 14.1977 11.3836 14.1282C11.3545 14.0499 11.3269 13.9749 11.2985 13.9013C11.2786 13.8476 11.2587 13.7947 11.2387 13.7433C11.2089 13.6642 11.179 13.586 11.1507 13.5117C11.1369 13.4753 11.1231 13.4398 11.1093 13.4042C11.0771 13.3219 11.0457 13.2405 11.0151 13.1639C11.0097 13.1497 11.0043 13.137 10.9982 13.1228C10.9239 12.9378 10.8557 12.7718 10.7929 12.6272C10.7239 12.6327 10.645 12.639 10.5669 12.6453C10.2275 12.6738 9.80845 12.7133 9.30359 12.7655C9.3197 13.0113 9.35876 13.2595 9.41082 13.5085C9.48748 13.8634 9.59544 14.2207 9.74565 14.5788C9.87742 14.8949 10.1126 15.4213 10.3638 15.8932C10.4382 15.9137 10.5133 15.9295 10.5891 15.9391C10.5937 15.9391 10.5983 15.9391 10.6029 15.9399C10.6741 15.9477 10.7462 15.9517 10.8197 15.9486C10.8427 15.9477 10.8665 15.943 10.8894 15.9406C10.9469 15.9359 11.0036 15.9304 11.0618 15.9185C11.1468 15.9003 11.2326 15.8758 11.3215 15.8418C11.4724 15.7833 11.6073 15.7114 11.7352 15.6331" fill="#1D1D1B"/>
<path d="M24.1364 8.70107V17.1555C24.1364 17.4384 24.2927 17.6005 24.5669 17.6005H25.1944C25.4687 17.6005 25.6257 17.4392 25.6257 17.1555V8.70107C25.6257 8.41815 25.4687 8.25606 25.1944 8.25606H24.5669C24.2927 8.25606 24.1364 8.41733 24.1364 8.70107ZM25.6747 5.077C25.6747 4.62487 25.3193 4.25891 24.8811 4.25891C24.4429 4.25891 24.0874 4.62567 24.0874 5.077C24.0874 5.52833 24.4429 5.89588 24.8811 5.89588C25.3193 5.89588 25.6747 5.52912 25.6747 5.077ZM28.8005 10.727C28.8005 10.3025 29.1529 9.47409 30.3679 9.47409C30.8383 9.47409 31.2888 9.65596 31.6802 10.0401C31.8564 10.2021 32.0917 10.2424 32.2877 10.1009L32.7581 9.75708C32.9734 9.59588 33.0132 9.37297 32.8171 9.15087C32.3076 8.56437 31.4849 8.05928 30.3679 8.05928C28.35 8.05928 27.3502 9.43379 27.3502 10.7278C27.3502 12.2643 28.4473 13.2951 30.3679 13.3962C30.3679 13.3962 32.0924 13.3962 32.0924 14.7708C32.0924 15.5391 31.6028 16.3674 30.3679 16.3674C29.447 16.3674 28.7805 15.7209 28.3691 15.1344C28.232 14.932 28.0167 14.8719 27.8007 15.0134L27.3502 15.3367C27.1151 15.5185 27.0959 15.7406 27.233 15.9635C27.7034 16.7318 28.6832 17.8029 30.3679 17.8029C32.4057 17.8029 33.6009 16.4892 33.6009 14.7708C33.6009 12.8706 32.0924 12.0825 30.3679 11.9814C30.3679 11.9814 28.8005 11.9205 28.8005 10.7278M39.6768 14.5273C39.6768 15.4371 39.0494 16.3666 37.9523 16.3666C36.8552 16.3666 36.2278 15.4371 36.2278 14.5273C36.2278 13.6175 36.8545 12.688 37.9523 12.688C39.0502 12.688 39.6768 13.6175 39.6768 14.5273ZM41.1853 17.1555V11.334C41.1853 9.59588 39.8921 8.05928 37.9523 8.05928C37.0905 8.05928 36.3657 8.28138 35.7383 8.64579C35.5621 8.74691 35.3859 8.9896 35.523 9.252L35.7774 9.71678C35.9145 9.95947 36.0715 10.0606 36.3258 9.9191C36.7181 9.69701 37.2667 9.49469 37.9523 9.49469C39.0494 9.49469 39.6768 10.4242 39.6768 11.334C39.6768 11.5364 39.5596 11.6573 39.4026 11.5767C38.9911 11.3743 38.4617 11.2534 37.9531 11.2534C36.0133 11.2534 34.7201 12.79 34.7201 14.5281C34.7201 16.2663 36.0133 17.8029 37.9531 17.8029C38.7368 17.8029 39.3052 17.5602 39.6577 17.3381C39.7358 17.2772 39.8538 17.2772 39.9319 17.4187C39.9909 17.5199 40.089 17.6005 40.2452 17.6005H40.7547C41.029 17.6005 41.1853 17.4392 41.1853 17.1555ZM47.7339 14.5273C47.7339 15.4371 47.1065 16.3666 46.0094 16.3666C44.9124 16.3666 44.2849 15.4371 44.2849 14.5273V11.3332C44.2849 10.4234 44.9116 9.49387 46.0094 9.49387C47.1073 9.49387 47.7339 10.4234 47.7339 11.3332V14.5273ZM49.2424 14.5273V11.3332C49.2424 9.59506 47.9492 8.05846 46.0094 8.05846C45.539 8.05846 45.0687 8.17943 44.599 8.38175C44.4228 8.46235 44.2857 8.36198 44.2857 8.19996V4.70313C44.2857 4.42016 44.1286 4.25891 43.8543 4.25891H43.2078C42.9335 4.25891 42.7765 4.42016 42.7765 4.70313V14.5273C42.7765 16.2654 44.0697 17.802 46.0094 17.802C47.9492 17.802 49.2424 16.2654 49.2424 14.5273ZM55.8079 11.8185C55.8079 12.1015 55.6516 12.2636 55.3773 12.2636H52.7909C52.5167 12.2636 52.3596 12.1023 52.3596 11.8185V11.3332C52.3596 10.4234 52.9871 9.49387 54.0842 9.49387C55.1812 9.49387 55.8086 10.4234 55.8086 11.3332V11.8185H55.8079ZM57.3163 12.7086V11.334C57.3163 9.59588 56.0232 8.05928 54.0834 8.05928C52.1436 8.05928 50.8504 9.59588 50.8504 11.334V14.5281C50.8504 16.2663 52.1436 17.8029 54.0834 17.8029C55.729 17.8029 56.6896 16.8322 57.1593 16.0442C57.2574 15.8829 57.2964 15.5999 57.0612 15.4174L56.6307 15.0941C56.4345 14.9526 56.1802 14.9731 56.0431 15.1747C55.7098 15.6394 55.1023 16.3674 54.0834 16.3674C52.9863 16.3674 52.3589 15.4379 52.3589 14.5281V14.0428C52.3589 13.7598 52.5159 13.5978 52.7902 13.5978H56.4545C57.003 13.5978 57.3163 13.2745 57.3163 12.7086ZM62.8729 17.3531V16.8108C62.8729 16.5247 62.7166 16.3611 62.4415 16.3611H62.1282C62.1206 16.3611 62.1098 16.3642 62.1022 16.3642C61.0227 16.3484 60.4045 15.4292 60.4045 14.5273V4.70313C60.4045 4.42016 60.2482 4.25891 59.9739 4.25891H59.3273C59.0531 4.25891 58.896 4.42016 58.896 4.70313V14.5273C58.896 16.2654 60.1892 17.802 62.129 17.802H62.4423C62.7166 17.802 62.8737 17.6384 62.8737 17.3523" fill="#1A2C4C"/>
</g>
</g>
<defs>
<linearGradient id="paint0_linear_306_7" x1="2.51916" y1="9.67519" x2="14.5604" y2="9.67519" gradientUnits="userSpaceOnUse">
<stop stop-color="#0087F1"/>
<stop offset="1" stop-color="#00A9FF"/>
</linearGradient>
<linearGradient id="paint1_linear_306_7" x1="5.52539" y1="18.949" x2="17.9826" y2="18.949" gradientUnits="userSpaceOnUse">
<stop stop-color="#FFD35C"/>
<stop offset="1" stop-color="#FF8900"/>
</linearGradient>
<linearGradient id="paint2_linear_306_7" x1="9.28026" y1="12.836" x2="19.8398" y2="12.836" gradientUnits="userSpaceOnUse">
<stop stop-color="#D32E7E"/>
<stop offset="1" stop-color="#FF3083"/>
</linearGradient>
<linearGradient id="paint3_linear_306_7" x1="-0.0246583" y1="15.5674" x2="12.3311" y2="15.5674" gradientUnits="userSpaceOnUse">
<stop stop-color="#00ADB3"/>
<stop offset="1" stop-color="#00D3B3"/>
</linearGradient>
<clipPath id="clip0_306_7">
<rect width="63" height="26" fill="white"/>
</clipPath>
</defs>
</svg>
