<svg width="74" height="17" viewBox="0 0 74 17" fill="none" xmlns="http://www.w3.org/2000/svg">
<path d="M44.6541 14.4707L46.0207 14.4707L46.0207 2.26796L44.6541 2.26796L44.6541 0L51.2721 2.89284e-07L51.2721 7.6312C51.9899 6.0434 53.1778 4.87098 55.1583 4.87098C57.9553 4.87098 59.4545 6.70211 59.4545 9.12118L59.4545 14.4707L60.6059 14.4707L60.6059 16.6935L53.0153 16.6935L53.0153 14.4707L54.2034 14.4707L54.2034 9.46316C54.2034 8.73038 53.9908 7.48471 52.911 7.48471C51.8466 7.48471 51.2728 8.53506 51.2728 9.92721L51.2728 14.4707L52.4107 14.4707L52.4107 16.6935L44.6541 16.6935L44.6541 14.4707Z" fill="#413D36"/>
<path d="M6.79273 13.944L6.79122 13.944L6.79122 13.9183C6.79122 13.8986 6.78788 13.8798 6.78788 13.86C6.78788 13.8402 6.79072 13.8161 6.79122 13.794L6.79122 2.96854e-07L0 0L-9.91359e-08 2.26796L1.53979 2.26796L1.53979 14.4707L-6.32536e-07 14.4707L-7.29696e-07 16.6935L8.21583 16.6935C7.7862 16.3686 7.43548 15.9532 7.18928 15.4775C6.94307 15.0018 6.8076 14.4779 6.79273 13.944Z" fill="#413D36"/>
<path d="M31.4292 4.8711C29.7221 4.8711 28.4349 6.01894 27.6915 8.24187L27.6915 5.09463L21.3707 5.09463L21.3707 7.3621L22.7373 7.3621L22.7373 13.5744C22.7478 13.7257 22.7264 13.8774 22.6743 14.0201C22.6222 14.1627 22.5407 14.2931 22.4348 14.4029C22.329 14.5128 22.2011 14.5998 22.0594 14.6583C21.9177 14.7168 21.7652 14.7456 21.6116 14.7429C21.1848 14.7429 20.5524 14.3816 20.5524 13.8441L20.5524 9.12131C20.5526 6.72747 18.637 4.8711 14.751 4.8711C11.133 4.8711 8.61808 6.04764 8.61808 7.9512C8.61808 8.95271 9.26168 9.80757 10.6478 9.80757C11.7122 9.80757 12.5536 9.1477 12.5536 8.24434C12.5682 8.0055 12.5267 7.76654 12.4322 7.54617C12.3377 7.32581 12.1929 7.13001 12.0089 6.9741C12.4258 6.8087 12.8716 6.72575 13.3209 6.72995C14.6823 6.72995 15.3754 7.29083 15.3754 8.75722L15.3754 9.82951C15.3754 10.0492 15.3252 10.0737 14.0139 10.2447C10.7963 10.6601 9.09886 11.2223 8.40561 11.9059C7.88432 12.4264 7.59106 13.1282 7.58899 13.86C7.58899 15.7901 9.46479 16.9622 11.5193 16.9622C12.6142 16.9622 14.9053 16.854 15.7221 14.8755L15.8458 14.8755C16.1181 16.7075 18.5277 16.9622 19.3744 16.9622C19.7701 16.9631 20.1646 16.9188 20.5501 16.8302C20.9753 16.7352 21.4103 16.6891 21.8463 16.6928L30.1414 16.6928L30.1414 14.4707L27.9887 14.4707L27.9887 9.60977C28.4342 8.24187 29.2759 7.72915 29.7462 7.63133C29.7462 7.65574 29.7214 7.70457 29.7214 7.72899C29.7214 8.92599 30.6124 9.58552 31.8007 9.58552C32.9889 9.58552 33.9292 8.63235 33.9292 7.26477C33.9287 6.94434 33.8632 6.62727 33.7364 6.33227C33.6096 6.03727 33.4243 5.77032 33.1912 5.54719C32.9582 5.32406 32.6822 5.14928 32.3796 5.03316C32.0769 4.91704 31.7538 4.86193 31.4292 4.8711ZM15.3755 12.3161C15.3755 13.8793 15.098 14.9296 14.0089 14.9296C12.994 14.9296 12.598 14.0058 12.598 13.3227C12.598 12.3946 13.0435 11.735 14.5288 11.4663C15.1473 11.3442 15.1529 11.3197 15.3757 11.271L15.3755 12.3161Z" fill="#413D36"/>
<path d="M42.3107 12.9543C41.9854 14.0029 41.1995 14.6416 39.9958 14.6416C38.2134 14.6416 37.3224 13.1027 37.3224 10.8804C37.3224 8.3399 38.4362 6.85008 40.0205 6.85008C40.8869 6.85008 41.5526 7.14306 41.8993 7.55828C41.575 7.67393 41.2956 7.88691 41.1002 8.16732C40.9049 8.44772 40.8035 8.78147 40.8102 9.12167C40.8102 10.1232 41.5278 10.978 42.815 10.978C44.2012 10.978 44.9438 10.0742 44.9438 8.80395C44.9438 6.97166 42.6795 4.87097 38.9667 4.87097C37.1622 4.87097 35.5205 5.38963 34.2665 6.30849C34.4781 6.7727 34.5755 7.27968 34.5507 7.78808C34.4944 9.37622 33.4907 10.386 31.8653 10.3964C31.8376 10.638 31.8237 10.881 31.8235 11.1242C31.8235 14.666 34.8083 16.9622 38.9419 16.9622C41.9352 16.9622 44.12 15.2515 44.6071 12.9544L42.3107 12.9543Z" fill="#413D36"/>
<path d="M68.8987 12.9543C68.6538 14.4663 68.0573 14.8076 67.3567 14.8221C66.4507 14.8416 65.6939 14.3115 65.5423 11.3754L73.6525 11.3754C73.6608 11.227 73.6667 11.0759 73.6667 10.9218C73.6667 7.32302 71.0284 4.84357 67.0936 4.84357C63.1588 4.84357 60.5143 7.8067 60.5143 10.9218C60.5143 14.7625 63.404 17 67.0936 17C70.2715 17 72.6021 15.5392 73.3816 12.9543L68.8987 12.9543ZM67.1768 6.65936C68.0505 6.64055 68.7817 6.9337 68.9716 9.74259L65.522 9.74259C65.5998 6.99803 66.3111 6.67783 67.1768 6.65936Z" fill="#413D36"/>
</svg>
