<svg width="73" height="73" viewBox="0 0 73 73" fill="none" xmlns="http://www.w3.org/2000/svg">
<circle cx="36.5" cy="36.5" r="34.5" fill="white" stroke="#453C6A" stroke-width="3"/>
<mask id="path-2-inside-1_11_357" fill="white">
<path d="M35.1103 13.4095C33.0976 13.9869 31.4974 15.3892 30.3756 17.5834C28.4454 21.3118 28.4289 25.3372 30.3426 28.1912C31.3159 29.6595 32.1573 30.1049 33.873 30.1049C34.9948 30.1049 35.3248 30.0224 36.1002 29.6265C40.175 27.4983 42.4022 20.6684 40.406 16.3956C39.2512 13.9374 37.2385 12.7991 35.1103 13.4095Z"/>
</mask>
<path d="M35.1103 13.4095C33.0976 13.9869 31.4974 15.3892 30.3756 17.5834C28.4454 21.3118 28.4289 25.3372 30.3426 28.1912C31.3159 29.6595 32.1573 30.1049 33.873 30.1049C34.9948 30.1049 35.3248 30.0224 36.1002 29.6265C40.175 27.4983 42.4022 20.6684 40.406 16.3956C39.2512 13.9374 37.2385 12.7991 35.1103 13.4095Z" stroke="#453C6A" stroke-width="4" mask="url(#path-2-inside-1_11_357)"/>
<path d="M35.0108 18.7383C34.3037 18.9417 33.7416 19.4358 33.3475 20.2089C32.6694 21.5226 32.6636 22.9409 33.3359 23.9465C33.6778 24.4638 33.9734 24.6207 34.5761 24.6207C34.9702 24.6207 35.0861 24.5917 35.3585 24.4522C36.79 23.7023 37.5723 21.2959 36.8711 19.7904C36.4654 18.9243 35.7584 18.5232 35.0108 18.7383Z" fill="#453C6A"/>
<mask id="path-4-inside-2_11_357" fill="white">
<path d="M49.8845 18.9695C46.5191 19.8273 43.1701 23.3083 42.2462 26.9047C41.8503 28.4555 41.8338 29.5443 42.1802 30.7651C42.5102 31.9364 43.1371 32.8603 44.0445 33.5037C44.6714 33.9491 44.9023 33.9986 46.2221 34.0481C47.3604 34.0976 47.9379 34.0316 48.8122 33.7677C51.6828 32.8933 54.3059 30.2537 55.6422 26.9047C56.0876 25.7829 56.1701 25.3705 56.1701 24.1002C56.1866 22.2855 55.8566 21.2131 54.9493 20.1738C54.5863 19.7613 53.9759 19.3159 53.5965 19.1509C52.6726 18.788 50.9404 18.689 49.8845 18.9695Z"/>
</mask>
<path d="M49.8845 18.9695C46.5191 19.8273 43.1701 23.3083 42.2462 26.9047C41.8503 28.4555 41.8338 29.5443 42.1802 30.7651C42.5102 31.9364 43.1371 32.8603 44.0445 33.5037C44.6714 33.9491 44.9023 33.9986 46.2221 34.0481C47.3604 34.0976 47.9379 34.0316 48.8122 33.7677C51.6828 32.8933 54.3059 30.2537 55.6422 26.9047C56.0876 25.7829 56.1701 25.3705 56.1701 24.1002C56.1866 22.2855 55.8566 21.2131 54.9493 20.1738C54.5863 19.7613 53.9759 19.3159 53.5965 19.1509C52.6726 18.788 50.9404 18.689 49.8845 18.9695Z" stroke="#453C6A" stroke-width="4" mask="url(#path-4-inside-2_11_357)"/>
<path d="M49.4476 23.5438C48.1929 23.8636 46.9443 25.1612 46.5999 26.5018C46.4523 27.0799 46.4461 27.4858 46.5753 27.9409C46.6983 28.3775 46.932 28.7219 47.2703 28.9617C47.504 29.1278 47.5901 29.1462 48.0822 29.1647C48.5066 29.1831 48.7218 29.1585 49.0478 29.0601C50.118 28.7342 51.096 27.7502 51.5941 26.5018C51.7602 26.0837 51.791 25.9299 51.791 25.4564C51.7971 24.7799 51.6741 24.3802 51.3358 23.9928C51.2005 23.839 50.9729 23.673 50.8315 23.6115C50.487 23.4762 49.8412 23.4393 49.4476 23.5438Z" fill="#453C6A"/>
<mask id="path-6-inside-3_11_357" fill="white">
<path d="M19.4048 16.361C16.9137 17.3014 15.0164 20.8153 15.0164 24.4777C15.0164 27.0678 15.8248 29.2455 17.3756 30.8128C18.3984 31.8521 19.3388 32.2315 20.6586 32.0996C21.8794 32.0006 22.8197 31.4726 23.8591 30.3178C25.3273 28.6846 26.1027 26.4409 26.1027 23.8178C26.1027 21.2607 25.3438 19.0831 23.9251 17.5488C22.8362 16.3445 20.8235 15.8331 19.4048 16.361Z"/>
</mask>
<path d="M19.4048 16.361C16.9137 17.3014 15.0164 20.8153 15.0164 24.4777C15.0164 27.0678 15.8248 29.2455 17.3756 30.8128C18.3984 31.8521 19.3388 32.2315 20.6586 32.0996C21.8794 32.0006 22.8197 31.4726 23.8591 30.3178C25.3273 28.6846 26.1027 26.4409 26.1027 23.8178C26.1027 21.2607 25.3438 19.0831 23.9251 17.5488C22.8362 16.3445 20.8235 15.8331 19.4048 16.361Z" stroke="#453C6A" stroke-width="4" mask="url(#path-6-inside-3_11_357)"/>
<path d="M20.2347 21.7749C19.4964 22.0502 18.9341 23.079 18.9341 24.1512C18.9341 24.9096 19.1737 25.5471 19.6333 26.006C19.9365 26.3102 20.2152 26.4213 20.6063 26.3827C20.9682 26.3537 21.2469 26.1991 21.5549 25.8611C21.9901 25.3829 22.2199 24.726 22.2199 23.958C22.2199 23.2094 21.9949 22.5719 21.5744 22.1227C21.2517 21.7701 20.6552 21.6203 20.2347 21.7749Z" fill="#453C6A"/>
<mask id="path-8-inside-4_11_357" fill="white">
<path d="M57.2707 34.2094C54.5981 34.6713 51.9915 36.519 50.2922 39.1586C49.5004 40.3794 49.1374 41.5837 49.1374 42.9695C49.1374 45.7081 50.6057 47.2258 53.5092 47.4898C56.4623 47.7702 60.1577 45.6256 62.0714 42.5406C63.7871 39.7855 63.7376 36.9314 61.9724 35.2322C61.0156 34.3083 59.0689 33.8794 57.2707 34.2094Z"/>
</mask>
<path d="M57.2707 34.2094C54.5981 34.6713 51.9915 36.519 50.2922 39.1586C49.5004 40.3794 49.1374 41.5837 49.1374 42.9695C49.1374 45.7081 50.6057 47.2258 53.5092 47.4898C56.4623 47.7702 60.1577 45.6256 62.0714 42.5406C63.7871 39.7855 63.7376 36.9314 61.9724 35.2322C61.0156 34.3083 59.0689 33.8794 57.2707 34.2094Z" stroke="#453C6A" stroke-width="4" mask="url(#path-8-inside-4_11_357)"/>
<path d="M56.5656 38.5595C55.6612 38.7161 54.7791 39.3427 54.2041 40.2378C53.9361 40.6518 53.8133 41.0602 53.8133 41.5302C53.8133 42.4589 54.3101 42.9736 55.2927 43.0631C56.2921 43.1582 57.5426 42.4309 58.1903 41.3847C58.7709 40.4504 58.7541 39.4826 58.1568 38.9063C57.833 38.593 57.1742 38.4476 56.5656 38.5595Z" fill="#453C6A"/>
<mask id="mask0_11_357" style="mask-type:alpha" maskUnits="userSpaceOnUse" x="15" y="36" width="27" height="26">
<mask id="path-10-inside-5_11_357" fill="white">
<path d="M27.2393 37.1981C25.7008 37.5912 22.3569 39.2894 20.4888 40.626C18.6834 41.9154 16.1715 44.4155 15.5593 45.5162C14.429 47.6076 15.1197 50.265 17.1135 51.5072C18.0554 52.089 19.4212 52.4507 22.3726 52.9224C27.6475 53.7558 28.8092 54.4005 32.0118 58.2529C34.5079 61.2406 35.5284 61.9167 37.5693 61.901C40.8346 61.8695 42.3417 58.4102 41.8394 52.0733C41.1329 42.9689 38.6368 38.629 33.3148 37.2453C31.5094 36.7735 28.9819 36.7578 27.2393 37.1981Z"/>
</mask>
<path d="M27.2393 37.1981C25.7008 37.5912 22.3569 39.2894 20.4888 40.626C18.6834 41.9154 16.1715 44.4155 15.5593 45.5162C14.429 47.6076 15.1197 50.265 17.1135 51.5072C18.0554 52.089 19.4212 52.4507 22.3726 52.9224C27.6475 53.7558 28.8092 54.4005 32.0118 58.2529C34.5079 61.2406 35.5284 61.9167 37.5693 61.901C40.8346 61.8695 42.3417 58.4102 41.8394 52.0733C41.1329 42.9689 38.6368 38.629 33.3148 37.2453C31.5094 36.7735 28.9819 36.7578 27.2393 37.1981Z" fill="black" stroke="#453C6A" stroke-width="76" mask="url(#path-10-inside-5_11_357)"/>
</mask>
<g mask="url(#mask0_11_357)">
<path d="M27.0137 28.478L26.7019 28.2864L13.6263 49.5656L13.938 49.7572L27.0137 28.478Z" fill="#453C6A"/>
<path d="M27.3261 28.6693L27.1702 28.5735L14.0946 49.8528L14.2504 49.9486L27.3261 28.6693Z" fill="#453C6A"/>
<path d="M27.7931 28.9569L27.6372 28.8611L14.5616 50.1404L14.7175 50.2362L27.7931 28.9569Z" fill="#453C6A"/>
<path d="M28.5731 29.4358L28.4172 29.34L15.3416 50.6193L15.4975 50.715L28.5731 29.4358Z" fill="#453C6A"/>
<path d="M29.5082 30.0104L28.8846 29.6273L15.809 50.9065L16.4325 51.2897L29.5082 30.0104Z" fill="#453C6A"/>
<path d="M29.82 30.2019L29.6641 30.1061L16.5885 51.3854L16.7443 51.4812L29.82 30.2019Z" fill="#453C6A"/>
<path d="M30.2881 30.4892L30.1323 30.3934L17.0566 51.6726L17.2125 51.7684L30.2881 30.4892Z" fill="#453C6A"/>
<path d="M30.7549 30.7769L30.4431 30.5853L17.3675 51.8646L17.6792 52.0561L30.7549 30.7769Z" fill="#453C6A"/>
<path d="M31.2228 31.0639L31.0669 30.9681L17.9913 52.2474L18.1472 52.3432L31.2228 31.0639Z" fill="#453C6A"/>
<path d="M32.0021 31.5429L31.8462 31.4471L18.7706 52.7264L18.9265 52.8222L32.0021 31.5429Z" fill="#453C6A"/>
<path d="M32.7817 32.0221L32.6258 31.9263L19.5502 53.2056L19.706 53.3014L32.7817 32.0221Z" fill="#453C6A"/>
<path d="M33.2495 32.3093L32.9377 32.1177L19.8621 53.397L20.1738 53.5886L33.2495 32.3093Z" fill="#453C6A"/>
<path d="M33.7171 32.5965L33.5612 32.5007L20.4856 53.78L20.6415 53.8757L33.7171 32.5965Z" fill="#453C6A"/>
<path d="M34.3403 32.9801L34.0286 32.7885L20.9529 54.0678L21.2647 54.2593L34.3403 32.9801Z" fill="#453C6A"/>
<path d="M35.1199 33.4587L34.964 33.3629L21.8884 54.6421L22.0443 54.7379L35.1199 33.4587Z" fill="#453C6A"/>
<path d="M35.4318 33.6504L35.2759 33.5546L22.2003 54.8339L22.3562 54.9297L35.4318 33.6504Z" fill="#453C6A"/>
<path d="M35.7434 33.8418L35.5875 33.746L22.5119 55.0253L22.6677 55.1211L35.7434 33.8418Z" fill="#453C6A"/>
<path d="M36.6788 34.4166L36.0552 34.0335L22.9796 55.3127L23.6031 55.6959L36.6788 34.4166Z" fill="#453C6A"/>
<path d="M37.1466 34.7042L36.9907 34.6084L23.9151 55.8877L24.0709 55.9834L37.1466 34.7042Z" fill="#453C6A"/>
<path d="M37.6145 34.9913L37.4586 34.8955L24.383 56.1747L24.5389 56.2705L37.6145 34.9913Z" fill="#453C6A"/>
<path d="M38.0824 35.2786L37.7706 35.0871L24.695 56.3663L25.0068 56.5579L38.0824 35.2786Z" fill="#453C6A"/>
<path d="M39.3292 36.0451L38.7057 35.662L25.63 56.9412L26.2536 57.3244L39.3292 36.0451Z" fill="#453C6A"/>
<path d="M39.7966 36.3323L39.6407 36.2365L26.565 57.5158L26.7209 57.6116L39.7966 36.3323Z" fill="#453C6A"/>
<path d="M40.1082 36.5239L39.9523 36.4281L26.8767 57.7073L27.0326 57.8031L40.1082 36.5239Z" fill="#453C6A"/>
<path d="M40.576 36.8112L40.4201 36.7154L27.3444 57.9946L27.5003 58.0904L40.576 36.8112Z" fill="#453C6A"/>
<path d="M41.1998 37.1946L40.8881 37.003L27.8124 58.2822L28.1242 58.4738L41.1998 37.1946Z" fill="#453C6A"/>
<path d="M41.9787 37.6733L41.5111 37.386L28.4354 58.6652L28.9031 58.9526L41.9787 37.6733Z" fill="#453C6A"/>
<path d="M42.2909 37.8651L42.135 37.7693L29.0594 59.0485L29.2153 59.1443L42.2909 37.8651Z" fill="#453C6A"/>
<path d="M43.0705 38.3437L42.9146 38.248L29.8389 59.5272L29.9948 59.623L43.0705 38.3437Z" fill="#453C6A"/>
<path d="M43.538 38.6311L43.2262 38.4395L30.1506 59.7188L30.4624 59.9103L43.538 38.6311Z" fill="#453C6A"/>
<path d="M44.0052 38.9186L43.8493 38.8228L30.7737 60.1021L30.9296 60.1979L44.0052 38.9186Z" fill="#453C6A"/>
<path d="M45.0966 39.5891L44.4731 39.206L31.3974 60.4852L32.021 60.8684L45.0966 39.5891Z" fill="#453C6A"/>
<path d="M45.4081 39.7808L45.2522 39.685L32.1765 60.9643L32.3324 61.0601L45.4081 39.7808Z" fill="#453C6A"/>
<path d="M46.1878 40.2598L45.5643 39.8766L32.4886 61.1559L33.1122 61.539L46.1878 40.2598Z" fill="#453C6A"/>
<path d="M46.811 40.643L46.3434 40.3557L33.2677 61.6349L33.7354 61.9223L46.811 40.643Z" fill="#453C6A"/>
<path d="M47.123 40.8344L46.9671 40.7386L33.8915 62.0179L34.0474 62.1137L47.123 40.8344Z" fill="#453C6A"/>
<path d="M47.4353 41.0258L47.2794 40.93L34.2038 62.2092L34.3596 62.305L47.4353 41.0258Z" fill="#453C6A"/>
<path d="M48.0587 41.4091L47.9028 41.3133L34.8271 62.5926L34.983 62.6884L48.0587 41.4091Z" fill="#453C6A"/>
<path d="M48.5259 41.6965L48.2141 41.5049L35.1385 62.7842L35.4503 62.9757L48.5259 41.6965Z" fill="#453C6A"/>
<path d="M49.3058 42.1752L48.9941 41.9836L35.9184 63.2628L36.2302 63.4544L49.3058 42.1752Z" fill="#453C6A"/>
<path d="M50.2408 42.7502L49.7731 42.4628L36.6975 63.7421L37.1651 64.0294L50.2408 42.7502Z" fill="#453C6A"/>
<path d="M50.5524 42.9417L50.3965 42.8459L37.3208 64.1252L37.4767 64.221L50.5524 42.9417Z" fill="#453C6A"/>
<path d="M51.0205 43.2291L50.7087 43.0375L37.6331 64.3168L37.9449 64.5083L51.0205 43.2291Z" fill="#453C6A"/>
</g>
<mask id="path-54-inside-6_11_357" fill="white">
<path d="M27.2393 37.1981C25.7008 37.5912 22.3569 39.2894 20.4888 40.626C18.6834 41.9154 16.1715 44.4155 15.5593 45.5162C14.429 47.6076 15.1197 50.265 17.1135 51.5072C18.0554 52.089 19.4212 52.4507 22.3726 52.9224C27.6475 53.7558 28.8092 54.4005 32.0118 58.2529C34.5079 61.2406 35.5284 61.9167 37.5693 61.901C40.8346 61.8695 42.3417 58.4102 41.8394 52.0733C41.1329 42.9689 38.6368 38.629 33.3148 37.2453C31.5094 36.7735 28.9819 36.7578 27.2393 37.1981Z"/>
</mask>
<path d="M27.2393 37.1981C25.7008 37.5912 22.3569 39.2894 20.4888 40.626C18.6834 41.9154 16.1715 44.4155 15.5593 45.5162C14.429 47.6076 15.1197 50.265 17.1135 51.5072C18.0554 52.089 19.4212 52.4507 22.3726 52.9224C27.6475 53.7558 28.8092 54.4005 32.0118 58.2529C34.5079 61.2406 35.5284 61.9167 37.5693 61.901C40.8346 61.8695 42.3417 58.4102 41.8394 52.0733C41.1329 42.9689 38.6368 38.629 33.3148 37.2453C31.5094 36.7735 28.9819 36.7578 27.2393 37.1981Z" stroke="#453C6A" stroke-width="4" mask="url(#path-54-inside-6_11_357)"/>
</svg>
