<svg width="88" height="12" viewBox="0 0 88 12" fill="none" xmlns="http://www.w3.org/2000/svg">
<path fill-rule="evenodd" clip-rule="evenodd" d="M3.61248 3.4724V8.94948C3.61248 9.37906 3.71053 9.68256 3.90664 9.85999C4.10275 10.0281 4.44361 10.1121 4.92922 10.1121C5.15334 10.1121 5.3728 10.0981 5.58759 10.0701C5.80238 10.0421 5.96113 10.0141 6.06386 9.98606V3.4724H7.64675C7.90823 3.4724 8.11368 3.39302 8.26309 3.23426C8.42185 3.06617 8.50123 2.80936 8.50123 2.46383C8.50123 2.26772 8.47321 2.08562 8.41718 1.91752C8.37049 1.74943 8.31446 1.61402 8.24909 1.51129H2.09963C1.83815 1.51129 1.62803 1.59067 1.46927 1.74943C1.31986 1.90818 1.24515 2.165 1.24515 2.51986C1.24515 2.71597 1.26849 2.89808 1.31519 3.06617C1.37122 3.23426 1.43192 3.36967 1.49729 3.4724H3.61248ZM2.09963 0.26615C1.56665 0.26615 1.01958 0.43822 0.588823 0.868977L0.575485 0.882315L0.562556 0.89605C0.0940661 1.39382 0 2.03634 0 2.51986C0 2.81487 0.0351608 3.11033 0.115467 3.39943L0.123933 3.42991L0.133936 3.45992C0.208972 3.68503 0.308187 3.92306 0.446807 4.14089L0.813771 4.71754H2.36733V8.94948C2.36733 9.51758 2.48961 10.2571 3.07126 10.7833L3.08364 10.7945L3.09631 10.8054C3.64607 11.2766 4.37549 11.3573 4.92922 11.3573C5.20534 11.3573 5.47864 11.34 5.74864 11.3048C5.97464 11.2753 6.20302 11.2387 6.39148 11.1873L7.309 10.9371V4.71754H7.64675C8.17696 4.71754 8.73749 4.54601 9.16833 4.08921C9.63222 3.59803 9.74637 2.97304 9.74637 2.46383C9.74637 2.15887 9.70409 1.85328 9.60876 1.5554C9.54237 1.32351 9.4466 1.07385 9.29957 0.842804L8.9326 0.26615H2.09963ZM12.7856 2.56344C12.7745 2.64298 12.7689 2.72651 12.7689 2.81403V8.73936C12.7689 8.82688 12.7745 8.91041 12.7856 8.98995C12.7951 9.05839 12.8088 9.12388 12.8265 9.18641C12.8828 9.38461 12.9803 9.55311 13.1191 9.6919C13.3526 9.92536 13.6701 10.0421 14.0717 10.0421H18.162C18.4234 10.0421 18.6289 9.96739 18.7783 9.81797C18.9277 9.65921 19.0024 9.40707 19.0024 9.06154C19.0024 8.86543 18.9744 8.68333 18.9184 8.51524C18.8717 8.34714 18.8157 8.21173 18.7503 8.10901H15.1503V6.63818H17.7137C17.9752 6.63818 18.1806 6.56347 18.3301 6.41405C18.4795 6.2553 18.5542 6.00316 18.5542 5.65763C18.5542 5.46152 18.5262 5.28408 18.4701 5.12533C18.4234 4.96657 18.3674 4.83583 18.302 4.73311H15.1503V3.43037H18.1059C18.3674 3.43037 18.5729 3.351 18.7223 3.19224C18.8717 3.03348 18.9464 2.78134 18.9464 2.43581C18.9464 2.2397 18.9184 2.06227 18.8624 1.90352C18.8157 1.74476 18.7596 1.61402 18.6943 1.51129H14.0717C13.6701 1.51129 13.3526 1.62803 13.1191 1.86149C12.9803 2.00028 12.8828 2.16878 12.8265 2.36698C12.8088 2.42951 12.7951 2.495 12.7856 2.56344ZM12.8265 0.551212C12.6171 0.659141 12.419 0.800743 12.2387 0.98104C11.7886 1.43111 11.5797 1.99214 11.5337 2.56344H11.5238V8.98995H11.5337C11.5797 9.56125 11.7886 10.1223 12.2387 10.5723C12.419 10.7526 12.6171 10.8942 12.8265 11.0022V11.2872H18.162C18.6706 11.2872 19.223 11.1342 19.6588 10.6984L19.6721 10.6851L19.685 10.6713C20.1489 10.1785 20.2476 9.5466 20.2476 9.06154C20.2476 8.75658 20.2053 8.45097 20.11 8.15308C20.0436 7.9212 19.9478 7.67156 19.8008 7.44052L19.4831 6.9413C19.7377 6.51575 19.7993 6.04086 19.7993 5.65763C19.7993 5.35437 19.7575 5.04556 19.6558 4.7443C19.6035 4.5718 19.5351 4.3929 19.4429 4.21973C19.5071 4.16697 19.5693 4.10904 19.629 4.04562C20.0928 3.55278 20.1915 2.92088 20.1915 2.43581C20.1915 2.13253 20.1497 1.82369 20.048 1.5224C19.9799 1.2978 19.8844 1.06235 19.7447 0.842806L19.3778 0.26615H12.8265V0.551212ZM30.9644 4.06529L30.9561 4.07746C30.7542 4.37257 30.4997 4.6361 30.1847 4.83997L29.4912 5.28871L28.8081 4.82422C28.654 4.71942 28.4776 4.62535 28.2754 4.54444C28.1693 4.50202 28.009 4.4654 27.7713 4.4654C27.4761 4.4654 27.3053 4.52769 27.2019 4.59089L27.1975 4.59353L27.1932 4.59613C27.104 4.64968 27.0124 4.7365 26.9289 4.91398C26.8525 5.08664 26.7892 5.35377 26.7892 5.75568C26.7892 6.37281 26.94 6.6435 27.0556 6.7672C27.1909 6.90297 27.4193 7.03196 27.8973 7.03196C28.1773 7.03196 28.3343 6.99326 28.4086 6.9641L28.4154 6.96141L28.4223 6.95881C28.6446 6.87447 28.8516 6.78012 29.044 6.6765L29.752 6.29529L30.3907 6.78373C30.7109 7.02863 30.957 7.34066 31.1236 7.70123C31.3082 8.08029 31.3837 8.4828 31.3837 8.87944C31.3837 9.32375 31.2641 9.75136 31.0233 10.1327C30.7366 10.5865 30.3111 10.8704 29.9055 11.0522L29.9037 11.053L29.9019 11.0539C29.6336 11.1731 29.312 11.2686 28.9751 11.3502C28.5422 11.4552 28.0641 11.4974 27.5611 11.4974C26.5602 11.4974 25.6146 11.3074 24.744 10.9074L24.7411 10.906L24.7381 10.9047C23.8281 10.4808 23.1001 9.82206 22.5665 8.96102L22.5632 8.9556L22.5599 8.95015C22.0072 8.03751 21.7774 6.9453 21.7774 5.75568C21.7774 4.62024 22.0069 3.57196 22.5373 2.67365C23.0421 1.80962 23.7378 1.13285 24.6155 0.674744C25.4764 0.221012 26.4143 0 27.4071 0C28.0651 0 28.6884 0.0746617 29.2494 0.257282C29.7789 0.429705 30.2887 0.696029 30.6874 1.11203C31.1067 1.54954 31.3557 2.10878 31.3557 2.74399C31.3557 3.20616 31.2316 3.65421 30.9725 4.05293L30.9644 4.06529ZM25.1938 1.77744C24.5308 2.12297 24.0031 2.63193 23.6109 3.3043C23.2187 3.96734 23.0226 4.78447 23.0226 5.75568C23.0226 6.79227 23.2234 7.64208 23.6249 8.30512C24.0358 8.96816 24.5821 9.45843 25.2638 9.77595C25.9549 10.0935 26.7207 10.2522 27.5611 10.2522C28.0001 10.2522 28.3736 10.2149 28.6818 10.1402C28.9899 10.0654 29.2281 9.99073 29.3962 9.91603C29.667 9.79462 29.8584 9.64521 29.9705 9.46777C30.0764 9.30018 30.1322 9.11592 30.1381 8.91499C30.1384 8.9032 30.1386 8.89135 30.1386 8.87944C30.1386 8.81455 30.1353 8.75166 30.1286 8.69076C30.1103 8.52383 30.0669 8.37193 29.9985 8.23508C29.9145 8.04831 29.7931 7.89422 29.6343 7.77282C29.3915 7.90356 29.1347 8.02029 28.8639 8.12302C28.6024 8.22574 28.2802 8.2771 27.8973 8.2771C27.1596 8.2771 26.5806 8.06231 26.1604 7.63274C25.7495 7.20316 25.544 6.57748 25.544 5.75568C25.544 5.22338 25.6281 4.77046 25.7962 4.39692C25.9736 4.01404 26.2257 3.72454 26.5526 3.52843C26.8888 3.32298 27.295 3.22026 27.7713 3.22026C28.1355 3.22026 28.4577 3.27629 28.7378 3.38835C29.018 3.50041 29.2748 3.63582 29.5082 3.79458C29.667 3.69185 29.8071 3.55178 29.9285 3.37434C30.017 3.23812 30.0733 3.08947 30.0972 2.9284C30.1061 2.86864 30.1106 2.80717 30.1106 2.74399C30.1106 2.72909 30.1103 2.71428 30.1097 2.69955C30.0992 2.42814 29.9921 2.18615 29.7884 1.97356C29.5736 1.74943 29.2654 1.572 28.8639 1.44126C28.4623 1.31052 27.9767 1.24515 27.4071 1.24515C26.6039 1.24515 25.8662 1.42258 25.1938 1.77744ZM34.5271 8.94948C34.5271 9.37906 34.6252 9.68256 34.8213 9.85999C35.0174 10.0281 35.3582 10.1121 35.8438 10.1121C36.068 10.1121 36.2874 10.0981 36.5022 10.0701C36.717 10.0421 36.8758 10.0141 36.9785 9.98606V6.72223H39.668V8.94948C39.668 9.37906 39.7661 9.68256 39.9622 9.85999C40.1583 10.0281 40.4991 10.1121 40.9847 10.1121C41.2089 10.1121 41.4283 10.0981 41.6431 10.0701C41.8579 10.0421 42.0167 10.0141 42.1194 9.98606V2.54788C42.1194 2.09029 42.0167 1.77744 41.8112 1.60935C41.6058 1.44125 41.2696 1.35721 40.8026 1.35721C40.5972 1.35721 40.3824 1.37588 40.1583 1.41324C39.9435 1.44126 39.7801 1.4646 39.668 1.48328V4.78914H36.9785V2.51986C36.9785 2.06227 36.8758 1.7541 36.6703 1.59534C36.4649 1.43659 36.1287 1.35721 35.6618 1.35721C35.4563 1.35721 35.2415 1.37588 35.0174 1.41324C34.8026 1.44126 34.6392 1.4646 34.5271 1.48328V8.94948ZM34.8356 0.181264C34.626 0.208723 34.4524 0.233415 34.3224 0.255075L33.282 0.42848V8.94948C33.282 9.51758 33.4042 10.2571 33.9859 10.7833L33.9983 10.7945L34.0109 10.8054C34.5607 11.2766 35.2901 11.3573 35.8438 11.3573C36.12 11.3573 36.3933 11.34 36.6633 11.3048C36.8893 11.2753 37.1176 11.2387 37.3061 11.1873L38.2236 10.9371V7.96737H38.4229V8.94948C38.4229 9.51758 38.5451 10.2571 39.1268 10.7833L39.1392 10.7945L39.1518 10.8054C39.7016 11.2766 40.431 11.3573 40.9847 11.3573C41.2609 11.3573 41.5342 11.34 41.8042 11.3048C42.0302 11.2753 42.2585 11.2387 42.447 11.1873L43.3645 10.9371V2.54788C43.3645 1.97674 43.2483 1.17636 42.5997 0.64566C42.0567 0.201429 41.3611 0.112063 40.8026 0.112063C40.5294 0.112063 40.2536 0.136225 39.9765 0.181264C39.7669 0.208723 39.5933 0.233415 39.4633 0.255075L38.4229 0.42848V3.54399H38.2236V2.51986C38.2236 1.95916 38.1118 1.13563 37.4317 0.610078C36.8928 0.193669 36.21 0.112063 35.6618 0.112063C35.3885 0.112063 35.1127 0.136225 34.8356 0.181264ZM52.9064 2.30974C52.9064 2.11363 52.9625 1.96422 53.0745 1.86149C53.1866 1.74943 53.3313 1.66071 53.5088 1.59534C53.8263 1.48328 54.2045 1.4039 54.6434 1.35721C55.0823 1.30118 55.4745 1.27316 55.8201 1.27316C57.0995 1.27316 58.08 1.54865 58.7617 2.09963C59.4528 2.6506 59.7983 3.39769 59.7983 4.34089C59.7983 4.9479 59.6489 5.4802 59.3501 5.93779C59.0512 6.38604 58.631 6.73624 58.0894 6.98838C57.6565 7.18987 57.161 7.31086 56.603 7.35133C56.4627 7.3615 56.3185 7.36659 56.1703 7.36659H55.3578V9.98606C55.2551 10.0141 55.0963 10.0421 54.8815 10.0701C54.6668 10.0981 54.4473 10.1121 54.2232 10.1121C53.7376 10.1121 53.3967 10.0281 53.2006 9.85999C53.0045 9.68256 52.9064 9.37906 52.9064 8.94948V2.30974ZM55.3438 5.44751H56.0162C56.2305 5.44751 56.4215 5.41825 56.589 5.35972C56.5936 5.35808 56.5983 5.35642 56.603 5.35474C56.729 5.30911 56.8416 5.24665 56.9407 5.16735C57.1835 4.97124 57.3049 4.69575 57.3049 4.34089C57.3049 3.98602 57.1929 3.7152 56.9687 3.52843C56.8657 3.43441 56.7392 3.36292 56.589 3.31398C56.5443 3.29942 56.4975 3.28686 56.4487 3.27629C56.3192 3.24827 56.175 3.23426 56.0162 3.23426C55.8668 3.23426 55.7407 3.23893 55.638 3.24827C55.5446 3.24827 55.4465 3.25761 55.3438 3.27629V5.44751ZM51.6613 2.30974C51.6613 1.8792 51.7897 1.36359 52.2114 0.963891C52.4693 0.711606 52.7709 0.540214 53.0783 0.426968L53.0863 0.42402L53.0944 0.421182C53.5227 0.269995 53.9961 0.174684 54.4985 0.120461C54.9712 0.0605386 55.4133 0.0280152 55.8201 0.0280152C57.2554 0.0280152 58.5556 0.334162 59.5403 1.12789C60.5483 1.93267 61.0435 3.04901 61.0435 4.34089C61.0435 5.16197 60.838 5.93654 60.3926 6.61862L60.3894 6.62356L60.3861 6.62847C59.947 7.28711 59.3404 7.77945 58.6148 8.1172C57.9975 8.40458 57.32 8.55659 56.603 8.59914V10.9371L55.6854 11.1873C55.497 11.2387 55.2686 11.2753 55.0426 11.3048C54.7726 11.34 54.4993 11.3573 54.2232 11.3573C53.6694 11.3573 52.94 11.2766 52.3903 10.8054L52.3776 10.7945L52.3652 10.7833C51.7836 10.2571 51.6613 9.51758 51.6613 8.94948V2.30974ZM65.5105 1.76344C65.4358 1.95955 65.3237 2.26772 65.1743 2.68796C65.0249 3.09886 64.8568 3.56578 64.67 4.08875C64.4926 4.61171 64.3105 5.14868 64.1237 5.69965C63.9463 6.24129 63.7828 6.75024 63.6334 7.22651C63.484 7.69344 63.3719 8.07632 63.2972 8.37516C63.2505 8.55259 63.2085 8.70668 63.1712 8.83742C63.1602 8.87577 63.1508 8.91413 63.1431 8.95249C63.1245 9.04487 63.1151 9.13725 63.1151 9.22964C63.1151 9.31894 63.1262 9.40247 63.1484 9.48022C63.1983 9.65452 63.3039 9.79978 63.4653 9.91603C63.6988 10.0748 64.049 10.1542 64.5159 10.1542C64.7214 10.1542 64.8988 10.1355 65.0482 10.0981C65.1976 10.0608 65.333 10.0234 65.4544 9.98606C65.4918 9.84599 65.5291 9.70124 65.5665 9.55182C65.5724 9.52807 65.5784 9.50421 65.5843 9.48022C65.6157 9.3533 65.6471 9.22308 65.6786 9.08956C65.7166 8.96008 65.7516 8.82439 65.7835 8.68248C65.7907 8.6504 65.7977 8.618 65.8046 8.58528C65.8348 8.4705 65.867 8.35376 65.9011 8.23508H68.4386L68.6903 9.20162C68.717 9.3025 68.7484 9.39537 68.7845 9.48022C68.8621 9.66244 68.9614 9.80771 69.0825 9.91603C69.2599 10.0654 69.5774 10.1402 70.035 10.1402C70.3432 10.1402 70.6093 10.0981 70.8335 10.0141C71.0576 9.93003 71.2257 9.82731 71.3378 9.70591C71.1977 9.18295 71.0342 8.59461 70.8475 7.94091C70.6607 7.27787 70.4646 6.60083 70.2591 5.90977C70.063 5.20938 69.8669 4.54167 69.6708 3.90664C69.484 3.26228 69.3066 2.70197 69.1385 2.2257C69.0451 1.92686 68.8163 1.71207 68.4521 1.58133C68.0879 1.44125 67.6723 1.37122 67.2054 1.37122C66.8879 1.37122 66.5657 1.41324 66.2389 1.49729C65.912 1.58133 65.6692 1.67005 65.5105 1.76344ZM70.3188 1.82875C70.494 2.32657 70.6756 2.9011 70.8637 3.54945C71.0613 4.18989 71.2586 4.86154 71.4554 5.56428C71.6612 6.25663 71.8578 6.93541 72.0452 7.60062C72.2332 8.25866 72.3984 8.85318 72.5405 9.38374L72.718 10.0464L72.2527 10.5505C71.9629 10.8644 71.6011 11.056 71.2707 11.1799C70.873 11.3291 70.4516 11.3853 70.035 11.3853C69.5277 11.3853 68.8165 11.3199 68.2804 10.8685L68.2661 10.8564L68.2522 10.844C67.8367 10.4722 67.61 9.98666 67.4866 9.52025L67.4853 9.51541L67.4761 9.48022H66.8656C66.8353 9.60743 66.8049 9.73197 66.7745 9.85381C66.7356 10.0091 66.6967 10.1602 66.6575 10.3069L66.4798 10.9733L65.8206 11.1761C65.6741 11.2212 65.5168 11.2644 65.3502 11.3061C65.0755 11.3748 64.7916 11.3993 64.5159 11.3993C63.9468 11.3993 63.3004 11.3096 62.7652 10.9457L62.7513 10.9363L62.7378 10.9265C62.1769 10.5227 61.87 9.91659 61.87 9.22964C61.87 8.97864 61.9061 8.73286 61.9739 8.49535C62.0077 8.37693 62.0468 8.23396 62.0912 8.06532C62.1749 7.73183 62.2949 7.32405 62.4468 6.84924C62.5976 6.36867 62.7621 5.85624 62.9404 5.31203L62.9424 5.30596L62.9445 5.29991C63.1313 4.74883 63.3134 4.21176 63.4909 3.68868L63.4941 3.6793L63.4974 3.66996C63.684 3.14741 63.8523 2.67982 64.0023 2.26738C64.1516 1.84752 64.2672 1.52951 64.3469 1.32017L64.5025 0.911783L64.8792 0.690205C65.1893 0.507781 65.5662 0.384597 65.9288 0.291372C66.3506 0.182907 66.777 0.12607 67.2054 0.12607C67.7912 0.12607 68.3582 0.213226 68.8865 0.414347C69.5091 0.641362 70.0784 1.09028 70.3188 1.82875ZM67.2843 3.60031C67.2813 3.59031 67.2784 3.58036 67.2755 3.57045H67.1914C67.1885 3.5796 67.1855 3.58878 67.1826 3.59798C67.1008 3.85189 67.0104 4.12754 66.9113 4.42493C66.8931 4.47943 66.8748 4.53452 66.8563 4.59018C66.8556 4.59224 66.855 4.5943 66.8543 4.59636C66.8004 4.75889 66.7453 4.9264 66.6889 5.09887C66.656 5.19939 66.6228 5.30159 66.5891 5.40549C66.5727 5.45459 66.5564 5.504 66.5403 5.55371C66.4571 5.80924 66.3766 6.07268 66.2988 6.34402H68.0419C67.9747 6.08337 67.9076 5.82996 67.8404 5.58381C67.8202 5.5097 67.8 5.43625 67.7797 5.36346C67.7549 5.27394 67.7303 5.18574 67.7061 5.09887C67.6631 4.94435 67.6211 4.79403 67.5801 4.64789C67.5576 4.56764 67.5355 4.48865 67.5136 4.41093C67.4328 4.11486 67.3564 3.84466 67.2843 3.60031ZM78.5926 2.49392L78.6872 2.45092C78.8855 2.36076 79.1219 2.28926 79.3482 2.22979C79.6751 2.13618 80.0104 2.08717 80.3511 2.08717C80.8568 2.08717 81.3703 2.16332 81.8396 2.37754C81.9956 2.44584 82.1484 2.53225 82.2905 2.63814C82.3288 2.29854 82.3671 1.95647 82.4054 1.61192L82.4766 0.971363L83.0407 0.659625C83.5687 0.367832 84.1435 0.210118 84.7495 0.210118C85.2781 0.210118 85.8046 0.325979 86.2808 0.608202C86.9962 1.03216 87.2694 1.74974 87.2694 2.43581C87.2694 2.71513 87.2393 3.05942 87.1917 3.44338C87.1518 3.8383 87.0936 4.27785 87.0181 4.76015C86.9502 5.25311 86.8682 5.75862 86.7723 6.27658C86.6768 6.7922 86.5764 7.29443 86.471 7.7832C86.3642 8.2783 86.2504 8.73116 86.1285 9.13905C86.0199 9.53261 85.9026 9.88963 85.771 10.1791L85.6585 10.4267L85.453 10.6048C85.1106 10.9015 84.6773 11.0704 84.3024 11.1806L84.2861 11.1854L84.2697 11.1898C83.8458 11.302 83.4117 11.3573 82.9705 11.3573C82.4289 11.3573 81.8971 11.2814 81.4075 11.0885C81.1356 10.9814 80.8209 10.8121 80.5601 10.5477L80.4942 10.6048C80.1792 10.8778 79.796 11.0493 79.4421 11.1673L79.4242 11.1733L79.4061 11.1787C78.9941 11.3023 78.5635 11.3573 78.1238 11.3573C77.5893 11.3573 77.0697 11.2781 76.5764 11.1048C76.0998 10.9373 75.5159 10.6222 75.2031 9.9966L75.1928 9.97599L75.1833 9.955C75.0514 9.66498 74.9241 9.28193 74.7984 8.84681L74.7974 8.84333L74.7964 8.83985C74.6691 8.38955 74.5387 7.8817 74.4049 7.31788L74.4044 7.31561L74.4038 7.31334C74.2702 6.7407 74.1416 6.14999 74.018 5.54128L74.0157 5.5304L74.0137 5.51948C73.9 4.9037 73.7957 4.30143 73.7008 3.71269C73.6043 3.1148 73.5306 2.56647 73.4809 2.06944L73.4194 1.45398L73.8726 1.0331C74.1387 0.786087 74.4541 0.606333 74.7647 0.469649C75.1659 0.29315 75.59 0.210118 76.0226 0.210118C76.5518 0.210118 77.1046 0.327534 77.5877 0.661116C78.1924 1.06031 78.463 1.68147 78.5546 2.2656C78.5675 2.34273 78.5801 2.41881 78.5926 2.49392ZM78.9531 4.78399C78.9475 4.80928 78.9419 4.83434 78.9363 4.85918C78.8522 5.23272 78.7682 5.57825 78.6841 5.89576L78.46 6.8483C78.4258 6.99381 78.3905 7.14521 78.3543 7.30249C78.3532 7.30729 78.3521 7.3121 78.351 7.31691C78.3104 7.49359 78.2685 7.67766 78.2254 7.86911C78.2242 7.87436 78.2231 7.87962 78.2219 7.88488H78.1518C78.1507 7.87945 78.1495 7.87393 78.1483 7.86833C78.1211 7.73931 78.0896 7.56739 78.0538 7.35258C78.034 7.18807 78.0073 6.98184 77.9737 6.73387C77.9596 6.62993 77.9442 6.51865 77.9277 6.40005C77.8991 6.19515 77.8657 5.95985 77.8273 5.69416C77.8261 5.68546 77.8248 5.67673 77.8236 5.66796C77.7878 5.41982 77.7477 5.14556 77.7036 4.84517C77.6983 4.80922 77.6929 4.77276 77.6874 4.73578C77.5958 4.11975 77.4751 3.36244 77.3254 2.46383C77.2693 2.09963 77.1246 1.84281 76.8911 1.6934C76.667 1.53464 76.3775 1.45526 76.0226 1.45526C75.7518 1.45526 75.4997 1.50663 75.2662 1.60935C75.0327 1.71207 74.8506 1.82414 74.7199 1.94554C74.7666 2.41247 74.8366 2.93543 74.93 3.51442C75.0234 4.09341 75.1261 4.68641 75.2382 5.29342C75.3596 5.89109 75.4857 6.47009 75.6164 7.0304C75.7471 7.58138 75.8732 8.07165 75.9946 8.50123C76.116 8.92146 76.2234 9.23431 76.3168 9.43976C76.4195 9.64521 76.6436 9.80863 76.9892 9.93003C77.3347 10.0514 77.7129 10.1121 78.1238 10.1121C78.46 10.1121 78.7682 10.0701 79.0483 9.98606C79.3285 9.89268 79.5386 9.78528 79.6787 9.66388C79.7367 9.4535 79.7976 9.22057 79.8612 8.9651L79.8626 8.95953C79.8805 8.88791 79.8985 8.81452 79.9168 8.73936C79.9991 8.42679 80.0813 8.09973 80.1636 7.75817C80.1652 7.75143 80.1668 7.74468 80.1685 7.73792C80.178 7.69839 80.1875 7.65866 80.197 7.61873C80.2904 7.21717 80.3791 6.81561 80.4631 6.41405L80.7573 7.59072C80.7734 7.64791 80.7894 7.7044 80.8053 7.76021L80.8064 7.76382C80.8914 8.06206 80.9731 8.34055 81.0515 8.59928C81.0865 8.71506 81.1203 8.82688 81.1527 8.93475C81.2067 9.114 81.257 9.28234 81.3036 9.43976C81.369 9.64521 81.5557 9.80863 81.8639 9.93003C82.1721 10.0514 82.541 10.1121 82.9705 10.1121C83.3067 10.1121 83.6336 10.0701 83.9511 9.98606C84.2686 9.89268 84.4974 9.78528 84.6375 9.66388C84.7309 9.45843 84.8289 9.16894 84.9316 8.79539C85.0437 8.42185 85.1511 7.99694 85.2538 7.52068C85.3566 7.04441 85.4546 6.55413 85.548 6.04985C85.6414 5.54556 85.7207 5.05529 85.7861 4.57902C85.8608 4.10275 85.9169 3.67785 85.9542 3.3043C86.0009 2.93076 86.0243 2.64126 86.0243 2.43581C86.0243 2.08095 85.8982 1.82881 85.646 1.67939C85.3939 1.52997 85.0951 1.45526 84.7495 1.45526C84.3666 1.45526 83.9978 1.55332 83.6429 1.74943C83.5682 2.42181 83.4935 3.08485 83.4188 3.73855C83.3799 4.07376 83.3398 4.41403 83.2984 4.75936C83.2835 4.8839 83.2684 5.0091 83.2531 5.13495C83.2294 5.33093 83.2052 5.5285 83.1806 5.72767C83.1538 5.96946 83.1245 6.2173 83.0928 6.47117C83.0922 6.47597 83.0916 6.48076 83.091 6.48556C83.0357 6.92803 82.973 7.38882 82.903 7.86791C82.9022 7.87357 82.9013 7.87922 82.9005 7.88488H82.8305C82.8296 7.88134 82.8288 7.8778 82.828 7.87427C82.726 7.43927 82.6194 7.02724 82.5083 6.63818C82.4222 6.30968 82.3329 5.97135 82.2403 5.62319C82.2393 5.61924 82.2383 5.6153 82.2372 5.61135C82.2203 5.54773 82.2032 5.48377 82.1861 5.41949C82.1378 5.23835 82.0869 5.04852 82.0334 4.85002C81.9627 4.58803 81.8876 4.31093 81.8079 4.01871C81.7518 3.79458 81.5931 3.62648 81.3316 3.51442C81.0701 3.39302 80.7433 3.33232 80.3511 3.33232C80.1269 3.33232 79.9028 3.365 79.6787 3.43037C79.4639 3.48641 79.3051 3.53777 79.2024 3.58446C79.1152 4.02906 79.0321 4.4289 78.9531 4.78399Z" fill="#453C6A"/>
<path d="M3.33932 3.22725V1.26615H8.00394C8.06931 1.36887 8.12535 1.50428 8.17204 1.67238C8.22807 1.84047 8.25608 2.02257 8.25608 2.21868C8.25608 2.56421 8.1767 2.82102 8.01795 2.98912C7.86853 3.14788 7.66308 3.22725 7.4016 3.22725H3.33932ZM5.91677 1.26615V3.22725H1.25214C1.18677 3.12453 1.12607 2.98912 1.07004 2.82102C1.02335 2.65293 1 2.47083 1 2.27472C1 1.91985 1.07471 1.66304 1.22413 1.50428C1.38288 1.34553 1.593 1.26615 1.85448 1.26615H5.91677ZM3.36733 2.84904H5.81871V9.74092C5.71599 9.76894 5.55723 9.79695 5.34245 9.82497C5.12766 9.85298 4.9082 9.86699 4.68408 9.86699C4.19847 9.86699 3.85761 9.78294 3.6615 9.61485C3.46539 9.43741 3.36733 9.13391 3.36733 8.70434V2.84904Z" fill="white"/>
<path d="M12.5238 3.56344H14.9051V9.67088C14.8024 9.69889 14.653 9.72691 14.4569 9.75493C14.2608 9.78294 14.0506 9.79695 13.8265 9.79695C13.425 9.79695 13.1074 9.68022 12.874 9.44675C12.6405 9.21329 12.5238 8.89578 12.5238 8.49422V3.56344ZM14.9051 7.49966H12.5238V2.56888C12.5238 2.16732 12.6405 1.84981 12.874 1.61635C13.1074 1.38288 13.425 1.26615 13.8265 1.26615C14.0506 1.26615 14.2608 1.28016 14.4569 1.30817C14.653 1.33619 14.8024 1.3642 14.9051 1.39222V7.49966ZM13.8265 6.39303V4.48796H18.0569C18.1223 4.59069 18.1783 4.72143 18.225 4.88018C18.281 5.03894 18.309 5.21637 18.309 5.41248C18.309 5.75801 18.2343 6.01015 18.0849 6.16891C17.9355 6.31833 17.73 6.39303 17.4686 6.39303H13.8265ZM13.8265 9.79695V7.86386H18.5051C18.5705 7.96659 18.6266 8.102 18.6732 8.27009C18.7293 8.43819 18.7573 8.62029 18.7573 8.8164C18.7573 9.16193 18.6826 9.41407 18.5332 9.57282C18.3837 9.72224 18.1783 9.79695 17.9168 9.79695H13.8265ZM13.8265 3.18523V1.26615H18.4491C18.5145 1.36887 18.5705 1.49961 18.6172 1.65837C18.6732 1.81713 18.7013 1.99456 18.7013 2.19067C18.7013 2.5362 18.6266 2.78834 18.4771 2.9471C18.3277 3.10585 18.1223 3.18523 17.8608 3.18523H13.8265Z" fill="white"/>
<path d="M29.8654 2.49884C29.8654 2.73231 29.8047 2.94243 29.6833 3.1292C29.5619 3.30663 29.4219 3.44671 29.2631 3.54943C29.0296 3.39068 28.7728 3.25527 28.4927 3.14321C28.2125 3.03114 27.8903 2.97511 27.5261 2.97511C27.0499 2.97511 26.6436 3.07784 26.3074 3.28328C25.9806 3.47939 25.7284 3.76889 25.551 4.15177C25.3829 4.52532 25.2989 4.97824 25.2989 5.51054C25.2989 6.33233 25.5043 6.95802 25.9152 7.38759C26.3354 7.81717 26.9144 8.03196 27.6522 8.03196C28.0351 8.03196 28.3573 7.9806 28.6187 7.87787C28.8896 7.77515 29.1464 7.65841 29.3892 7.52767C29.5479 7.64908 29.6693 7.80316 29.7534 7.98993C29.8468 8.1767 29.8934 8.39149 29.8934 8.6343C29.8934 8.84908 29.8374 9.04519 29.7254 9.22263C29.6133 9.40006 29.4219 9.54948 29.151 9.67088C28.9829 9.74559 28.7448 9.8203 28.4366 9.89501C28.1285 9.96971 27.7549 10.0071 27.316 10.0071C26.4755 10.0071 25.7098 9.84831 25.0187 9.5308C24.337 9.21329 23.7907 8.72301 23.3798 8.05997C22.9782 7.39693 22.7774 6.54712 22.7774 5.51054C22.7774 4.53933 22.9736 3.7222 23.3658 3.05916C23.758 2.38678 24.2856 1.87783 24.9487 1.5323C25.621 1.17743 26.3588 1 27.1619 1C27.7316 1 28.2172 1.06537 28.6187 1.19611C29.0203 1.32685 29.3285 1.50428 29.5433 1.72841C29.758 1.95254 29.8654 2.20935 29.8654 2.49884Z" fill="white"/>
<path d="M34.282 3.56344H36.7333V9.74092C36.6306 9.76894 36.4719 9.79695 36.2571 9.82497C36.0423 9.85298 35.8228 9.86699 35.5987 9.86699C35.1131 9.86699 34.7722 9.78294 34.5761 9.61485C34.38 9.43741 34.282 9.13391 34.282 8.70434V3.56344ZM36.7333 6.79926H34.282V1.23813C34.394 1.21946 34.5575 1.19611 34.7722 1.16809C34.9964 1.13074 35.2112 1.11206 35.4166 1.11206C35.8835 1.11206 36.2197 1.19144 36.4252 1.3502C36.6306 1.50895 36.7333 1.81713 36.7333 2.27472V6.79926ZM39.4229 3.56344H41.8742V9.74092C41.7715 9.76894 41.6128 9.79695 41.398 9.82497C41.1832 9.85298 40.9637 9.86699 40.7396 9.86699C40.254 9.86699 39.9131 9.78294 39.717 9.61485C39.5209 9.43741 39.4229 9.13391 39.4229 8.70434V3.56344ZM41.8742 6.79926H39.4229V1.23813C39.5349 1.21946 39.6983 1.19611 39.9131 1.16809C40.1373 1.13074 40.3521 1.11206 40.5575 1.11206C41.0244 1.11206 41.3606 1.19611 41.5661 1.3642C41.7715 1.5323 41.8742 1.84514 41.8742 2.30273V6.79926ZM40.8377 6.47708H35.3326V4.54399H40.8377V6.47708Z" fill="white"/>
<path d="M55.0987 5.20236H55.771C56.1539 5.20236 56.4621 5.10898 56.6956 4.92221C56.9384 4.7261 57.0598 4.45061 57.0598 4.09574C57.0598 3.74088 56.9477 3.47006 56.7236 3.28328C56.5088 3.08717 56.1913 2.98912 55.771 2.98912C55.6216 2.98912 55.4956 2.99379 55.3928 3.00313C55.2994 3.00313 55.2014 3.01247 55.0987 3.03114V5.20236ZM55.9251 7.12144H52.6613V2.0646C52.6613 1.86849 52.7173 1.71907 52.8294 1.61635C52.9415 1.50428 53.0862 1.41557 53.2636 1.3502C53.5811 1.23813 53.9594 1.15876 54.3983 1.11206C54.8372 1.05603 55.2294 1.02802 55.5749 1.02802C56.8543 1.02802 57.8349 1.3035 58.5166 1.85448C59.2076 2.40546 59.5532 3.15254 59.5532 4.09574C59.5532 4.70275 59.4038 5.23505 59.1049 5.69264C58.8061 6.14089 58.3859 6.49109 57.8442 6.74323C57.3026 6.99537 56.6629 7.12144 55.9251 7.12144ZM52.6613 6.05685H55.1127V9.74092C55.0099 9.76894 54.8512 9.79695 54.6364 9.82497C54.4216 9.85298 54.2022 9.86699 53.978 9.86699C53.4924 9.86699 53.1516 9.78294 52.9555 9.61485C52.7593 9.43741 52.6613 9.13391 52.6613 8.70434V6.05685Z" fill="white"/>
<path d="M67.0303 3.32531H66.9463C66.8622 3.58679 66.7688 3.87162 66.6661 4.17979C66.5634 4.48796 66.456 4.81481 66.3439 5.16034C66.2319 5.49653 66.1245 5.84673 66.0218 6.21093L65.7136 7.79382C65.6575 7.98059 65.6062 8.1627 65.5595 8.34013C65.5221 8.51756 65.4801 8.68566 65.4334 8.84441C65.3961 9.00317 65.3587 9.15726 65.3214 9.30667C65.284 9.45609 65.2466 9.60084 65.2093 9.74092C65.0879 9.77827 64.9525 9.81563 64.8031 9.85298C64.6536 9.89034 64.4762 9.90901 64.2708 9.90901C63.8038 9.90901 63.4536 9.82963 63.2202 9.67088C62.9867 9.50278 62.87 9.27399 62.87 8.98449C62.87 8.85375 62.8887 8.72301 62.926 8.59227C62.9634 8.46153 63.0054 8.30745 63.0521 8.13001C63.1268 7.83118 63.2389 7.4483 63.3883 6.98137C63.5377 6.5051 63.7011 5.99615 63.8785 5.45451C64.0653 4.90353 64.2474 4.36656 64.4249 3.8436C64.6116 3.32064 64.7797 2.85371 64.9291 2.44281C65.0786 2.02258 65.1906 1.7144 65.2653 1.51829C65.4241 1.42491 65.6669 1.33619 65.9937 1.25214C66.3206 1.16809 66.6428 1.12607 66.9603 1.12607C67.4272 1.12607 67.8428 1.19611 68.207 1.33619C68.5712 1.46693 68.8 1.68172 68.8934 1.98055C69.0615 2.45682 69.2389 3.01714 69.4257 3.6615C69.6218 4.29652 69.8179 4.96423 70.014 5.66463C70.2195 6.35568 70.4156 7.03273 70.6023 7.69577C70.7891 8.34947 70.9525 8.9378 71.0926 9.46076C70.9805 9.58216 70.8124 9.68489 70.5883 9.76893C70.3642 9.85298 70.098 9.89501 69.7899 9.89501C69.3323 9.89501 69.0148 9.8203 68.8373 9.67088C68.6599 9.51212 68.5292 9.27399 68.4451 8.95648L68.0949 7.61172L67.8148 6.16891C67.7214 5.8047 67.628 5.45451 67.5346 5.11832C67.4412 4.78213 67.3525 4.46462 67.2685 4.16578C67.1844 3.85761 67.105 3.57745 67.0303 3.32531ZM64.663 7.98993L65.6295 6.09887H68.7113L69.0054 7.98993H64.663Z" fill="white"/>
<path d="M78.9573 3.33932C79.06 3.29262 79.2188 3.24126 79.4335 3.18523C79.6577 3.11986 79.8818 3.08717 80.1059 3.08717C80.4981 3.08717 80.825 3.14788 81.0865 3.26928C81.3479 3.38134 81.5067 3.54943 81.5627 3.77356C81.7028 4.28718 81.8289 4.75411 81.941 5.17435C82.053 5.59459 82.1604 6.00081 82.2631 6.39303C82.3752 6.78526 82.4826 7.20082 82.5853 7.63974H82.6553C82.7674 6.87397 82.8608 6.1549 82.9355 5.48252C83.0196 4.80081 83.0989 4.13777 83.1736 3.4934C83.2484 2.8397 83.3231 2.17666 83.3978 1.50428C83.7526 1.30817 84.1215 1.21012 84.5044 1.21012C84.8499 1.21012 85.1488 1.28483 85.4009 1.43424C85.653 1.58366 85.7791 1.8358 85.7791 2.19067C85.7791 2.39612 85.7558 2.68562 85.7091 3.05916C85.6717 3.4327 85.6157 3.85761 85.541 4.33388C85.4756 4.81014 85.3962 5.30042 85.3028 5.8047C85.2095 6.30899 85.1114 6.79926 85.0087 7.27553C84.906 7.7518 84.7986 8.17671 84.6865 8.55025C84.5838 8.92379 84.4857 9.21329 84.3923 9.41874C84.2523 9.54014 84.0235 9.64753 83.7059 9.74092C83.3884 9.82497 83.0616 9.86699 82.7254 9.86699C82.2958 9.86699 81.9269 9.80629 81.6188 9.68489C81.3106 9.56349 81.1238 9.40006 81.0584 9.19461C80.9837 8.94247 80.8997 8.66231 80.8063 8.35414C80.7129 8.04596 80.6149 7.70977 80.5121 7.34557C80.4188 6.97203 80.3207 6.57981 80.218 6.16891C80.1339 6.57047 80.0452 6.97203 79.9518 7.37359C79.8584 7.76581 79.7651 8.13935 79.6717 8.49422C79.5876 8.83975 79.5082 9.14792 79.4335 9.41874C79.2935 9.54014 79.0833 9.64753 78.8032 9.74092C78.523 9.82497 78.2149 9.86699 77.8787 9.86699C77.4678 9.86699 77.0896 9.80629 76.744 9.68489C76.3985 9.56349 76.1744 9.40006 76.0716 9.19461C75.9783 8.98916 75.8709 8.67632 75.7495 8.25608C75.6281 7.82651 75.502 7.33623 75.3713 6.78525C75.2405 6.22494 75.1144 5.64595 74.993 5.04828C74.881 4.44127 74.7783 3.84827 74.6849 3.26928C74.5915 2.69028 74.5214 2.16732 74.4747 1.70039C74.6055 1.57899 74.7876 1.46693 75.0211 1.3642C75.2545 1.26148 75.5067 1.21012 75.7775 1.21012C76.1323 1.21012 76.4218 1.2895 76.646 1.44825C76.8794 1.59767 77.0242 1.85448 77.0802 2.21868C77.239 3.17122 77.365 3.965 77.4584 4.60003C77.5518 5.23505 77.6265 5.75334 77.6825 6.1549C77.7386 6.55646 77.7806 6.87397 77.8086 7.10744C77.846 7.33156 77.8787 7.509 77.9067 7.63974H77.9767C78.0608 7.26619 78.1402 6.92066 78.2149 6.60315C78.2896 6.28564 78.3643 5.96813 78.439 5.65062C78.523 5.3331 78.6071 4.98758 78.6911 4.61403C78.7752 4.24049 78.8639 3.81558 78.9573 3.33932Z" fill="white"/>
</svg>
