<svg width="2293" height="368" viewBox="0 0 2293 368" fill="none" xmlns="http://www.w3.org/2000/svg">
<path fill-rule="evenodd" clip-rule="evenodd" d="M107.765 144.468H133.703V151.353H107.664L107.669 177.865H100.966L100.918 151.353H74.8369V144.468L101.009 144.521L101.004 117.406H107.707L107.765 144.468Z" fill="black"/>
<path fill-rule="evenodd" clip-rule="evenodd" d="M75.5864 268.416H87.2434V265.211H79.5592V248.064H75.5864V268.416Z" fill="black"/>
<path fill-rule="evenodd" clip-rule="evenodd" d="M274.826 268.416H286.568V265.211H278.798V259.494H285.859V256.288H278.798V251.27H286.515V248.064H274.826V268.416Z" fill="black"/>
<path fill-rule="evenodd" clip-rule="evenodd" d="M169.063 311.348H173.036V302.425H180.976V311.348H184.949V290.996H180.976V299.22H173.036V290.996H169.063V311.348Z" fill="black"/>
<path fill-rule="evenodd" clip-rule="evenodd" d="M477.321 52.6045H503.066V120.951C503.066 132.29 510.276 138.338 521.309 138.338C532.342 138.338 539.546 132.29 539.546 120.951V52.6045H565.297V120.951C565.297 145.292 547.935 162.53 521.453 162.53C494.678 162.53 477.321 145.292 477.321 120.951V52.6045Z" fill="black"/>
<path fill-rule="evenodd" clip-rule="evenodd" d="M592.944 52.6045H618.983L648.11 103.106C652.232 110.215 656.935 121.554 656.935 121.554H657.234C657.234 121.554 656.055 109.911 656.055 103.106V52.6045H681.801V160.716H655.911L626.635 110.364C622.513 103.26 617.81 91.9218 617.81 91.9218H617.511C617.511 91.9218 618.69 103.559 618.69 110.364V160.716H592.944V52.6045Z" fill="black"/>
<path fill-rule="evenodd" clip-rule="evenodd" d="M710.623 160.719H736.368V52.6074H710.623V160.719Z" fill="black"/>
<path fill-rule="evenodd" clip-rule="evenodd" d="M753.434 54.4199H764.323L793.007 135.161C794.921 140.607 796.98 148.921 796.98 148.921H797.273C797.273 148.921 799.331 140.607 801.246 135.161L829.935 54.4199H840.819L802.424 160.719H791.828L753.434 54.4199Z" fill="black"/>
<path fill-rule="evenodd" clip-rule="evenodd" d="M861.999 54.4199H920.257V63.7959H872.152V102.505H911.432V111.876H872.152V151.343H922.902V160.719H861.999V54.4199Z" fill="black"/>
<path fill-rule="evenodd" clip-rule="evenodd" d="M981.742 106.587C994.247 106.587 1002.19 98.2672 1002.19 84.9659C1002.19 76.1925 998.806 69.6912 992.775 66.3632C989.687 64.6992 986.008 63.7979 978.062 63.7979H957.175V106.587H981.742ZM947.021 54.4219H977.625C988.215 54.4219 992.924 55.4779 997.041 57.2912C1006.75 61.6805 1012.63 71.8085 1012.63 84.6619C1012.63 99.0245 1004.69 110.065 993.073 113.387V113.697C993.073 113.697 994.097 115.051 995.718 117.926L1018.23 160.715H1006.61L983.213 115.963H957.175V160.715H947.021V54.4219Z" fill="black"/>
<path fill-rule="evenodd" clip-rule="evenodd" d="M1041.46 140.91C1041.46 140.91 1052.2 152.553 1068.53 152.553C1079.86 152.553 1089.13 145.598 1089.13 134.105C1089.13 107.342 1037.49 114.148 1037.49 81.1824C1037.49 65.9131 1050.58 52.6064 1069.71 52.6064C1087.66 52.6064 1097.37 62.8891 1097.37 62.8891L1092.36 71.6571C1092.36 71.6571 1083.25 62.5851 1069.71 62.5851C1056.47 62.5851 1047.94 71.5078 1047.94 80.8838C1047.94 106.132 1099.57 98.8731 1099.57 133.801C1099.57 149.678 1087.66 162.532 1068.24 162.532C1047.05 162.532 1035.43 148.921 1035.43 148.921L1041.46 140.91Z" fill="black"/>
<path fill-rule="evenodd" clip-rule="evenodd" d="M1126.19 160.719H1136.35V54.4199H1126.19V160.719Z" fill="black"/>
<path fill-rule="evenodd" clip-rule="evenodd" d="M1194.16 63.7949H1156.94V54.4189H1241.38V63.7949H1204.31V160.718H1194.16V63.7949Z" fill="black"/>
<path fill-rule="evenodd" clip-rule="evenodd" d="M1264.92 29.0195H1276.54L1286.69 47.0142H1277.57L1264.92 29.0195ZM1281.84 65.4622C1281.84 65.4622 1279.63 74.2302 1277.86 79.2169L1264.03 117.777H1299.64L1286.1 79.2169C1284.34 74.2302 1282.13 65.4622 1282.13 65.4622H1281.84ZM1302.72 126.849H1261.09L1249.32 160.716H1238.58L1276.54 54.4222H1287.43L1325.38 160.716H1314.64L1302.72 126.849Z" fill="black"/>
<path fill-rule="evenodd" clip-rule="evenodd" d="M1425.71 151.342C1451.15 151.342 1468.07 135.918 1468.07 107.491C1468.07 79.2189 1451 63.7949 1425.71 63.7949H1403.49V151.342H1425.71ZM1393.34 54.4189H1426.73C1457.78 54.4189 1478.67 73.9229 1478.67 107.491C1478.67 141.363 1457.78 160.718 1426.73 160.718H1393.34V54.4189Z" fill="black"/>
<path fill-rule="evenodd" clip-rule="evenodd" d="M1506.76 54.4199H1565.01V63.7959H1516.9V102.505H1556.19V111.876H1516.9V151.343H1567.66V160.719H1506.76V54.4199Z" fill="black"/>
<path fill-rule="evenodd" clip-rule="evenodd" d="M1634.74 52.6045C1658.72 52.6045 1671.52 65.0045 1671.52 65.0045L1666.08 72.8658C1666.08 72.8658 1654.01 62.2792 1635.18 62.2792C1610.17 62.2792 1593.26 82.0925 1593.26 107.34C1593.26 133.5 1610.76 152.855 1634.3 152.855C1654.45 152.855 1666.81 137.276 1666.81 137.276V119.287H1649.16V109.911H1676.52V160.716H1667.1V152.706C1667.1 150.434 1667.26 148.167 1667.26 148.167H1666.96C1666.96 148.167 1655.04 162.53 1633.27 162.53C1605.02 162.53 1582.66 139.095 1582.66 107.495C1582.66 76.7965 1605.03 52.6045 1634.74 52.6045Z" fill="black"/>
<path fill-rule="evenodd" clip-rule="evenodd" d="M1706.52 54.4199H1716.67V151.343H1764.63V160.719H1706.52V54.4199Z" fill="black"/>
<path fill-rule="evenodd" clip-rule="evenodd" d="M1786.39 160.719H1796.54V54.4199H1786.39V160.719Z" fill="black"/>
<path fill-rule="evenodd" clip-rule="evenodd" d="M1875.98 140.91C1875.98 140.91 1886.72 152.553 1903.05 152.553C1914.38 152.553 1923.65 145.598 1923.65 134.105C1923.65 107.342 1872.01 114.148 1872.01 81.1824C1872.01 65.9131 1885.1 52.6064 1904.23 52.6064C1922.18 52.6064 1931.89 62.8891 1931.89 62.8891L1926.88 71.6571C1926.88 71.6571 1917.77 62.5851 1904.23 62.5851C1890.99 62.5851 1882.46 71.5078 1882.46 80.8838C1882.46 106.132 1934.09 98.8731 1934.09 133.801C1934.09 149.678 1922.18 162.532 1902.76 162.532C1881.57 162.532 1869.95 148.921 1869.95 148.921L1875.98 140.91Z" fill="black"/>
<path fill-rule="evenodd" clip-rule="evenodd" d="M1987.34 63.7949H1950.13V54.4189H2034.56V63.7949H1997.49V160.718H1987.34V63.7949Z" fill="black"/>
<path fill-rule="evenodd" clip-rule="evenodd" d="M2054.71 54.4199H2065.02V123.524C2065.02 141.817 2076.49 152.857 2094.29 152.857C2112.09 152.857 2123.71 141.817 2123.71 123.215V54.4199H2133.86V123.673C2133.86 147.257 2117.82 162.532 2094.44 162.532C2070.9 162.532 2054.71 147.257 2054.71 123.673V54.4199Z" fill="black"/>
<path fill-rule="evenodd" clip-rule="evenodd" d="M2199.32 151.342C2224.77 151.342 2241.69 135.918 2241.69 107.491C2241.69 79.2189 2224.62 63.7949 2199.32 63.7949H2177.11V151.342H2199.32ZM2166.95 54.4189H2200.35C2231.39 54.4189 2252.29 73.9229 2252.29 107.491C2252.29 141.363 2231.39 160.718 2200.35 160.718H2166.95V54.4189Z" fill="black"/>
<path fill-rule="evenodd" clip-rule="evenodd" d="M2280.37 160.719H2290.52V54.4199H2280.37V160.719Z" fill="black"/>
<path fill-rule="evenodd" clip-rule="evenodd" d="M513.805 309.801C539.257 309.801 556.172 294.377 556.172 265.95C556.172 237.678 539.108 222.254 513.805 222.254H491.59V309.801H513.805ZM481.442 212.878H514.834C545.875 212.878 566.768 232.382 566.768 265.95C566.768 299.822 545.875 319.177 514.834 319.177H481.442V212.878Z" fill="black"/>
<path fill-rule="evenodd" clip-rule="evenodd" d="M594.853 319.178H605.006V212.879H594.853V319.178Z" fill="black"/>
<path fill-rule="evenodd" clip-rule="evenodd" d="M731.666 209.248C757.705 209.248 771.095 224.517 771.095 224.517L759.177 244.48C759.177 244.48 747.408 233.44 732.845 233.44C712.687 233.44 703.126 248.709 703.126 264.288C703.126 280.315 713.423 296.795 732.845 296.795C748.73 296.795 760.792 283.493 760.792 283.493L774.033 302.848C774.033 302.848 759.177 320.987 731.666 320.987C698.711 320.987 676.495 296.944 676.495 264.896C676.495 233.44 700.033 209.248 731.666 209.248Z" fill="black"/>
<path fill-rule="evenodd" clip-rule="evenodd" d="M832.579 235.712C832.579 235.712 830.227 247.504 828.313 254.309L822.282 275.328H843.026L837.138 254.309C835.229 247.504 832.872 235.712 832.872 235.712H832.579ZM849.057 296.49H816.245L809.921 319.173H783.445L819.189 211.066H846.257L882.012 319.173H855.53L849.057 296.49Z" fill="black"/>
<path fill-rule="evenodd" clip-rule="evenodd" d="M942.469 211.066C966.45 211.066 979.242 223.461 979.242 223.461L973.803 231.328C973.803 231.328 961.741 220.741 942.912 220.741C917.902 220.741 900.982 240.549 900.982 265.802C900.982 291.957 918.489 311.312 942.027 311.312C962.178 311.312 974.539 295.738 974.539 295.738V277.744H956.883V268.368H984.25V319.178H974.832V311.162C974.832 308.896 974.982 306.624 974.982 306.624H974.688C974.688 306.624 962.77 320.986 940.997 320.986C912.751 320.986 890.386 297.557 890.386 265.952C890.386 235.258 912.751 211.066 942.469 211.066Z" fill="black"/>
<path fill-rule="evenodd" clip-rule="evenodd" d="M1014.25 212.879H1024.4V309.802H1072.36V319.178H1014.25V212.879Z" fill="black"/>
<path fill-rule="evenodd" clip-rule="evenodd" d="M1094.12 319.178H1104.28V212.879H1094.12V319.178Z" fill="black"/>
<path fill-rule="evenodd" clip-rule="evenodd" d="M1168.57 223.915C1168.57 223.915 1166.36 232.688 1164.59 237.675L1150.77 276.235H1186.37L1172.83 237.675C1171.07 232.688 1168.86 223.915 1168.86 223.915H1168.57ZM1189.45 285.307H1147.82L1136.05 319.173H1125.31L1163.27 212.88H1174.15L1212.11 319.173H1201.37L1189.45 285.307Z" fill="black"/>
<path fill-rule="evenodd" clip-rule="evenodd" d="M1268.16 265.045C1280.66 265.045 1288.6 256.725 1288.6 243.419C1288.6 234.656 1285.21 228.149 1279.18 224.827C1276.1 223.157 1272.42 222.256 1264.48 222.256H1243.59V265.045H1268.16ZM1233.43 212.88H1264.03C1274.62 212.88 1279.33 213.936 1283.46 215.755C1293.16 220.139 1299.05 230.267 1299.05 243.12C1299.05 257.483 1291.1 268.523 1279.48 271.845V272.149C1279.48 272.149 1280.51 273.515 1282.13 276.384L1304.64 319.173H1293.02L1269.62 274.421H1243.59V319.173H1233.43V212.88Z" fill="black"/>
<path fill-rule="evenodd" clip-rule="evenodd" d="M1329.49 319.178H1339.65V212.879H1329.49V319.178Z" fill="black"/>
<path fill-rule="evenodd" clip-rule="evenodd" d="M86.0007 163.372C84.0863 162.311 82.3639 161.665 81.756 161.452C81.468 163.057 80.4548 169.505 81.8679 170.327C82.9824 170.983 84.7155 171.313 86.006 171.271C86.102 171.265 86.214 171.361 86.23 171.457L86.6992 174.7C88.6403 174.039 93.4503 171.969 92.2024 169.217C91.0453 166.663 88.395 164.705 86.0007 163.372Z" fill="black"/>
<path fill-rule="evenodd" clip-rule="evenodd" d="M87.3086 160.949C84.9676 159.488 83.0478 158.747 83.0478 158.747C82.9039 158.693 82.8559 158.549 82.9412 158.416C83.6398 157.541 84.4023 157.013 85.2022 156.693C86.754 156.075 89.095 155.957 92.3372 157.824C94.9021 159.296 95.4247 161.739 95.3181 163.771C95.2061 165.797 94.4702 167.467 94.4702 167.467C94.3795 167.669 94.1929 167.68 94.0862 167.493C92.4118 164.603 89.6602 162.416 87.3086 160.949Z" fill="black"/>
<path fill-rule="evenodd" clip-rule="evenodd" d="M119.409 163.372C117.494 162.311 115.772 161.665 115.164 161.452C114.876 163.057 113.863 169.505 115.276 170.327C116.391 170.983 118.124 171.313 119.414 171.271C119.516 171.265 119.622 171.361 119.638 171.457L120.107 174.7C122.048 174.039 126.864 171.969 125.611 169.217C124.453 166.663 121.803 164.705 119.409 163.372Z" fill="black"/>
<path fill-rule="evenodd" clip-rule="evenodd" d="M116.882 158.443C120.849 160.107 125.318 163.163 127.638 166.886C128.16 165.451 129.573 160.534 125.531 158.208C122.865 156.678 119.138 155.782 116.882 158.443Z" fill="black"/>
<path fill-rule="evenodd" clip-rule="evenodd" d="M86.0007 128.33C84.0863 127.269 82.3639 126.623 81.756 126.41C81.468 128.015 80.4548 134.463 81.8679 135.29C82.9824 135.941 84.7155 136.271 86.006 136.229C86.102 136.223 86.214 136.319 86.23 136.415L86.6992 139.653C88.6403 138.991 93.4503 136.927 92.2024 134.175C91.0453 131.621 88.395 129.658 86.0007 128.33Z" fill="black"/>
<path fill-rule="evenodd" clip-rule="evenodd" d="M83.4727 123.401C87.4401 125.065 91.9088 128.121 94.2284 131.844C94.751 130.409 96.1641 125.492 92.1221 123.166C89.4558 121.636 85.7337 120.745 83.4727 123.401Z" fill="black"/>
<path fill-rule="evenodd" clip-rule="evenodd" d="M119.409 128.33C117.494 127.269 115.772 126.623 115.164 126.41C114.876 128.015 113.863 134.463 115.276 135.29C116.391 135.941 118.124 136.271 119.414 136.229C119.516 136.223 119.622 136.319 119.638 136.415L120.107 139.653C122.048 138.991 126.864 136.927 125.611 134.175C124.453 131.621 121.803 129.658 119.409 128.33Z" fill="black"/>
<path fill-rule="evenodd" clip-rule="evenodd" d="M116.882 123.401C120.849 125.065 125.318 128.121 127.638 131.844C128.16 130.409 129.573 125.492 125.531 123.166C122.865 121.636 119.138 120.74 116.882 123.401Z" fill="black"/>
<path fill-rule="evenodd" clip-rule="evenodd" d="M59.1777 148.045C59.2577 148.13 59.2577 148.274 59.1777 148.36L53.6158 154.077C53.5359 154.162 53.3919 154.162 53.3119 154.077L47.75 148.36C47.6647 148.274 47.6647 148.125 47.75 148.045L53.3119 142.328C53.3919 142.242 53.5359 142.242 53.6158 142.328L59.1777 148.045Z" fill="black"/>
<path fill-rule="evenodd" clip-rule="evenodd" d="M161.139 148.045C161.219 148.13 161.219 148.274 161.139 148.36L155.578 154.077C155.498 154.162 155.354 154.162 155.274 154.077L149.706 148.36C149.626 148.274 149.626 148.125 149.706 148.045L155.274 142.328C155.354 142.242 155.498 142.242 155.578 142.328L161.139 148.045Z" fill="black"/>
<path fill-rule="evenodd" clip-rule="evenodd" d="M109.862 200.511C109.942 200.596 109.942 200.74 109.862 200.825L104.3 206.543C104.22 206.628 104.076 206.628 103.996 206.543L98.4291 200.825C98.3491 200.74 98.3491 200.591 98.4291 200.511L103.996 194.793C104.076 194.708 104.22 194.708 104.3 194.793L109.862 200.511Z" fill="black"/>
<path fill-rule="evenodd" clip-rule="evenodd" d="M145.819 182.018C145.936 182.018 146.037 182.124 146.037 182.242V190.327C146.037 190.444 145.936 190.551 145.819 190.551H137.953C137.836 190.551 137.734 190.444 137.734 190.327V182.242C137.734 182.124 137.836 182.018 137.953 182.018H145.819Z" fill="black"/>
<path fill-rule="evenodd" clip-rule="evenodd" d="M71.1096 182.018C71.2269 182.018 71.3282 182.124 71.3282 182.242V190.327C71.3282 190.444 71.2269 190.551 71.1096 190.551H63.244C63.1267 190.551 63.0254 190.444 63.0254 190.327V182.242C63.0254 182.124 63.1267 182.018 63.244 182.018H71.1096Z" fill="black"/>
<path fill-rule="evenodd" clip-rule="evenodd" d="M98.1346 182.713C98.8812 181.214 100.668 180.617 102.123 181.38C103.585 182.142 104.166 183.982 103.425 185.481C102.678 186.985 100.892 187.582 99.4304 186.814C97.9693 186.052 97.3881 184.212 98.1346 182.713Z" fill="black"/>
<path fill-rule="evenodd" clip-rule="evenodd" d="M102.409 188.283C102.943 188.208 103.359 188.432 103.401 188.981C100.596 194.341 96.2876 198.485 89.158 198.485C80.9032 198.485 77.7143 194.331 74.9414 189.104C74.9574 188.432 75.3733 188.208 75.7466 188.208C78.9888 191.808 84.4867 193.168 89.158 193.168C93.8347 193.168 99.3272 191.808 102.409 188.283Z" fill="black"/>
<path fill-rule="evenodd" clip-rule="evenodd" d="M105.968 182.713C106.715 181.214 108.501 180.617 109.957 181.38C111.418 182.142 111.999 183.982 111.258 185.481C110.511 186.985 108.725 187.582 107.264 186.814C105.803 186.052 105.222 184.212 105.968 182.713Z" fill="black"/>
<path fill-rule="evenodd" clip-rule="evenodd" d="M133.187 188.283C133.72 188.208 134.136 188.432 134.179 188.981C131.379 194.341 127.065 198.485 119.935 198.485C111.681 198.485 108.492 194.331 105.719 189.104C105.735 188.432 106.151 188.208 106.524 188.208C109.766 191.808 115.264 193.168 119.935 193.168C124.612 193.168 130.105 191.808 133.187 188.283Z" fill="black"/>
<path fill-rule="evenodd" clip-rule="evenodd" d="M70.2821 141.624C71.7432 142.386 72.3244 144.226 71.5779 145.725C70.8367 147.224 69.0503 147.821 67.5891 147.058C66.128 146.29 65.5468 144.456 66.2933 142.957C67.0345 141.453 68.821 140.861 70.2821 141.624Z" fill="black"/>
<path fill-rule="evenodd" clip-rule="evenodd" d="M70.2821 118.042C71.7432 118.804 72.3244 120.644 71.5779 122.143C70.8367 123.642 69.0503 124.239 67.5891 123.476C66.128 122.708 65.5468 120.874 66.2933 119.375C67.0345 117.871 68.821 117.279 70.2821 118.042Z" fill="black"/>
<path fill-rule="evenodd" clip-rule="evenodd" d="M65.2325 145.744C65.3018 146.294 65.0832 146.72 64.5553 146.763C59.3347 143.883 55.3086 139.451 55.3086 132.123C55.3086 123.638 59.3453 120.363 64.4326 117.51C65.0832 117.531 65.3018 117.958 65.3018 118.342C61.8036 121.675 60.4758 127.323 60.4758 132.123C60.4758 136.928 61.8036 142.576 65.2325 145.744Z" fill="black"/>
<path fill-rule="evenodd" clip-rule="evenodd" d="M70.2821 173.258C71.7432 174.021 72.3244 175.861 71.5779 177.36C70.8367 178.858 69.0503 179.456 67.5891 178.693C66.128 177.925 65.5468 176.09 66.2933 174.592C67.0345 173.088 68.821 172.496 70.2821 173.258Z" fill="black"/>
<path fill-rule="evenodd" clip-rule="evenodd" d="M70.2821 149.674C71.7432 150.437 72.3244 152.277 71.5779 153.776C70.8367 155.274 69.0503 155.872 67.5891 155.109C66.128 154.341 65.5468 152.506 66.2933 151.008C67.0345 149.509 68.821 148.912 70.2821 149.674Z" fill="black"/>
<path fill-rule="evenodd" clip-rule="evenodd" d="M65.2325 177.379C65.3018 177.929 65.0832 178.355 64.5553 178.398C59.3347 175.518 55.3086 171.086 55.3086 163.758C55.3086 155.273 59.3453 151.998 64.4326 149.145C65.0832 149.166 65.3018 149.593 65.3018 149.977C61.8036 153.31 60.4758 158.958 60.4758 163.758C60.4758 168.563 61.8036 174.211 65.2325 177.379Z" fill="black"/>
<path fill-rule="evenodd" clip-rule="evenodd" d="M138.14 141.624C139.601 140.861 141.387 141.453 142.134 142.957C142.875 144.456 142.294 146.29 140.833 147.058C139.377 147.821 137.585 147.224 136.844 145.725C136.098 144.226 136.679 142.386 138.14 141.624Z" fill="black"/>
<path fill-rule="evenodd" clip-rule="evenodd" d="M138.14 118.042C139.601 117.279 141.387 117.871 142.134 119.375C142.875 120.874 142.294 122.708 140.833 123.476C139.377 124.239 137.585 123.642 136.844 122.143C136.098 120.644 136.679 118.804 138.14 118.042Z" fill="black"/>
<path fill-rule="evenodd" clip-rule="evenodd" d="M143.459 145.745C146.888 142.577 148.216 136.929 148.216 132.123C148.216 127.323 146.888 121.675 143.459 118.507C143.39 117.958 143.608 117.531 144.136 117.483C149.346 120.363 153.383 123.638 153.383 132.123C153.383 139.451 149.357 143.883 144.259 146.737C143.608 146.721 143.39 146.294 143.39 145.91L143.459 145.745Z" fill="black"/>
<path fill-rule="evenodd" clip-rule="evenodd" d="M138.14 173.258C139.601 172.496 141.387 173.088 142.134 174.592C142.875 176.09 142.294 177.925 140.833 178.693C139.377 179.456 137.585 178.858 136.844 177.36C136.098 175.861 136.679 174.021 138.14 173.258Z" fill="black"/>
<path fill-rule="evenodd" clip-rule="evenodd" d="M138.14 149.674C139.601 148.912 141.387 149.509 142.134 151.008C142.875 152.506 142.294 154.341 140.833 155.109C139.377 155.872 137.585 155.274 136.844 153.776C136.098 152.277 136.679 150.437 138.14 149.674Z" fill="black"/>
<path fill-rule="evenodd" clip-rule="evenodd" d="M143.459 177.379C146.888 174.211 148.216 168.563 148.216 163.758C148.216 158.958 146.888 153.31 143.459 150.142C143.39 149.593 143.608 149.166 144.136 149.118C149.346 151.998 153.383 155.273 153.383 163.758C153.383 171.086 149.357 175.518 144.259 178.371C143.608 178.355 143.39 177.929 143.39 177.545L143.459 177.379Z" fill="black"/>
<path fill-rule="evenodd" clip-rule="evenodd" d="M132.298 99.0177C133.519 99.6577 134.005 101.194 133.381 102.447C132.762 103.706 131.264 104.202 130.043 103.562C128.822 102.922 128.336 101.386 128.96 100.132C129.584 98.879 131.077 98.3777 132.298 99.0177Z" fill="black"/>
<path fill-rule="evenodd" clip-rule="evenodd" d="M137.8 101.9C139.021 102.54 139.507 104.076 138.883 105.33C138.264 106.588 136.766 107.084 135.545 106.444C134.323 105.804 133.838 104.268 134.462 103.015C135.086 101.762 136.579 101.26 137.8 101.9Z" fill="black"/>
<path fill-rule="evenodd" clip-rule="evenodd" d="M137.316 96.2657C138.537 96.9057 139.022 98.4417 138.398 99.6951C137.78 100.954 136.281 101.45 135.06 100.81C133.839 100.17 133.354 98.6337 133.978 97.3804C134.602 96.1271 136.095 95.6257 137.316 96.2657Z" fill="black"/>
<path fill-rule="evenodd" clip-rule="evenodd" d="M116.26 94.7844C117.609 95.0298 118.51 96.3525 118.276 97.7391C118.036 99.1258 116.751 100.054 115.396 99.8084C114.047 99.5631 113.146 98.2405 113.386 96.8538C113.62 95.4671 114.911 94.5391 116.26 94.7844Z" fill="black"/>
<path fill-rule="evenodd" clip-rule="evenodd" d="M122.341 95.887C123.69 96.1323 124.591 97.455 124.356 98.8416C124.116 100.228 122.831 101.156 121.477 100.911C120.128 100.666 119.226 99.343 119.466 97.9563C119.701 96.5697 120.992 95.6417 122.341 95.887Z" fill="black"/>
<path fill-rule="evenodd" clip-rule="evenodd" d="M120.275 90.6448C121.624 90.8901 122.525 92.2128 122.29 93.5995C122.05 94.9861 120.765 95.9141 119.411 95.6688C118.062 95.4235 117.161 94.1008 117.401 92.7141C117.635 91.3275 118.926 90.3995 120.275 90.6448Z" fill="black"/>
<path fill-rule="evenodd" clip-rule="evenodd" d="M101.766 93.6436C103.137 93.6436 104.251 94.7849 104.251 96.1929C104.251 97.6009 103.137 98.7476 101.766 98.7476C100.396 98.7476 99.2812 97.6009 99.2812 96.1929C99.2812 94.7849 100.396 93.6436 101.766 93.6436Z" fill="black"/>
<path fill-rule="evenodd" clip-rule="evenodd" d="M107.942 93.6436C109.312 93.6436 110.427 94.7849 110.427 96.1929C110.427 97.6009 109.312 98.7476 107.942 98.7476C106.572 98.7476 105.457 97.6009 105.457 96.1929C105.457 94.7849 106.572 93.6436 107.942 93.6436Z" fill="black"/>
<path fill-rule="evenodd" clip-rule="evenodd" d="M105.021 88.8496C106.391 88.8496 107.506 89.9909 107.506 91.3989C107.506 92.8069 106.391 93.9536 105.021 93.9536C103.65 93.9536 102.536 92.8069 102.536 91.3989C102.536 89.9909 103.65 88.8496 105.021 88.8496Z" fill="black"/>
<path fill-rule="evenodd" clip-rule="evenodd" d="M76.7233 99.0177C77.9445 98.3777 79.4376 98.879 80.0615 100.132C80.6854 101.386 80.2002 102.922 78.979 103.562C77.7578 104.202 76.2594 103.706 75.6408 102.447C75.0169 101.194 75.5022 99.6577 76.7233 99.0177Z" fill="black"/>
<path fill-rule="evenodd" clip-rule="evenodd" d="M71.2204 101.9C72.4416 101.26 73.94 101.762 74.5586 103.015C75.1825 104.268 74.6972 105.804 73.4761 106.444C72.2549 107.084 70.7565 106.588 70.1379 105.33C69.514 104.076 69.9992 102.54 71.2204 101.9Z" fill="black"/>
<path fill-rule="evenodd" clip-rule="evenodd" d="M71.7038 96.2657C72.925 95.6257 74.4181 96.1271 75.042 97.3804C75.6659 98.6337 75.1806 100.17 73.9595 100.81C72.7383 101.45 71.2399 100.954 70.6213 99.6951C69.9974 98.4417 70.4826 96.9057 71.7038 96.2657Z" fill="black"/>
<path fill-rule="evenodd" clip-rule="evenodd" d="M93.4044 94.7844C94.7536 94.5391 96.044 95.4671 96.2787 96.8538C96.5186 98.2405 95.6174 99.5631 94.2683 99.8084C92.9138 100.054 91.6287 99.1258 91.3887 97.7391C91.1541 96.3525 92.0553 95.0298 93.4044 94.7844Z" fill="black"/>
<path fill-rule="evenodd" clip-rule="evenodd" d="M87.3219 95.887C88.671 95.6417 89.9615 96.5697 90.1961 97.9563C90.4361 99.343 89.5349 100.666 88.1858 100.911C86.8313 101.156 85.5462 100.228 85.3062 98.8416C85.0716 97.455 85.9728 96.1323 87.3219 95.887Z" fill="black"/>
<path fill-rule="evenodd" clip-rule="evenodd" d="M89.3878 90.6448C90.737 90.3995 92.0274 91.3275 92.2621 92.7141C92.502 94.1008 91.6008 95.4235 90.2517 95.6688C88.8972 95.9141 87.6121 94.9861 87.3721 93.5995C87.1375 92.2128 88.0387 90.8901 89.3878 90.6448Z" fill="black"/>
<path fill-rule="evenodd" clip-rule="evenodd" d="M110.958 104.174C114.781 104.739 118.199 100.622 118.215 100.601C118.338 100.457 118.498 100.478 118.578 100.649C118.583 100.659 120.86 105.427 124.716 106.611C128.56 107.79 132.645 104.905 132.656 104.899C132.89 104.729 133.125 104.974 132.949 105.214L128.118 111.87C128.059 111.95 127.92 111.982 127.835 111.929C127.835 111.929 125.846 110.739 121.975 109.545C118.093 108.35 112.317 107.155 104.756 107.155C97.1942 107.155 91.4191 108.35 87.537 109.545C83.6655 110.739 81.6765 111.929 81.6765 111.929C81.5912 111.982 81.4525 111.95 81.3939 111.87L76.5626 105.214C76.3919 104.974 76.6212 104.729 76.8612 104.899C76.8612 104.899 80.9513 107.79 84.796 106.611C88.6515 105.427 90.9285 100.659 90.9338 100.649C91.0191 100.478 91.1791 100.457 91.2964 100.601C91.3124 100.622 94.7306 104.739 98.554 104.174C100.964 103.817 103.412 101.806 104.622 99.63C104.724 99.4487 104.996 99.6353 104.996 99.6353C104.996 99.6353 107.113 103.609 110.958 104.174Z" fill="black"/>
<path fill-rule="evenodd" clip-rule="evenodd" d="M284.432 101.207C285.653 100.567 287.147 101.068 287.771 102.322C288.394 103.575 287.909 105.111 286.688 105.756C285.467 106.391 283.968 105.895 283.35 104.636C282.726 103.383 283.211 101.847 284.432 101.207Z" fill="black"/>
<path fill-rule="evenodd" clip-rule="evenodd" d="M263.952 118.165C263.952 117.919 264.15 117.834 264.32 118.005L268.309 122.01L268.373 133.573L273.865 127.978C273.945 127.898 274.089 127.898 274.169 127.978L293.681 147.989C292.604 149.066 286.301 152.517 282.248 152.303C281.731 152.277 279.294 151.877 278.723 151.77L278.734 140.351H275.839V142.815H273.391V140.351L270.223 140.346L270.218 149.082C269.455 148.735 266.789 148.069 264.278 148.069C261.606 148.069 257.58 150.095 256.439 150.389L259.825 154.117C260.006 153.941 261.494 152.474 266.677 152.474C268.752 152.474 271.636 153.962 273.631 154.575C278.505 156.074 280.867 156.773 285.768 155.007C287.154 154.506 288.061 154.021 288.061 154.021C288.322 153.882 288.525 154.165 288.317 154.378L274.063 168.757C273.983 168.837 273.839 168.837 273.759 168.751C273.759 168.751 271.253 166.159 268.373 163.21V174.735L264.32 178.901C264.15 179.071 263.952 178.986 263.952 178.741L264 158.73L261.073 155.749L260.401 155.066V182.853L256.348 187.109C256.177 187.285 255.975 187.205 255.975 186.954V150.447L254.012 148.458C253.922 148.373 253.916 148.223 254.002 148.133L255.975 146.138V109.855C255.975 109.61 256.177 109.525 256.348 109.701L260.337 113.802L260.401 141.669L263.995 137.994L263.952 118.165Z" fill="black"/>
<path fill-rule="evenodd" clip-rule="evenodd" d="M247.965 183.563L247.901 154.629L244.36 158.24L244.349 179.088C244.349 179.333 244.152 179.419 243.981 179.248L239.993 175.243L239.95 162.677L233.897 168.757C233.812 168.837 233.673 168.837 233.593 168.752L219.654 154.48C219.313 154.069 221.611 152.475 226.512 152.475C228.581 152.475 231.466 153.963 233.466 154.576C238.339 156.075 240.702 156.773 245.602 155.008C246.989 154.507 247.895 154.021 247.895 154.021C247.997 153.968 251.948 149.845 251.948 149.845C252.119 149.664 252.321 149.744 252.321 150V187.504C252.321 187.755 252.124 187.84 251.953 187.664L247.965 183.563Z" fill="black"/>
<path fill-rule="evenodd" clip-rule="evenodd" d="M164.207 222.576C163.098 214.288 162.303 214.768 166.585 218.491C166.649 218.549 166.676 218.693 166.638 218.768L164.692 222.453C165.934 222.16 168.457 221.632 171.315 221.179L168.585 218.368C168.499 218.283 168.499 218.133 168.585 218.053L171.747 214.8C171.827 214.715 171.971 214.715 172.051 214.8L175.213 218.053C175.298 218.133 175.298 218.283 175.213 218.368L172.685 220.965C175.08 220.619 177.597 220.347 179.735 220.304L176.653 217.136C176.573 217.056 176.573 216.907 176.653 216.827L179.82 213.573C179.9 213.488 180.044 213.488 180.124 213.573L183.287 216.827C183.372 216.907 183.372 217.056 183.287 217.136L180.215 220.299C182.241 220.293 184.566 220.469 186.827 220.725L184.524 218.368C184.438 218.283 184.438 218.133 184.524 218.053L187.686 214.8C187.851 214.629 188.017 214.827 188.123 214.933C186.326 207.68 184.518 202.203 184.236 201.36C182.791 200.987 181.362 200.576 179.858 200.608C177.65 200.651 174.424 201.541 172.296 202.315C172.067 202.4 171.923 202.229 172.03 202.005C176.392 193.008 180.151 187.008 180.151 187.008C180.252 186.848 180.418 186.848 180.514 187.013C180.514 187.013 182.764 190.699 185.734 196.411C188.662 202.059 192.293 209.68 195.152 217.691L197.109 215.984C197.301 215.824 197.498 215.931 197.461 216.187L196.671 222.219C198.468 228.021 199.727 233.877 199.903 239.211L201.871 238.069C202.079 237.941 202.254 238.075 202.191 238.32L199.908 247.003C199.77 253.296 199.263 259.339 198.644 264.565L200.116 263.872C200.335 263.771 200.495 263.92 200.409 264.149L197.706 271.675C196.746 278 195.829 282.043 195.829 282.043C195.674 282.208 193.344 282.843 190.262 283.472C187.174 284.107 183.335 284.736 180.327 284.731C177.277 284.731 173.379 284.096 170.243 283.467C167.118 282.837 164.751 282.208 164.751 282.208C164.58 281.915 164.036 279.899 164.527 279.808C164.527 279.808 173.885 278.08 179.863 278.08C181.932 278.08 184.993 278.272 185.702 278.32C185.841 278 186.198 276.117 186.625 274.848C184.3 274.581 181.9 274.389 179.852 274.4C173.677 274.437 164.127 276.363 164.127 276.363L162.676 271.493C162.831 271.232 165.401 270.48 168.809 269.733L170.648 269.349L167.049 265.653C166.969 265.568 166.969 265.419 167.049 265.339L170.894 261.387C170.974 261.301 171.118 261.301 171.198 261.387L175.042 265.339C175.122 265.419 175.122 265.568 175.042 265.653L171.624 269.163C174.109 268.704 176.776 268.336 179.106 268.277L175.32 264.384C175.24 264.304 175.24 264.155 175.32 264.069L179.165 260.123C179.245 260.037 179.389 260.037 179.468 260.123L183.313 264.069C183.393 264.155 183.393 264.304 183.313 264.384L179.532 268.272H179.852C181.745 268.283 184.007 268.549 186.172 268.917L183.18 265.877C183.1 265.797 183.095 265.648 183.18 265.563L187.019 261.616C187.099 261.531 187.243 261.531 187.323 261.611L189.702 263.995C190.491 260.24 191.216 255.92 191.643 251.264C187.899 250.752 183.377 250.245 179.852 250.267C172.552 250.309 161.252 252.475 161.252 252.475L160.762 246.859L158.48 238.549C158.41 238.309 158.581 238.171 158.794 238.293L165.678 242.219C165.817 242.299 165.838 242.453 165.726 242.571L161.828 246.576C163.338 246.251 166.276 245.723 169.609 245.269L165.375 240.923C165.295 240.837 165.295 240.688 165.375 240.603L169.811 236.043C169.897 235.963 170.041 235.963 170.121 236.043L174.557 240.603C174.637 240.688 174.637 240.837 174.557 240.923L170.43 245.157C173.507 244.757 176.834 244.437 179.623 244.411L175.213 239.877C175.133 239.792 175.133 239.643 175.213 239.563L179.65 235.003C179.73 234.917 179.874 234.917 179.954 235.003L184.39 239.563C184.47 239.643 184.47 239.792 184.39 239.877L179.98 244.411C182.593 244.405 185.686 244.661 188.624 244.997L184.87 241.147C184.785 241.061 184.785 240.917 184.87 240.832L189.307 236.272C189.387 236.192 189.531 236.192 189.611 236.272L191.888 238.613C191.707 234.176 191.163 229.755 190.4 225.387C187.025 224.88 183.041 224.416 179.852 224.437C173.293 224.485 163.172 226.645 163.172 226.645C162.548 226.779 163.178 225.387 163.876 222.683C163.892 222.667 164.009 222.629 164.207 222.576Z" fill="black"/>
<path fill-rule="evenodd" clip-rule="evenodd" d="M162.997 271.049C162.864 271.188 162.698 271.151 162.64 270.964L160.256 263.689C160.181 263.455 160.347 263.305 160.56 263.423L166.788 266.745C166.932 266.825 166.959 266.98 166.842 267.097L162.997 271.049Z" fill="black"/>
<path fill-rule="evenodd" clip-rule="evenodd" d="M54.1541 212.753C53.3755 212.007 56.815 209.169 56.9803 208.983C57.1403 208.807 57.4229 208.796 57.5936 208.961L61.1664 212.38L63.6354 214.732L64.3019 215.356L69.9438 209.361C70.6584 208.561 73.394 212.06 73.6126 212.268C73.7832 212.433 73.7939 212.721 73.6339 212.897L68.0934 219.004L73.8526 224.54L83.2112 214.209C83.9418 213.409 86.6987 216.945 86.88 217.116C87.056 217.281 87.0613 217.569 86.9013 217.745L77.548 228.055L102.238 251.751C102.574 253.799 102.926 255.756 103.102 257.132C103.192 257.82 103.24 258.385 103.208 258.732C103.171 259.095 102.931 259.5 102.488 259.079L74.1085 231.873L63.8167 243.196C63.0861 243.991 60.3185 240.449 60.1479 240.284C59.9772 240.124 59.9666 239.836 60.1266 239.655L70.4344 228.337L64.6699 222.775L58.2335 229.863C57.5083 230.663 54.746 227.127 54.57 226.956C54.3941 226.791 54.3887 226.503 54.5487 226.327L60.9584 219.276L54.1541 212.753Z" fill="black"/>
<path fill-rule="evenodd" clip-rule="evenodd" d="M175.051 321.536C175.445 321.915 175.189 322.219 174.805 322.283C174.496 322.342 173.968 322.326 173.323 322.278C172.022 322.182 170.097 321.942 168.044 321.776L133.638 288.934C133.361 288.667 133.419 288.363 133.755 288.214C133.979 288.107 134.374 288.048 134.87 287.995C135.878 287.888 137.461 287.814 139.45 287.616L175.051 321.536Z" fill="black"/>
<path fill-rule="evenodd" clip-rule="evenodd" d="M144.772 277.557C146.745 277.701 147.945 277.941 147.945 277.941C148.521 278.058 147.625 278.762 147.294 279.055C144.319 281.701 140.415 283.365 136.523 283.85C130.39 284.613 126.13 284.474 123.399 284.149C120.648 283.818 119.448 283.285 119.448 283.285C119.245 283.199 119.229 283.002 119.421 282.89C119.421 282.89 120.941 281.973 123.906 280.869C130.225 278.517 138 277.061 144.772 277.557Z" fill="black"/>
<path fill-rule="evenodd" clip-rule="evenodd" d="M221.469 287.996C221.965 288.049 222.354 288.108 222.584 288.215C222.914 288.364 222.978 288.668 222.701 288.935L188.551 321.66C186.312 321.911 184.355 322.161 183.032 322.268C182.376 322.321 181.848 322.337 181.534 322.284C181.15 322.22 180.888 321.916 181.288 321.537L216.553 287.735L216.889 287.617C218.878 287.815 220.467 287.889 221.469 287.996Z" fill="black"/>
<path fill-rule="evenodd" clip-rule="evenodd" d="M255.169 256.566L255.932 249.056L268.959 235.552C269.407 234.406 269.445 232.054 269.386 230.822C267.919 201.952 300.357 204.288 300.059 223.408C299.771 241.515 275.972 239.878 280.403 224.704C281.501 220.934 286.306 220.176 287.703 222.64C289.804 226.347 287.191 228.854 284.274 228.827C284.525 229.403 285.869 230.811 287.741 231.051C290.236 231.376 294.321 229.056 294.63 225.078C295.409 215.2 284.248 212.982 278.83 217.792C275.305 221.51 274.185 224.966 274.942 230.688C275.406 234.208 277.582 237.718 280.152 239.974C280.68 240.438 281.022 240.683 281.022 240.683C281.261 240.854 281.112 241.163 280.835 241.078C280.835 241.078 276.782 239.856 273.583 238.64L255.537 256.747C255.356 256.928 255.143 256.827 255.169 256.566Z" fill="black"/>
<path fill-rule="evenodd" clip-rule="evenodd" d="M214.395 277.556C216.363 277.412 219.093 277.37 222.165 277.759C233.667 279.22 239.725 282.879 239.746 282.89C239.938 283.002 239.922 283.199 239.719 283.284C239.682 283.306 234.915 285.375 222.645 283.85C215.238 282.927 211.116 278.324 211.105 278.314C210.961 278.154 211.02 277.983 211.222 277.94C211.222 277.94 212.422 277.7 214.395 277.556Z" fill="black"/>
<path fill-rule="evenodd" clip-rule="evenodd" d="M233.826 128.024L239.777 134.13L239.745 121.773L243.798 117.373C243.968 117.197 244.166 117.277 244.171 117.528L244.182 138.744L247.722 142.237V113.666L251.775 109.41C251.946 109.234 252.143 109.32 252.143 109.57L252.191 146.84C253.194 147.885 253.828 148.312 253.423 148.53C253.423 148.53 251.557 149.538 249.189 150.514C246.837 151.485 243.947 152.456 241.905 152.344C241.382 152.317 238.945 151.917 238.38 151.816L238.358 140.429L235.356 140.424L235.362 142.813H232.914L232.909 140.354H229.89L229.874 149.138C228.984 148.92 226.68 148.184 224.169 148.242C220.452 148.328 215.914 150.482 215.914 150.482L213.663 148.498C213.573 148.413 213.573 148.269 213.658 148.178L233.522 128.024C233.602 127.938 233.746 127.938 233.826 128.024Z" fill="black"/>
<path fill-rule="evenodd" clip-rule="evenodd" d="M212.107 144.142C212.187 144.227 212.187 144.371 212.107 144.456L206.546 150.174C206.466 150.259 206.322 150.259 206.242 150.174L200.68 144.456C200.594 144.371 200.594 144.222 200.68 144.142L206.242 138.424C206.322 138.339 206.466 138.339 206.546 138.424L212.107 144.142Z" fill="black"/>
<path fill-rule="evenodd" clip-rule="evenodd" d="M305.963 143.978C306.043 144.063 306.043 144.207 305.963 144.292L300.401 150.01C300.321 150.095 300.177 150.095 300.097 150.01L294.535 144.292C294.45 144.207 294.45 144.058 294.535 143.978L300.097 138.26C300.177 138.175 300.321 138.175 300.401 138.26L305.963 143.978Z" fill="black"/>
<path fill-rule="evenodd" clip-rule="evenodd" d="M259.732 202.057C259.812 202.142 259.812 202.286 259.732 202.371L254.17 208.089C254.09 208.174 253.946 208.174 253.866 208.089L248.299 202.371C248.219 202.286 248.219 202.137 248.304 202.057L253.866 196.339C253.946 196.254 254.09 196.254 254.17 196.339L259.732 202.057Z" fill="black"/>
<path fill-rule="evenodd" clip-rule="evenodd" d="M290.945 179.012C291.062 179.012 291.163 179.118 291.163 179.236V187.321C291.163 187.438 291.062 187.545 290.945 187.545H283.079C282.962 187.545 282.86 187.438 282.86 187.321V179.236C282.86 179.118 282.962 179.012 283.079 179.012H290.945Z" fill="black"/>
<path fill-rule="evenodd" clip-rule="evenodd" d="M224.322 179.012C224.44 179.012 224.541 179.118 224.541 179.236V187.321C224.541 187.438 224.44 187.545 224.322 187.545H216.457C216.34 187.545 216.238 187.438 216.238 187.321V179.236C216.238 179.118 216.34 179.012 216.457 179.012H224.322Z" fill="black"/>
<path fill-rule="evenodd" clip-rule="evenodd" d="M217.846 137.547C218.353 139.152 217.499 140.869 215.942 141.392C214.38 141.909 212.711 141.035 212.204 139.429C211.698 137.829 212.551 136.107 214.108 135.589C215.665 135.067 217.339 135.947 217.846 137.547Z" fill="black"/>
<path fill-rule="evenodd" clip-rule="evenodd" d="M234.07 120.868C234.577 122.468 233.724 124.191 232.166 124.713C230.609 125.231 228.935 124.356 228.428 122.751C227.922 121.151 228.775 119.428 230.332 118.911C231.889 118.388 233.564 119.268 234.07 120.868Z" fill="black"/>
<path fill-rule="evenodd" clip-rule="evenodd" d="M210.829 137.03C210.85 137.451 210.055 137.611 209.65 137.259C207.938 131.43 208.141 125.366 213.18 120.182C219.019 114.182 224.128 114.801 229.69 116.486C230.138 116.977 229.978 117.793 229.567 117.766C221.057 117.297 210.37 128.278 210.829 137.03Z" fill="black"/>
<path fill-rule="evenodd" clip-rule="evenodd" d="M289.381 137.921C289.888 136.321 291.562 135.441 293.119 135.963C294.682 136.481 295.535 138.203 295.028 139.803C294.522 141.409 292.847 142.283 291.285 141.766C289.728 141.243 288.874 139.521 289.381 137.921Z" fill="black"/>
<path fill-rule="evenodd" clip-rule="evenodd" d="M273.158 121.244C273.664 119.644 275.339 118.764 276.896 119.287C278.458 119.804 279.312 121.527 278.805 123.127C278.298 124.732 276.624 125.607 275.062 125.089C273.504 124.567 272.651 122.844 273.158 121.244Z" fill="black"/>
<path fill-rule="evenodd" clip-rule="evenodd" d="M296.528 137.405C296.986 128.653 286.3 117.671 277.789 118.146C277.379 118.167 277.219 117.351 277.565 116.93C283.228 115.175 288.337 114.557 294.176 120.562C299.215 125.741 299.418 131.805 297.776 137.527C297.301 137.991 296.506 137.826 296.528 137.405Z" fill="black"/>
<path fill-rule="evenodd" clip-rule="evenodd" d="M235.83 176.899C235.324 178.499 233.649 179.379 232.092 178.857C230.535 178.339 229.682 176.617 230.189 175.011C230.695 173.411 232.37 172.537 233.927 173.054C235.484 173.577 236.337 175.299 235.83 176.899Z" fill="black"/>
<path fill-rule="evenodd" clip-rule="evenodd" d="M252.056 193.575C251.549 195.18 249.875 196.055 248.318 195.532C246.761 195.015 245.908 193.292 246.414 191.692C246.921 190.087 248.59 189.212 250.152 189.73C251.709 190.252 252.563 191.975 252.056 193.575Z" fill="black"/>
<path fill-rule="evenodd" clip-rule="evenodd" d="M229.544 177.235C229.085 185.982 239.772 196.968 248.283 196.494C248.693 196.472 248.853 197.288 248.507 197.71C242.843 199.464 237.735 200.083 231.896 194.078C226.856 188.899 226.654 182.835 228.296 177.112C228.771 176.648 229.565 176.814 229.544 177.235Z" fill="black"/>
<path fill-rule="evenodd" clip-rule="evenodd" d="M214.068 154.531C213.562 156.131 211.887 157.011 210.33 156.489C208.773 155.971 207.92 154.249 208.426 152.649C208.933 151.043 210.607 150.169 212.165 150.686C213.722 151.209 214.575 152.931 214.068 154.531Z" fill="black"/>
<path fill-rule="evenodd" clip-rule="evenodd" d="M230.291 171.207C229.785 172.807 228.11 173.687 226.553 173.164C224.996 172.647 224.143 170.924 224.65 169.324C225.156 167.719 226.831 166.844 228.388 167.362C229.945 167.884 230.798 169.607 230.291 171.207Z" fill="black"/>
<path fill-rule="evenodd" clip-rule="evenodd" d="M207.78 154.727C207.322 163.479 218.008 174.46 226.519 173.991C226.93 173.964 227.09 174.78 226.743 175.202C221.08 176.956 215.971 177.575 210.132 171.57C205.093 166.391 204.89 160.327 206.533 154.604C207.007 154.14 207.802 154.306 207.78 154.727Z" fill="black"/>
<path fill-rule="evenodd" clip-rule="evenodd" d="M271.729 176.899C271.223 175.299 272.076 173.577 273.633 173.054C275.19 172.537 276.87 173.411 277.371 175.011C277.883 176.617 277.03 178.339 275.467 178.857C273.91 179.379 272.236 178.499 271.729 176.899Z" fill="black"/>
<path fill-rule="evenodd" clip-rule="evenodd" d="M255.505 193.575C254.998 191.975 255.851 190.252 257.408 189.73C258.971 189.212 260.64 190.087 261.146 191.692C261.653 193.292 260.805 195.015 259.243 195.532C257.686 196.055 256.011 195.18 255.505 193.575Z" fill="black"/>
<path fill-rule="evenodd" clip-rule="evenodd" d="M277.972 177.235C277.95 176.814 278.745 176.649 279.15 177.006C280.862 182.835 280.659 188.899 275.62 194.078C269.781 200.083 264.672 199.465 259.11 197.779C258.663 197.289 258.823 196.473 259.233 196.494C267.744 196.969 278.43 185.987 277.972 177.235Z" fill="black"/>
<path fill-rule="evenodd" clip-rule="evenodd" d="M293.492 154.531C292.986 152.931 293.839 151.209 295.396 150.686C296.953 150.169 298.628 151.043 299.134 152.649C299.646 154.249 298.793 155.971 297.23 156.489C295.673 157.011 293.999 156.131 293.492 154.531Z" fill="black"/>
<path fill-rule="evenodd" clip-rule="evenodd" d="M277.269 171.207C276.762 169.607 277.615 167.884 279.172 167.362C280.735 166.844 282.409 167.719 282.916 169.324C283.422 170.924 282.569 172.647 281.007 173.164C279.45 173.687 277.775 172.812 277.269 171.207Z" fill="black"/>
<path fill-rule="evenodd" clip-rule="evenodd" d="M299.734 154.728C299.713 154.306 300.508 154.141 300.913 154.498C302.625 160.328 302.422 166.392 297.383 171.57C291.544 177.576 286.435 176.957 280.878 175.272C280.425 174.781 280.585 173.965 280.996 173.992C289.507 174.461 300.193 163.48 299.734 154.728Z" fill="black"/>
<path fill-rule="evenodd" clip-rule="evenodd" d="M281.113 98.3253C282.334 98.9653 282.82 100.501 282.196 101.755C281.577 103.013 280.079 103.509 278.858 102.869C277.636 102.229 277.151 100.693 277.775 99.44C278.399 98.1813 279.892 97.6853 281.113 98.3253Z" fill="black"/>
<path fill-rule="evenodd" clip-rule="evenodd" d="M286.131 95.5733C287.352 96.2133 287.837 97.7493 287.213 99.0027C286.595 100.261 285.096 100.757 283.875 100.123C282.654 99.4773 282.169 97.9413 282.793 96.688C283.417 95.4347 284.91 94.9333 286.131 95.5733Z" fill="black"/>
<path fill-rule="evenodd" clip-rule="evenodd" d="M226.015 98.3253C227.236 97.6853 228.729 98.1813 229.353 99.44C229.977 100.693 229.492 102.229 228.271 102.869C227.049 103.509 225.551 103.013 224.932 101.755C224.308 100.501 224.794 98.9653 226.015 98.3253Z" fill="black"/>
<path fill-rule="evenodd" clip-rule="evenodd" d="M220.511 101.207C221.733 100.567 223.231 101.068 223.85 102.322C224.474 103.575 223.988 105.111 222.767 105.756C221.546 106.391 220.047 105.895 219.429 104.636C218.805 103.383 219.29 101.847 220.511 101.207Z" fill="black"/>
<path fill-rule="evenodd" clip-rule="evenodd" d="M220.995 95.5733C222.216 94.9333 223.715 95.4347 224.333 96.688C224.957 97.9413 224.472 99.4773 223.251 100.123C222.03 100.757 220.531 100.261 219.913 99.008C219.289 97.7493 219.774 96.2133 220.995 95.5733Z" fill="black"/>
<path fill-rule="evenodd" clip-rule="evenodd" d="M238.549 92.4895C239.898 92.2442 241.189 93.1722 241.423 94.5589C241.663 95.9455 240.762 97.2682 239.413 97.5135C238.064 97.7589 236.773 96.8362 236.533 95.4442C236.299 94.0575 237.2 92.7349 238.549 92.4895Z" fill="black"/>
<path fill-rule="evenodd" clip-rule="evenodd" d="M267.98 92.4895C269.329 92.7349 270.23 94.0575 269.996 95.4442C269.756 96.8362 268.47 97.7589 267.116 97.5135C265.767 97.2682 264.866 95.9455 265.106 94.5589C265.34 93.1722 266.631 92.2442 267.98 92.4895Z" fill="black"/>
<path fill-rule="evenodd" clip-rule="evenodd" d="M250.376 92.9502C251.746 92.9502 252.861 94.0915 252.861 95.4995C252.861 96.9129 251.746 98.0542 250.376 98.0542C249.005 98.0542 247.891 96.9129 247.891 95.4995C247.891 94.0915 249.005 92.9502 250.376 92.9502Z" fill="black"/>
<path fill-rule="evenodd" clip-rule="evenodd" d="M256.55 92.9502C257.921 92.9502 259.035 94.0915 259.035 95.4995C259.035 96.9129 257.921 98.0542 256.55 98.0542C255.18 98.0542 254.065 96.9129 254.065 95.4995C254.065 94.0915 255.18 92.9502 256.55 92.9502Z" fill="black"/>
<path fill-rule="evenodd" clip-rule="evenodd" d="M253.63 88.1553C255.001 88.1553 256.115 89.2966 256.115 90.7046C256.115 92.1179 255.001 93.2593 253.63 93.2593C252.26 93.2593 251.146 92.1179 251.146 90.7046C251.146 89.2966 252.26 88.1553 253.63 88.1553Z" fill="black"/>
<path fill-rule="evenodd" clip-rule="evenodd" d="M259.567 103.481C263.391 104.046 266.809 99.9285 266.825 99.9072C266.948 99.7632 267.108 99.7845 267.188 99.9552C267.193 99.9659 269.47 104.734 273.325 105.918C277.17 107.097 281.255 104.211 281.266 104.206C281.5 104.035 281.735 104.281 281.559 104.521L276.728 111.177C276.669 111.257 276.53 111.289 276.445 111.235C276.445 111.235 274.456 110.046 270.584 108.851C266.702 107.657 260.927 106.462 253.366 106.462C245.804 106.462 240.029 107.657 236.147 108.851C232.275 110.046 230.286 111.235 230.286 111.235C230.201 111.289 230.062 111.257 230.004 111.177L225.172 104.521C225.002 104.281 225.231 104.035 225.471 104.206C225.471 104.206 229.561 107.097 233.406 105.918C237.261 104.734 239.538 99.9659 239.544 99.9552C239.629 99.7845 239.789 99.7632 239.906 99.9072C239.922 99.9285 243.34 104.046 247.164 103.481C251.009 102.915 253.232 98.9365 253.232 98.9365L253.606 98.9419C253.606 98.9419 255.723 102.915 259.567 103.481Z" fill="black"/>
<path fill-rule="evenodd" clip-rule="evenodd" d="M178.336 174.087L197.725 169.165C197.885 169.122 198.008 169.223 197.992 169.399C197.987 169.469 197.123 179.89 180.981 182.311C172.273 183.618 167.239 177.01 164.93 169.655C164.429 168.061 164.237 166.978 164.237 166.978C164.2 166.754 164.354 166.637 164.552 166.738L178.336 174.087Z" fill="black"/>
<path fill-rule="evenodd" clip-rule="evenodd" d="M193.641 62.9102C194.783 62.9102 195.705 63.8595 195.705 65.0328C195.705 66.2008 194.783 67.1555 193.641 67.1555C192.5 67.1555 191.578 66.2008 191.578 65.0328C191.578 63.8595 192.5 62.9102 193.641 62.9102Z" fill="black"/>
<path fill-rule="evenodd" clip-rule="evenodd" d="M196.259 55.6816C197.4 55.6816 198.322 56.631 198.322 57.8043C198.322 58.9723 197.4 59.927 196.259 59.927C195.117 59.927 194.195 58.9723 194.195 57.8043C194.195 56.631 195.117 55.6816 196.259 55.6816Z" fill="black"/>
<path fill-rule="evenodd" clip-rule="evenodd" d="M193.537 48.4521C194.678 48.4521 195.601 49.4015 195.601 50.5748C195.601 51.7428 194.678 52.6975 193.537 52.6975C192.396 52.6975 191.474 51.7428 191.474 50.5748C191.474 49.4015 192.396 48.4521 193.537 48.4521Z" fill="black"/>
<path fill-rule="evenodd" clip-rule="evenodd" d="M185.836 45.0752C186.977 45.0752 187.899 46.0245 187.899 47.1979C187.899 48.3659 186.977 49.3205 185.836 49.3205C184.695 49.3205 183.772 48.3659 183.772 47.1979C183.772 46.0245 184.695 45.0752 185.836 45.0752Z" fill="black"/>
<path fill-rule="evenodd" clip-rule="evenodd" d="M178.134 44.2842C179.275 44.2842 180.198 45.2335 180.198 46.4068C180.198 47.5802 179.275 48.5295 178.134 48.5295C176.993 48.5295 176.07 47.5802 176.07 46.4068C176.07 45.2335 176.993 44.2842 178.134 44.2842Z" fill="black"/>
<path fill-rule="evenodd" clip-rule="evenodd" d="M169.611 46.8701C170.752 46.8701 171.674 47.8194 171.674 48.9928C171.674 50.1608 170.752 51.1155 169.611 51.1155C168.469 51.1155 167.547 50.1608 167.547 48.9928C167.547 47.8194 168.469 46.8701 169.611 46.8701Z" fill="black"/>
<path fill-rule="evenodd" clip-rule="evenodd" d="M164.015 51.9893C165.156 51.9893 166.079 52.9386 166.079 54.1119C166.079 55.2799 165.156 56.2346 164.015 56.2346C162.874 56.2346 161.951 55.2799 161.951 54.1119C161.951 52.9386 162.874 51.9893 164.015 51.9893Z" fill="black"/>
<path fill-rule="evenodd" clip-rule="evenodd" d="M162.578 58.7969C163.719 58.7969 164.642 59.7462 164.642 60.9195C164.642 62.0929 163.719 63.0422 162.578 63.0422C161.437 63.0422 160.514 62.0929 160.514 60.9195C160.514 59.7462 161.437 58.7969 162.578 58.7969Z" fill="black"/>
<path fill-rule="evenodd" clip-rule="evenodd" d="M165.247 66.2363C166.388 66.2363 167.311 67.1857 167.311 68.359C167.311 69.5323 166.388 70.4817 165.247 70.4817C164.106 70.4817 163.184 69.5323 163.184 68.359C163.184 67.1857 164.106 66.2363 165.247 66.2363Z" fill="black"/>
<path fill-rule="evenodd" clip-rule="evenodd" d="M178.478 58.7355C180.392 58.6075 182.733 58.8742 184.354 60.4955L189.442 54.0528L185.469 53.3115L184.706 55.8662L181.16 56.0208C180.526 56.0208 181.453 53.9408 181.736 52.9222L179.326 50.8262L176.905 53.3168C178.483 56.8262 178.958 56.0528 175.396 56.6502C175.332 56.6662 175.204 56.6022 175.172 56.5435L173.428 53.3595L169.802 55.4075L174.99 59.4022C175.385 59.2742 176.793 58.8528 178.478 58.7355Z" fill="black"/>
<path fill-rule="evenodd" clip-rule="evenodd" d="M75.1898 182.713C75.9364 181.214 77.7228 180.617 79.1786 181.38C80.6397 182.142 81.2209 183.982 80.4797 185.481C79.7331 186.985 77.9467 187.582 76.4856 186.814C75.0245 186.052 74.4432 184.212 75.1898 182.713Z" fill="black"/>
<path fill-rule="evenodd" clip-rule="evenodd" d="M128.912 182.713C129.659 181.214 131.445 180.617 132.901 181.38C134.362 182.142 134.943 183.982 134.202 185.481C133.455 186.985 131.669 187.582 130.208 186.814C128.747 186.052 128.165 184.212 128.912 182.713Z" fill="black"/>
<path fill-rule="evenodd" clip-rule="evenodd" d="M204.444 334.94L200.508 335.74L204.278 356.002L208.294 355.164L204.444 334.94ZM151.902 335.122L148.478 355.426L152.312 356.002L152.552 355.82L155.709 335.788L151.902 335.122ZM38.7396 126.274L20.0597 119.372C19.953 119.335 19.8251 119.394 19.7824 119.5L18.3533 123.202C18.3053 123.319 18.3639 123.452 18.4813 123.495L37.1719 130.306C37.2732 130.343 37.4065 130.284 37.4438 130.178L38.8676 126.567C38.9103 126.455 38.8516 126.316 38.7396 126.274ZM63.568 83.3191L48.4769 70.0871C48.3862 70.0071 48.2423 70.0177 48.1676 70.1191L45.768 73.2444C45.6986 73.3297 45.7093 73.4791 45.7946 73.5537L60.9497 86.7271C61.0457 86.8071 61.1897 86.7911 61.2644 86.6951L63.5947 83.6284C63.664 83.5377 63.648 83.3937 63.568 83.3191ZM311.265 73.8311C311.351 73.7617 311.367 73.6124 311.297 73.5271L308.898 70.4017C308.823 70.3004 308.679 70.2897 308.583 70.3697L293.497 83.6017C293.417 83.6764 293.401 83.8204 293.471 83.9057L295.801 86.9777C295.876 87.0737 296.02 87.0897 296.11 87.0097L311.265 73.8311ZM338.712 123.484L337.283 119.783C337.24 119.676 337.107 119.618 337.006 119.655L318.326 126.556C318.214 126.599 318.155 126.738 318.198 126.85L319.616 130.46C319.659 130.567 319.787 130.626 319.893 130.588L338.584 123.778C338.696 123.735 338.755 123.602 338.712 123.484ZM225.795 355.794C225.651 355.735 225.246 355.57 224.681 355.26C220.143 352.77 217.13 348.082 215.759 343.047C213.477 333.543 216.762 328.839 217.338 328.108C277.233 311.058 322.128 255.692 324.41 188.466C324.917 173.628 323.312 159.218 319.872 145.543C320.208 144.647 322.65 139.036 331.796 136.316C336.798 134.999 340.717 135.65 343.389 136.62C344.732 137.111 346.306 137.89 347.425 138.844C370.302 231.17 318.507 328.919 225.795 355.794ZM346.21 133.026C346.034 132.914 345.82 132.775 345.564 132.626C340.968 129.89 335.326 129.543 330.228 130.887C322.032 133.324 319.046 138.076 318.198 139.852C316.635 133.276 314.764 128.322 312.289 122.071L312.833 122.21C317.366 123.223 322.762 121.356 326.682 119.303C330.99 116.871 335.187 113.015 336.808 108.092L336.974 107.559C340.338 115.852 343.709 124.22 346.21 133.026ZM334.11 102.471C333.79 106.578 331.502 110.295 328.495 112.94C328.276 113.138 328.02 112.914 328.17 112.658C329.465 110.476 329.583 107.65 328.255 105.282C327.834 104.535 327.391 103.911 326.666 103.383C326.468 103.234 326.516 103.015 326.756 102.978C327.604 102.85 328.447 102.556 329.236 102.092C330.772 101.175 331.865 99.7511 332.388 98.1511C332.468 97.9057 332.697 97.8951 332.793 98.1297L334.11 101.34C334.126 101.404 334.158 101.799 334.11 102.471ZM327.471 98.9457C325.807 99.9377 323.68 99.3511 322.72 97.6391C321.76 95.9324 322.325 93.7457 323.989 92.7591C325.653 91.7724 327.78 92.3537 328.74 94.0657C329.705 95.7724 329.135 97.9591 327.471 98.9457ZM327.108 88.7857C325.503 88.4551 323.76 88.7057 322.229 89.6177C321.451 90.0764 320.917 90.6631 320.256 91.4151C320.107 91.5911 319.92 91.5324 319.883 91.3031C319.323 87.8044 316.326 85.1697 312.774 85.2711C312.481 85.2764 312.423 84.9351 312.694 84.8391C316.433 83.4791 320.709 83.3031 324.335 85.0737C324.927 85.3617 325.242 85.5857 325.242 85.5857L325.29 85.6337L327.327 88.4337C327.476 88.6364 327.354 88.8337 327.108 88.7857ZM321.445 79.9111C319.568 79.4257 313.852 78.5564 306.402 83.2017C298.968 88.1511 297.246 93.0791 296.873 94.6257C292.852 89.3137 289.61 85.1591 284.843 80.4764C286.768 80.6097 292.26 80.3324 298.414 74.2524C304.557 67.8044 304.717 61.0364 304.6 58.9564C310.705 65.5111 316.091 72.7111 321.445 79.9111ZM300.851 56.6844C300.483 61.5377 297.465 66.2311 294.265 69.5911C287.397 76.3751 281.408 75.7724 280.486 75.6284C223.79 18.7591 133.003 18.5617 76.0889 75.6657C75.1663 75.8257 69.3005 76.6364 62.4375 69.8577C58.8221 66.0604 57.2543 62.3324 56.5824 59.5537C56.2464 58.1724 56.0011 56.4871 56.1291 55.0417C124.333 -13.5929 233.287 -13.1503 300.872 55.6551C300.883 55.8044 300.888 56.1564 300.851 56.6844ZM52.439 59.4471C52.439 64.9084 54.9666 70.1031 58.6514 73.9697C64.7999 80.0497 70.2977 80.3271 72.2174 80.1937C67.4555 84.8817 64.2133 89.0311 60.1925 94.3431L60.0379 93.7884C58.6194 89.2497 54.3534 85.3777 50.6579 82.9191C46.4559 80.3004 41.1126 78.4924 36.1533 79.5057L35.6201 79.6284C40.974 72.4284 46.3599 65.2284 52.4603 58.6737C52.4497 58.8871 52.439 59.1431 52.439 59.4471ZM32.2979 84.8764C35.9187 83.1057 40.1901 83.2764 43.9282 84.6311C44.2002 84.7324 44.1415 85.0737 43.8482 85.0684C41.3686 85.0044 38.9209 86.3111 37.5931 88.6737C37.1719 89.4257 36.8679 90.1351 36.7826 91.0417C36.7613 91.2924 36.5533 91.3564 36.3986 91.1591C35.8654 90.4711 35.1988 89.8684 34.4149 89.4044C32.8738 88.4871 31.1301 88.2311 29.5143 88.5671C29.269 88.6151 29.1464 88.4177 29.301 88.2151L31.3381 85.4364C31.3914 85.3884 31.706 85.1644 32.2979 84.8764ZM32.6499 92.5404C34.3136 93.5324 34.8842 95.7191 33.919 97.4257C32.9591 99.1377 30.8368 99.7244 29.173 98.7377C27.5093 97.7457 26.9387 95.5644 27.8986 93.8524C28.8584 92.1404 30.9861 91.5537 32.6499 92.5404ZM27.4026 101.879C28.1812 102.338 28.9437 102.519 29.9089 102.732C30.1276 102.775 30.1756 102.972 29.9996 103.122C27.3333 105.367 26.6134 109.351 28.4691 112.466C28.6238 112.722 28.3678 112.946 28.1438 112.748C25.131 110.108 22.8433 106.38 22.5233 102.274C22.47 101.602 22.502 101.207 22.502 101.207L22.518 101.138L23.8618 97.9271C23.9578 97.6924 24.1818 97.7031 24.2617 97.9431C24.7897 99.5377 25.8722 100.967 27.4026 101.879ZM20.0917 107.276C20.6196 109.186 22.7473 114.711 30.3835 119.02C38.2704 123.164 43.283 122.231 44.7708 121.788C42.3018 128.039 40.4301 132.994 38.8676 139.57C38.0144 137.794 35.0335 133.042 26.8374 130.604C18.3373 128.364 12.5514 131.602 10.8557 132.748C13.3513 123.938 16.7268 115.57 20.0917 107.276ZM10.0825 138.023C14.5032 135.25 19.9904 134.887 24.9603 136.204C34.1003 138.919 36.3933 144.642 36.7239 145.554C34.0417 155.948 32.4846 166.796 32.1059 177.97C29.685 249.138 75.6409 310.428 139.76 328.258C140.325 328.978 143.402 333.356 141.119 342.855C139.733 347.97 137.269 351.276 135.158 353.314C134.08 354.348 132.731 355.426 131.366 356.066C55.4359 334.375 0.947801 261.474 3.81672 176.956C4.26998 163.714 5.90708 151.074 9.05862 138.748C9.18127 138.642 9.52789 138.37 10.0825 138.023ZM136.688 357.33C141.621 354.78 145.023 349.532 146.479 344.172C148.526 335.655 146.015 330.626 144.943 328.978C151.267 330.876 156.376 331.687 162.876 332.615L162.487 333.026C159.367 336.556 158.242 342.295 158.018 346.807C157.906 351.863 159.058 357.522 162.391 361.426L162.764 361.842C154.094 360.69 145.359 359.506 136.688 357.33ZM162.359 352.082C162.306 351.788 162.62 351.671 162.764 351.932C163.948 354.178 166.273 355.698 168.929 355.698C169.771 355.698 170.523 355.612 171.328 355.234C171.552 355.127 171.712 355.282 171.622 355.516C171.307 356.338 171.131 357.228 171.131 358.162C171.131 359.991 171.787 361.671 172.875 362.94C173.04 363.132 172.933 363.34 172.688 363.308L169.329 362.882C169.259 362.86 168.918 362.695 168.374 362.311C165.079 359.975 163.084 356.082 162.359 352.082ZM168.929 344.919C170.854 344.919 172.411 346.519 172.411 348.492C172.411 350.466 170.854 352.066 168.929 352.066C167.009 352.066 165.452 350.466 165.452 348.492C165.452 346.519 167.009 344.919 168.929 344.919ZM171.131 339.207C171.131 339.986 171.195 340.69 171.408 341.378C171.478 341.591 171.344 341.724 171.136 341.655C170.443 341.42 169.702 341.292 168.929 341.292C166.145 341.292 163.74 342.962 162.61 345.378C162.482 345.65 162.156 345.548 162.199 345.255C162.796 340.967 164.737 336.738 168.07 334.018C168.619 333.57 168.971 333.367 168.971 333.367L174.395 332.604C174.672 332.567 174.773 332.866 174.533 333.015C172.48 334.274 171.131 336.578 171.131 339.207ZM174.661 339.207C174.661 337.234 176.218 335.634 178.138 335.634C180.063 335.634 181.62 337.234 181.62 339.207C181.62 341.18 180.063 342.786 178.138 342.78C176.218 342.78 174.661 341.18 174.661 339.207ZM180.367 348.492C180.367 349.436 180.527 350.37 180.847 351.191C180.932 351.415 180.788 351.564 180.57 351.479C179.786 351.18 179.002 350.962 178.138 350.962C177.296 350.962 176.48 351.127 175.728 351.41C175.509 351.495 175.365 351.346 175.45 351.122C175.765 350.3 175.941 349.426 175.941 348.492C175.941 347.703 175.808 346.956 175.578 346.242C175.509 346.028 175.642 345.89 175.856 345.964C176.586 346.226 177.343 346.412 178.138 346.412C178.954 346.412 179.7 346.311 180.415 346.06C180.623 345.986 180.756 346.124 180.692 346.338C180.479 347.026 180.367 347.73 180.367 348.492ZM174.661 358.162C174.661 356.188 176.218 354.588 178.138 354.588C180.063 354.588 181.62 356.188 181.62 358.162C181.62 360.14 180.063 361.74 178.138 361.74C176.218 361.74 174.661 360.14 174.661 358.162ZM181.684 333.015C181.439 332.866 181.54 332.567 181.823 332.604L187.241 333.335C187.321 333.362 187.673 333.564 188.217 334.002C188.755 334.434 189.48 335.1 190.248 336.028C191.779 337.895 193.458 340.823 194.061 345.1C194.104 345.399 193.789 345.5 193.656 345.234C192.488 342.919 190.088 341.292 187.374 341.292C186.547 341.292 185.742 341.452 185.001 341.73C184.793 341.804 184.654 341.666 184.724 341.452C184.942 340.738 185.15 339.959 185.15 339.207C185.15 336.551 183.769 334.263 181.684 333.015ZM187.374 352.066C185.454 352.066 183.897 350.466 183.897 348.492C183.897 346.519 185.454 344.919 187.374 344.919C189.294 344.919 190.851 346.519 190.851 348.492C190.851 350.466 189.294 352.066 187.374 352.066ZM183.407 362.924C184.484 361.66 185.15 359.98 185.15 358.162C185.15 357.244 184.921 356.471 184.612 355.511C184.542 355.292 184.686 355.154 184.9 355.234C185.668 355.532 186.505 355.698 187.374 355.698C190.04 355.698 192.349 354.172 193.538 351.922C193.677 351.66 193.992 351.778 193.938 352.071C193.219 356.071 191.224 359.975 187.923 362.311C187.379 362.695 187.038 362.866 187.038 362.866L186.969 362.882L183.593 363.292C183.348 363.324 183.241 363.122 183.407 362.924ZM48.6209 102.023C50.2846 103.01 50.8552 105.196 49.8954 106.903C48.9355 108.615 46.8078 109.202 45.144 108.215C43.4803 107.228 42.9097 105.042 43.8696 103.33C44.8294 101.623 46.9571 101.036 48.6209 102.023ZM40.6487 90.4924C41.6086 88.7804 43.7362 88.1937 45.4 89.1804C47.0638 90.1671 47.6343 92.3537 46.6745 94.0657C45.7146 95.7724 43.5869 96.3591 41.9232 95.3724C40.2594 94.3857 39.6888 92.1991 40.6487 90.4924ZM35.3268 101.143C36.7079 99.9804 37.4972 98.6897 37.8064 96.8657C37.8438 96.6311 38.0464 96.5777 38.1904 96.7644C39.2142 98.0924 40.622 98.9777 42.2378 99.3191C42.4564 99.3671 42.5044 99.5537 42.3338 99.7031C41.15 100.754 40.2754 102.124 39.9715 103.719C39.9288 103.938 39.7475 103.991 39.5982 103.826C39.1236 103.287 38.5903 102.839 37.9451 102.455C37.1452 101.986 36.2867 101.66 35.4335 101.532C35.2042 101.5 35.1455 101.292 35.3268 101.143ZM34.047 115.911C37.6305 116.087 40.7074 113.495 41.3313 109.964C41.3686 109.74 41.5499 109.687 41.6992 109.858C42.1898 110.407 42.7444 110.978 43.379 111.356C45.6186 112.684 48.2369 112.599 50.3273 111.372C50.5726 111.223 50.7806 111.468 50.6046 111.698L47.2771 116.156C47.2184 116.21 46.8718 116.423 46.2319 116.69C45.6026 116.951 44.6748 117.266 43.5069 117.484C41.1713 117.916 37.8598 117.943 33.9563 116.343C33.6844 116.231 33.759 115.9 34.047 115.911ZM32.7032 111.788C31.0394 110.802 30.4688 108.615 31.4287 106.908C32.3886 105.196 34.5163 104.61 36.18 105.602C37.8438 106.583 38.4144 108.77 37.4545 110.482C36.4946 112.188 34.3669 112.775 32.7032 111.788ZM49.4474 88.2097C49.2821 87.9591 49.5274 87.7244 49.7567 87.9057C53.0736 90.5777 55.6652 94.4231 56.2891 98.7484C56.3904 99.4631 56.3904 99.8791 56.3904 99.8791L54.3214 105.084C54.2147 105.351 53.9054 105.292 53.9054 104.999C53.8681 102.551 52.6043 100.199 50.3859 98.8817C49.73 98.4871 49.1061 98.1991 48.4182 98.0444C48.2049 97.9964 48.1623 97.8097 48.3223 97.6604C48.8662 97.1591 49.3461 96.5671 49.73 95.8791C51.1272 93.3991 50.9192 90.4231 49.4474 88.2097ZM320.469 188.322C317.723 269.052 251.829 332.204 173.291 329.388C94.7475 326.567 33.3004 258.839 36.0467 178.114C38.7876 97.3831 104.682 34.2257 183.225 37.0471C261.769 39.8684 323.21 107.596 320.469 188.322ZM322.821 116.498C318.912 118.108 314.38 118.498 310.417 116.887C309.767 116.626 309.415 116.412 309.415 116.412L306.066 111.97C305.895 111.735 306.098 111.495 306.343 111.639C308.428 112.834 311.041 112.882 313.26 111.57C313.921 111.18 314.476 110.77 314.95 110.236C315.094 110.071 315.275 110.119 315.323 110.343C315.467 111.074 315.734 111.799 316.118 112.487C317.51 114.967 320.123 116.274 322.725 116.066C323.013 116.044 323.093 116.386 322.821 116.498ZM325.199 107.1C326.159 108.807 325.589 110.994 323.925 111.98C322.261 112.967 320.133 112.38 319.174 110.674C318.214 108.962 318.784 106.775 320.448 105.788C322.112 104.802 324.239 105.388 325.199 107.1ZM316.47 98.7057C317.264 98.2311 317.968 97.6284 318.502 96.9297C318.646 96.7431 318.848 96.7964 318.886 97.0364C319.174 98.8444 319.867 100.194 321.248 101.378C321.424 101.532 321.371 101.735 321.141 101.767C319.51 102.018 318.059 102.834 316.966 104.092C316.817 104.263 316.635 104.215 316.593 103.991C316.299 102.412 315.585 100.946 314.396 99.8791C314.23 99.7297 314.273 99.5431 314.486 99.4951C315.179 99.3404 315.825 99.0897 316.47 98.7057ZM311.223 89.3724C312.886 88.3857 315.014 88.9724 315.979 90.6791C316.939 92.3911 316.369 94.5777 314.705 95.5644C313.041 96.5511 310.913 95.9644 309.954 94.2577C308.994 92.5457 309.564 90.3591 311.223 89.3724ZM312.769 103.543C313.729 105.255 313.158 107.436 311.495 108.428C309.831 109.415 307.709 108.828 306.743 107.116C305.783 105.41 306.354 103.223 308.018 102.236C309.682 101.25 311.809 101.836 312.769 103.543ZM308.45 97.9644C308.62 98.1084 308.572 98.3004 308.354 98.3484C307.645 98.5084 306.887 98.7164 306.253 99.0951C304.013 100.423 302.776 102.791 302.765 105.271C302.765 105.564 302.461 105.628 302.349 105.356L300.259 100.162C300.243 100.082 300.238 99.6711 300.334 98.9671C300.43 98.2737 300.622 97.2924 301.027 96.1457C301.832 93.8471 303.464 90.8924 306.765 88.2097C306.989 88.0284 307.234 88.2577 307.079 88.5084C305.138 91.6124 305.783 95.6497 308.45 97.9644ZM193.826 361.842C195.165 360.418 198.759 355.756 198.572 346.807C198.119 337.714 194.829 333.719 193.709 332.615C200.209 331.687 205.323 330.882 211.648 328.978C210.576 330.626 208.059 335.655 210.107 344.172C212.469 352.86 218.09 356.391 219.903 357.33C211.232 359.506 202.492 360.69 193.826 361.842ZM184.478 0.11373C86.0928 -3.41694 3.55009 75.6924 0.11059 176.823C-3.32358 277.948 73.6466 362.791 172.032 366.322C270.423 369.852 352.966 290.738 356.4 189.612C359.84 88.4871 282.864 3.6444 184.478 0.11373Z" fill="black"/>
<path fill-rule="evenodd" clip-rule="evenodd" d="M105.023 282.222C104.895 281.881 103.578 278.532 101.429 279.636C99.2372 280.761 99.6691 288.99 100.128 291.113C100.4 292.366 104.97 292.27 106.058 292.228L105.023 282.222ZM126.028 289.177C123.735 291.71 120.578 291.726 117.533 290.83C115.597 290.26 110.846 286.201 108.996 284.58L110.825 294.094C110.297 295.87 104.575 296.153 104.004 296.185C97.4241 296.548 96.0909 294.75 96.0909 293.774C96.0909 293.71 96.0589 293.508 95.995 293.156L95.755 291.817C95.0564 287.828 94.4325 281.961 96.4802 278.414C99.4025 273.337 103.349 274.238 106.575 275.961C109.454 277.492 112.371 280.382 115.038 283.668C116.899 285.966 121.831 287.609 124.753 288.414L125.719 288.67C126.268 288.82 126.124 289.097 126.028 289.177Z" fill="black"/>
<path fill-rule="evenodd" clip-rule="evenodd" d="M145.262 269.446C145.251 269.569 145.145 269.665 145.028 269.654L141.641 269.329L141.444 269.121C138.762 237.052 136.287 228.433 135.402 226.268C135.285 225.99 135.573 225.809 135.765 226.033C136.079 226.401 136.469 226.982 136.917 227.724C137.807 229.201 138.911 231.308 140.031 233.59C142.26 238.156 144.537 243.425 145.246 245.793C146.574 250.236 145.411 267.318 145.262 269.446ZM129.318 226.46L135.578 269.089C135.594 269.206 135.509 269.324 135.397 269.345L130.902 270.081L128.054 270.54L127.425 270.625L127.142 270.79L126.838 270.886C123.937 271.798 121.004 272.62 118.082 273.457C118.018 273.478 117.885 273.43 117.847 273.372C114.675 268.614 112.99 263.697 112.232 258.022C112.216 257.884 112.307 257.772 112.446 257.766C113.117 257.756 115.128 257.585 117.757 256.065C120.455 254.497 123.207 246.881 124.14 243.788L128.897 226.433C128.971 226.156 129.275 226.172 129.318 226.46ZM123.729 224.577L120.386 238.934C120.322 239.164 116.744 252.076 114.211 251.292C108.59 249.558 114.637 232.518 114.712 232.316L118.903 217.852L123.729 224.577ZM149.006 246.134C148.291 239.809 142.905 230.321 137.738 222.444C132.56 214.55 127.563 208.225 127.563 208.225C127.419 208.044 127.227 208.092 127.179 208.321L125.265 218.097L118.466 208.604C118.349 208.444 118.183 208.46 118.098 208.636C106.489 233.286 106.777 253.137 107.668 259.254C108.121 262.337 110.462 267.414 112.664 271.692C114.877 275.98 116.978 279.51 117.234 279.606C117.234 279.606 120.674 278.406 124.582 277.137C128.502 275.868 132.853 274.54 134.693 274.268C138.41 273.724 147.907 273.724 148.12 273.537C148.12 273.537 150.429 258.684 149.006 246.134Z" fill="black"/>
<path fill-rule="evenodd" clip-rule="evenodd" d="M254.144 282.222L253.109 292.228C253.947 292.265 258.767 292.372 259.039 291.113C259.498 288.99 259.93 280.761 257.738 279.636C255.973 278.729 254.667 280.825 254.144 282.222ZM233.139 289.177C233.048 289.097 232.899 288.82 233.192 288.74L234.413 288.414C237.336 287.609 242.268 285.966 244.129 283.668C246.796 280.382 249.713 277.492 252.592 275.961C255.818 274.238 259.764 273.337 262.692 278.414C264.734 281.961 264.11 287.822 263.417 291.817L263.172 293.156C263.108 293.508 263.076 293.71 263.076 293.774C263.076 297.566 248.337 296.393 248.337 294.142L250.171 284.58C248.321 286.201 243.569 290.26 241.639 290.83C238.589 291.726 235.427 291.71 233.182 289.273L233.139 289.177Z" fill="black"/>
<path fill-rule="evenodd" clip-rule="evenodd" d="M179.713 70.2861C181.643 70.0035 182.048 70.7128 182.464 71.0755C183.12 71.6408 182.075 71.8755 181.147 72.0941C180.23 72.3075 179.499 72.1955 179.499 72.1955C179.499 72.1955 179.275 70.3501 179.713 70.2861ZM193.588 95.9501C193.209 95.8115 192.111 95.7475 191.743 95.7208C189.263 95.5501 182.944 95.3901 180.928 94.2595C180.534 94.0408 180.219 93.7368 180.198 93.3261C180.161 90.6915 179.323 87.7688 176.892 84.9688C176.833 84.8995 176.668 84.8408 176.294 85.1821C174.876 86.4781 174.097 89.5501 174.791 91.3368C175.959 94.3288 174.961 96.4568 172.162 97.1821C171.756 97.2888 171.447 97.3261 171.351 97.3368L165.939 99.3795C166.04 100.531 166.653 107.219 167.656 107.737C168.168 107.998 178.913 99.7581 179.11 98.9475L179.526 98.7768C180.235 98.8621 180.987 99.1395 181.664 99.3528C184.917 100.377 188.122 101.555 191.38 102.563C192.042 102.771 192.772 103.038 193.465 103.107C195.204 101.913 194.324 98.8355 193.855 97.1608L193.641 96.3715C193.609 96.2221 193.593 96.0728 193.588 95.9501ZM175.34 67.4808C175.255 68.0408 175.127 68.9688 175.015 69.9981C174.983 70.3181 176.572 70.0461 177.42 70.5048C178.188 70.9155 177.638 73.5715 177.564 74.2968C177.478 75.0488 178.742 74.6808 178.678 75.0168C178.662 75.1075 178.539 78.5741 178.955 79.1501C179.75 79.5768 182.667 77.8115 183.323 76.6168C185.115 73.3635 183.36 68.4675 182.576 67.2088C182.027 66.3341 177.644 66.5368 176.374 66.5741L175.345 66.5795L175.34 67.4808ZM172.034 68.0088C173.154 65.4115 174.209 63.3475 174.375 63.0168C174.647 60.8088 177.958 60.4941 179.398 60.4941C181.803 60.4941 183.781 61.6995 184.853 63.8435C185.045 64.2168 185.12 64.4728 185.12 64.4728C185.12 64.4728 185.738 66.5208 186.378 68.6008C186.565 69.2141 187.344 71.9235 187.802 72.8995L187.951 73.3048L188.282 74.3128C189.039 76.6488 190.719 81.6728 192.479 82.9528C201.581 89.5928 202.835 109.342 202.835 110.169C202.835 111.033 199.502 140.291 197.011 151.427C196.404 154.163 195.246 160.862 198.041 163.363C198.206 163.513 198.35 163.609 198.446 163.662C198.851 163.838 198.814 164.142 198.537 164.169L189.653 165.011C189.466 165.027 189.365 164.894 189.429 164.713C189.429 164.713 189.994 163.166 190.607 160.889C191.22 158.606 191.882 155.593 192.084 152.654C192.351 148.846 193.561 142.595 194.041 135.683C194.521 128.777 194.265 121.241 191.615 114.809C193.247 110.329 193.668 107.923 193.759 107.294C193.113 107.049 190.644 106.126 187.962 105.166C184.827 104.041 181.435 102.873 180.305 102.665C178.635 102.361 173.863 108.211 172.418 109.795C171.575 110.729 170.829 111.486 170.333 111.769C169.447 112.275 170.333 114.473 170.573 115.193C170.946 116.297 171.826 118.526 170.77 119.513C167.981 122.126 168.706 125.289 169.634 128.483C170.018 129.795 170.498 131.235 170.999 132.83C173.004 139.23 175.356 148.147 173.239 161.465C173.671 162.259 180.72 163.075 180.955 162.201C183.499 152.729 183.653 147.113 183.941 143.598C184.24 140.046 184.693 138.515 187.919 137.422C188.031 137.385 188.159 137.449 188.197 137.566C188.362 138.094 188.207 140.547 187.823 144.867C187.434 149.203 186.805 155.486 185.968 163.785C188.842 164.681 188.063 165.891 186.277 166.969C184.507 168.03 181.558 169.209 179.59 170.473C179.478 170.542 179.339 170.499 179.281 170.377C178.742 169.214 176.737 168.227 174.231 167.315C171.746 166.414 168.904 165.619 166.861 164.787C164.648 163.886 163.144 158.217 164.803 151.891C165.965 147.47 162.6 124.755 161.753 118.814C161.481 116.894 161.081 115.662 160.654 114.702C160.222 113.721 159.758 113.006 159.369 112.137C158.569 110.345 158.089 107.929 158.708 101.529C159.326 95.0968 161.811 90.1955 164.211 86.2701C165.405 84.3128 166.579 82.5955 167.496 81.0488C168.408 79.5075 169.042 78.1635 169.191 76.9315C169.501 74.3395 170.813 70.8408 172.034 68.0088Z" fill="black"/>
<path fill-rule="evenodd" clip-rule="evenodd" d="M245.31 251.293C244.148 251.65 242.612 248.866 241.295 245.49C240.042 242.263 239.141 238.93 239.141 238.93L235.792 224.578L240.618 217.847L244.814 232.317C245.961 235.506 250.382 249.73 245.31 251.293ZM235.381 243.789C236.346 246.989 239.093 254.514 241.764 256.061C243.295 256.946 245.305 257.741 247.081 257.767C247.214 257.773 247.31 257.885 247.289 258.023C246.537 263.703 244.846 268.615 241.679 273.367C241.642 273.426 241.503 273.474 241.439 273.458C238.517 272.621 235.589 271.799 232.683 270.887L232.384 270.791C232.262 270.701 232.208 270.658 232.128 270.631L231.472 270.541L228.619 270.082L224.124 269.341C224.012 269.325 223.927 269.207 223.948 269.09L230.209 226.461C230.251 226.173 230.555 226.151 230.63 226.434L235.381 243.789ZM224.124 226.269C223.234 228.434 220.759 237.053 218.077 269.122L214.499 269.65C214.381 269.661 214.27 269.57 214.259 269.447C214.19 268.439 213.902 264.199 213.747 259.511C213.571 254.135 213.571 248.162 214.28 245.794C214.989 243.426 217.261 238.151 219.495 233.586C220.61 231.303 221.714 229.202 222.604 227.725C223.052 226.983 223.447 226.402 223.761 226.034C223.953 225.81 224.236 225.991 224.124 226.269ZM241.428 208.637C241.343 208.455 241.172 208.439 241.055 208.605L234.256 218.098L232.342 208.322C232.299 208.093 232.107 208.045 231.963 208.226C231.963 208.226 226.961 214.551 221.783 222.445C216.616 230.317 211.23 239.81 210.515 246.135C209.806 252.407 210.025 259.255 210.425 264.541C210.825 269.821 211.406 273.538 211.619 273.725C211.619 273.725 221.111 273.725 224.828 274.269C226.668 274.541 231.024 275.869 234.938 277.138C238.847 278.407 242.287 279.607 242.543 279.511C245.326 274.834 251.117 264.295 251.853 259.255C252.744 253.138 253.032 233.287 241.428 208.637Z" fill="black"/>
<path fill-rule="evenodd" clip-rule="evenodd" d="M10.5224 152.441C9.83447 153.839 9.37053 155.417 9.1199 157.151C8.60264 160.697 9.69582 164.431 14.0738 165.103C20.5529 166.1 20.2916 157.039 24.0244 157.615C25.7948 157.887 26.2534 160.047 26.0294 161.577C25.8001 163.161 25.0909 164.676 24.163 165.945L27.6399 166.868C28.4078 164.948 28.829 164.009 29.149 161.823C29.7409 157.753 28.6211 154.015 24.3284 153.353C17.764 152.345 17.9133 161.391 14.5165 160.868C12.3834 160.543 12.0581 158.66 12.2554 157.279C12.4634 155.865 12.9753 154.5 13.6952 153.311L10.5224 152.441ZM27.3039 194.383L27.3199 190.159L22.7926 188.356L22.8246 180.105L27.3732 178.377L27.3892 173.86L7.55746 181.759L7.53613 186.367L27.3039 194.383ZM19.6997 181.231L19.673 187.177L11.5196 184.196V184.137L19.6997 181.231ZM29.0797 207.001L28.5624 202.953L12.0261 205.172L11.2903 199.385L8.19737 199.801L10.1757 215.412L13.2686 215.001L12.5381 209.22L29.0797 207.001ZM32.4392 223.327L31.49 219.364L12.2608 224.212L13.21 228.175L32.4392 223.327ZM16.6548 238.649C16.6815 240.217 16.9961 241.833 17.5667 243.487C18.7292 246.863 21.4008 249.636 25.5708 248.116C31.7513 245.865 27.3786 237.993 30.9354 236.697C32.6205 236.084 34.0123 237.775 34.5189 239.231C35.0415 240.74 35.1055 242.415 34.8655 243.988L38.3583 243.119C38.1557 241.055 38.1024 240.025 37.3825 237.935C36.0493 234.063 33.351 231.3 29.261 232.793C23.0006 235.071 27.2666 242.985 24.0297 244.164C21.998 244.9 20.8515 243.401 20.3929 242.084C19.929 240.735 19.7584 239.284 19.849 237.887L16.6548 238.649ZM48.5808 263.049L46.7518 259.428L39.4515 263.327L38.8596 262.164C38.0917 260.639 38.3583 259.903 39.4035 258.687L43.7922 253.583L41.7552 249.545L36.3479 256.116C35.7507 256.895 35.0788 257.972 35.5001 258.996L35.4521 259.023C33.9856 256.884 31.554 256.372 29.4903 257.476C24.6057 260.084 27.0746 264.649 29.037 268.532L31.0101 272.436L48.5808 263.049ZM31.9486 267.337L31.346 266.143C30.4341 264.335 29.5863 262.223 31.7033 261.092C33.895 259.924 35.1801 261.833 36.0813 263.62L36.6839 264.809L31.9486 267.337ZM59.9978 279.897L53.1882 270.063L50.6445 271.919L55.1505 278.431L50.6232 281.743L46.5278 275.828L43.9842 277.689L48.0796 283.604L44.1068 286.511L39.6328 280.047L37.0892 281.908L43.8669 291.695L59.9978 279.897ZM72.6253 294.079L69.2285 290.473L50.3672 299.705L53.1082 302.617L67.7727 295.209L67.81 295.252L60.1738 310.116L63.1334 313.257L72.6253 294.079ZM85.7434 305.865L82.6825 303.268L70.0764 318.964L73.1373 321.561L85.7434 305.865ZM106.444 319.961L103.213 317.903L95.406 330.831L95.358 330.804L96.7338 313.764L92.6118 311.135L82.1653 328.425L85.3968 330.484L93.209 317.556L93.257 317.588L91.8545 334.607L96.0033 337.252L106.444 319.961ZM123.37 327.737L118.875 325.791L105.037 341.881L108.668 343.455L119.339 330.74L119.387 330.761L118.027 347.513L121.946 349.209L123.37 327.737Z" fill="black"/>
<path fill-rule="evenodd" clip-rule="evenodd" d="M246.846 321.802L243.055 323.445L243.225 328.437L235.829 331.642L232.496 328.021L228.443 329.781L243.3 345.429L247.433 343.637L246.846 321.802ZM238.063 334.154L243.391 331.845L243.929 340.725L243.876 340.746L238.063 334.154ZM266.699 309.349L263.473 311.413L271.285 324.341L271.232 324.373L256.989 315.546L252.866 318.175L263.313 335.466L266.539 333.407L258.732 320.479L258.78 320.447L273.002 329.285L277.146 326.639L266.699 309.349ZM287.165 291.253L284.094 294.058L285.816 298.73L279.823 304.213L275.535 301.887L272.245 304.895L291.218 314.789L294.562 311.727L287.165 291.253ZM282.723 305.855L287.043 301.898L290.333 310.133L290.296 310.17L282.723 305.855ZM295.1 281.429L292.525 284.533L305.211 295.663L301.526 300.101L303.899 302.181L313.844 290.207L311.471 288.127L307.786 292.559L295.1 281.429ZM304.672 267.999L302.411 271.359L318.686 282.949L320.947 279.589L304.672 267.999ZM313.775 251.786L308.138 262.277L310.869 263.829L314.586 256.911L329.186 265.199L331.106 261.626L313.775 251.786ZM323.773 225.909L322.355 229.877L326.013 233.157L323.235 240.901L318.388 240.927L316.868 245.167L338.134 244.714L339.686 240.389L323.773 225.909ZM326.546 240.943L328.546 235.365L335.222 241.029L335.201 241.082L326.546 240.943ZM327.874 205.546L327.069 209.546L335.127 211.253L334.871 212.538C334.535 214.223 333.873 214.618 332.311 214.885L325.779 215.999L324.883 220.453L333.105 218.863C334.049 218.645 335.233 218.239 335.532 217.173L335.59 217.183C335.409 219.797 336.988 221.765 339.265 222.25C344.65 223.391 345.541 218.255 346.4 213.967L347.263 209.658L327.874 205.546ZM343.408 213.007L343.141 214.319C342.741 216.319 342.102 218.506 339.766 218.01C337.35 217.498 337.526 215.183 337.921 213.215L338.182 211.898L343.408 213.007ZM329.538 178.053L329.357 182.277L333.815 184.261L333.457 192.506L328.85 194.047L328.653 198.559L348.778 191.477L348.975 186.874L329.538 178.053ZM336.625 191.509L336.881 185.567L344.917 188.879L344.912 188.938L336.625 191.509ZM332.482 171.829C331.895 170.933 331.351 169.087 331.175 167.493C330.7 163.178 333.436 160.277 337.441 159.813C341.472 159.343 344.858 161.589 345.317 165.765C345.477 167.21 345.434 168.623 344.757 170.255L348.111 170.159C348.517 168.618 348.575 166.821 348.426 165.487C347.674 158.623 343.429 154.831 336.694 155.615C330.039 156.389 327.357 161.306 328.077 167.855C328.242 169.386 328.701 170.949 329.202 172.389L332.482 171.829Z" fill="black"/>
<path fill-rule="evenodd" clip-rule="evenodd" d="M249.931 46.2911L253.142 48.3818L261.85 34.2378L261.924 34.2165L257.701 51.3418L260.911 53.4325L274.152 42.1685L274.2 42.2005L265.465 56.3925L268.675 58.4831L279.266 41.2831L273.89 37.7898L261.892 48.2378L261.844 48.2058L265.886 32.5845L260.516 29.0911L249.931 46.2911ZM232.728 38.4991L237.229 40.4245L250.987 24.2645L247.345 22.7071L236.744 35.4805L236.691 35.4591L237.97 18.7018L234.04 17.0218L232.728 38.4991ZM207.313 30.7871L211.164 31.7791L213.163 23.5765L214.4 23.8965C216.027 24.3178 216.384 25.0111 216.576 26.6218L217.381 33.3845L221.674 34.4885L220.48 25.9711C220.304 24.9951 219.962 23.7685 218.938 23.4111L218.949 23.3578C221.482 23.6458 223.466 22.1151 224.031 19.7951C225.37 14.3071 220.41 13.1818 216.283 12.1151L212.129 11.0485L207.313 30.7871ZM215.222 15.1498L216.485 15.4751C218.411 15.9711 220.512 16.7231 219.93 19.1018C219.328 21.5605 217.088 21.2831 215.19 20.7925L213.926 20.4671L215.222 15.1498ZM185.285 17.8325C185.615 14.2645 187.567 10.7605 191.492 11.1445C195.417 11.5285 196.686 15.3471 196.355 18.9151C196.019 22.5738 194.179 26.1151 190.143 25.7151C186.101 25.3258 184.949 21.4911 185.285 17.8325ZM181.163 17.4325C180.587 23.6405 183.52 28.2911 189.844 28.9098C196.088 29.5231 199.912 25.4431 200.477 19.3205C201.048 13.1925 197.971 8.5578 191.785 7.95513C185.514 7.3418 181.739 11.2191 181.163 17.4325ZM168.407 28.4298L172.375 28.2485L171.5 7.9178L167.533 8.09913L168.407 28.4298ZM145.37 14.1845L147.557 13.8271C150.836 13.2885 154.388 15.2778 155.065 19.6511C155.742 24.0298 152.964 27.0538 149.69 27.5871L147.504 27.9445L145.37 14.1845ZM144.075 31.7525L149.423 30.8778C155.417 29.8965 160.392 26.9578 159.155 18.9845C157.918 11.0058 152.303 9.80046 146.309 10.7818L140.96 11.6565L144.075 31.7525ZM126.168 37.5445L130.797 35.9658L130.898 14.4938L127.154 15.7685L127.277 32.5578L127.224 32.5738L117.513 19.0485L113.476 20.4298L126.168 37.5445ZM106.571 46.6538L110.117 44.8138L102.603 29.5071L107.669 26.8831L106.267 24.0191L92.5888 31.1125L93.9966 33.9765L99.0572 31.3471L106.571 46.6538ZM84.5687 36.9791C83.1022 37.4111 81.6678 38.1365 80.26 39.1285C77.3804 41.1498 75.4607 44.5151 77.9616 48.2698C81.6624 53.8271 87.9442 47.4645 90.0772 50.6645C91.0851 52.1845 89.8532 54.0031 88.6161 54.8725C87.3256 55.7791 85.7685 56.2751 84.2274 56.4405L85.9391 59.6885C87.8269 58.9578 88.7867 58.6378 90.5625 57.3898C93.8633 55.0645 95.767 51.6778 93.3141 47.9978C89.5653 42.3658 83.2195 48.6325 81.2838 45.7205C80.0627 43.8911 81.1825 42.3658 82.3023 41.5765C83.4488 40.7711 84.7713 40.2271 86.1098 39.9605L84.5687 36.9791Z" fill="black"/>
</svg>
